<svg width="2560" height="550" viewBox="0 0 2560 550" fill="none" xmlns="http://www.w3.org/2000/svg">
<g clip-path="url(#clip0_1096_14445)">
<rect width="2560" height="550" fill="url(#paint0_linear_1096_14445)"/>
<rect width="2560" height="550" fill="url(#paint1_radial_1096_14445)" fill-opacity="0.3"/>
<rect width="2560" height="550" fill="url(#paint2_radial_1096_14445)" fill-opacity="0.3"/>
<mask id="mask0_1096_14445" style="mask-type:alpha" maskUnits="userSpaceOnUse" x="865" y="-51" width="1201" height="630">
<rect x="865.5" y="-51" width="1200" height="630" fill="url(#paint3_linear_1096_14445)"/>
</mask>
<g mask="url(#mask0_1096_14445)">
<mask id="mask1_1096_14445" style="mask-type:alpha" maskUnits="userSpaceOnUse" x="968" y="-51" width="1201" height="630">
<rect x="968.5" y="-51" width="1200" height="630" fill="url(#paint4_linear_1096_14445)"/>
</mask>
<g mask="url(#mask1_1096_14445)">
<g style="mix-blend-mode:overlay" opacity="0.1">
<path d="M909 258.5C989.5 263.5 1209.5 272 1445.5 266C1681.5 260 2065.83 257.833 2228.5 257.5" stroke="#D7D7D7" stroke-width="2"/>
<path d="M909 261.5C989.5 266.5 1209.5 275 1445.5 269C1681.5 263 2065.83 260.833 2228.5 260.5" stroke="black" stroke-width="2"/>
</g>
<g style="mix-blend-mode:overlay" opacity="0.1">
<path d="M909 526.5C989.5 531.5 1209.5 540 1445.5 534C1681.5 528 2065.83 525.833 2228.5 525.5" stroke="#D7D7D7" stroke-width="2"/>
<path d="M909 529.5C989.5 534.5 1209.5 543 1445.5 537C1681.5 531 2065.83 528.833 2228.5 528.5" stroke="black" stroke-width="2"/>
</g>
<g style="mix-blend-mode:overlay" opacity="0.1">
<path d="M2228.36 189.43C2147.93 195.536 1928.07 207.06 1692.01 204.305C1455.95 201.55 1071.62 204.667 908.969 206.57" stroke="#D7D7D7" stroke-width="2"/>
<path d="M2228.4 192.43C2147.98 198.536 1928.11 210.06 1692.05 207.305C1455.99 204.55 1071.67 207.667 909.01 209.57" stroke="black" stroke-width="2"/>
</g>
<g style="mix-blend-mode:overlay" opacity="0.1">
<path d="M2228.36 457.43C2147.93 463.536 1928.07 475.06 1692.01 472.305C1455.95 469.55 1071.62 472.667 908.969 474.57" stroke="#D7D7D7" stroke-width="2"/>
<path d="M2228.4 460.43C2147.98 466.536 1928.11 478.06 1692.05 475.305C1455.99 472.55 1071.67 475.667 909.01 477.57" stroke="black" stroke-width="2"/>
</g>
<g style="mix-blend-mode:overlay" opacity="0.1">
<path d="M2228.35 124.874C2147.93 131.461 1928.08 143.803 1692.01 140.471C1455.95 137.138 1071.62 140.047 908.96 141.917" stroke="#D7D7D7" stroke-width="2"/>
<path d="M2228.4 128.162C2147.98 134.75 1928.13 147.092 1692.06 143.759C1455.99 140.427 1071.66 143.335 909.005 145.206" stroke="black" stroke-width="2"/>
</g>
<g style="mix-blend-mode:overlay" opacity="0.1">
<path d="M2228.35 392.874C2147.93 399.461 1928.08 411.803 1692.01 408.471C1455.95 405.138 1071.62 408.047 908.96 409.917" stroke="#D7D7D7" stroke-width="2"/>
<path d="M2228.4 396.162C2147.98 402.75 1928.13 415.092 1692.06 411.759C1455.99 408.427 1071.66 411.335 909.005 413.206" stroke="black" stroke-width="2"/>
</g>
<g style="mix-blend-mode:overlay" opacity="0.1">
<path d="M2228.35 54.8735C2147.93 61.4612 1928.08 73.8034 1692.01 70.4707C1455.95 67.138 1071.62 70.0466 908.96 71.9175" stroke="#D7D7D7" stroke-width="2"/>
<path d="M2228.4 58.1621C2147.98 64.7498 1928.13 77.0919 1692.06 73.7592C1455.99 70.4265 1071.66 73.3352 909.005 75.2061" stroke="black" stroke-width="2"/>
</g>
<g style="mix-blend-mode:overlay" opacity="0.1">
<path d="M2228.35 322.874C2147.93 329.461 1928.08 341.803 1692.01 338.471C1455.95 335.138 1071.62 338.047 908.96 339.917" stroke="#D7D7D7" stroke-width="2"/>
<path d="M2228.4 326.162C2147.98 332.75 1928.13 345.092 1692.06 341.759C1455.99 338.427 1071.66 341.335 909.005 343.206" stroke="black" stroke-width="2"/>
</g>
<g style="mix-blend-mode:overlay" opacity="0.1">
<path d="M1565.7 4.79207e-08C1571.18 4.39257 1564.92 16.5 1565.92 29.2747C1567.05 43.6909 1564.97 63.1239 1564.6 72" stroke="black" stroke-width="2"/>
<path d="M1568.7 4.79207e-08C1574.18 4.39257 1567.92 16.5 1568.92 29.2747C1570.05 43.6909 1567.97 63.1239 1567.6 72" stroke="#D7D7D7" stroke-width="2"/>
</g>
<g style="mix-blend-mode:overlay" opacity="0.1">
<path d="M1565.7 268C1571.18 272.393 1564.92 284.5 1565.92 297.275C1567.05 311.691 1564.97 331.124 1564.6 340" stroke="black" stroke-width="2"/>
<path d="M1568.7 268C1574.18 272.393 1567.92 284.5 1568.92 297.275C1570.05 311.691 1567.97 331.124 1567.6 340" stroke="#D7D7D7" stroke-width="2"/>
</g>
<g style="mix-blend-mode:overlay" opacity="0.1">
<path d="M1819.6 4.79207e-08C1825.08 4.39257 1818.82 16.5 1819.82 29.2747C1820.95 43.6909 1818.87 63.1239 1818.5 72" stroke="black" stroke-width="2"/>
<path d="M1822.6 4.79207e-08C1828.08 4.39257 1821.82 16.5 1822.82 29.2747C1823.95 43.6909 1821.87 63.1239 1821.5 72" stroke="#D7D7D7" stroke-width="2"/>
</g>
<g style="mix-blend-mode:overlay" opacity="0.1">
<path d="M1819.6 268C1825.08 272.393 1818.82 284.5 1819.82 297.275C1820.95 311.691 1818.87 331.124 1818.5 340" stroke="black" stroke-width="2"/>
<path d="M1822.6 268C1828.08 272.393 1821.82 284.5 1822.82 297.275C1823.95 311.691 1821.87 331.124 1821.5 340" stroke="#D7D7D7" stroke-width="2"/>
</g>
<g style="mix-blend-mode:overlay" opacity="0.1">
<path d="M2037.6 -4C2043.08 0.392573 2036.82 12.5 2037.82 25.2747C2038.95 39.6909 2036.87 59.1239 2036.5 68" stroke="black" stroke-width="2"/>
<path d="M2040.6 -4C2046.08 0.392573 2039.82 12.5 2040.82 25.2747C2041.95 39.6909 2039.87 59.1239 2039.5 68" stroke="#D7D7D7" stroke-width="2"/>
</g>
<g style="mix-blend-mode:overlay" opacity="0.1">
<path d="M2037.6 264C2043.08 268.393 2036.82 280.5 2037.82 293.275C2038.95 307.691 2036.87 327.124 2036.5 336" stroke="black" stroke-width="2"/>
<path d="M2040.6 264C2046.08 268.393 2039.82 280.5 2040.82 293.275C2041.95 307.691 2039.87 327.124 2039.5 336" stroke="#D7D7D7" stroke-width="2"/>
</g>
<g style="mix-blend-mode:overlay" opacity="0.1">
<path d="M1302.78 -1C1297.3 3.39257 1303.56 15.5 1302.56 28.2747C1301.43 42.6909 1303.51 62.1239 1303.88 71" stroke="black" stroke-width="2"/>
<path d="M1299.78 -1C1294.3 3.39257 1300.56 15.5 1299.56 28.2747C1298.43 42.6909 1300.51 62.1239 1300.88 71" stroke="#D7D7D7" stroke-width="2"/>
</g>
<g style="mix-blend-mode:overlay" opacity="0.1">
<path d="M1302.78 267C1297.3 271.393 1303.56 283.5 1302.56 296.275C1301.43 310.691 1303.51 330.124 1303.88 339" stroke="black" stroke-width="2"/>
<path d="M1299.78 267C1294.3 271.393 1300.56 283.5 1299.56 296.275C1298.43 310.691 1300.51 330.124 1300.88 339" stroke="#D7D7D7" stroke-width="2"/>
</g>
<g style="mix-blend-mode:overlay" opacity="0.1">
<path d="M1435.78 72C1430.3 76.3926 1436.56 88.5 1435.56 101.275C1434.43 115.691 1436.51 135.124 1436.88 144" stroke="black" stroke-width="2"/>
<path d="M1432.78 72C1427.3 76.3926 1433.56 88.5 1432.56 101.275C1431.43 115.691 1433.51 135.124 1433.88 144" stroke="#D7D7D7" stroke-width="2"/>
</g>
<g style="mix-blend-mode:overlay" opacity="0.1">
<path d="M1435.78 340C1430.3 344.393 1436.56 356.5 1435.56 369.275C1434.43 383.691 1436.51 403.124 1436.88 412" stroke="black" stroke-width="2"/>
<path d="M1432.78 340C1427.3 344.393 1433.56 356.5 1432.56 369.275C1431.43 383.691 1433.51 403.124 1433.88 412" stroke="#D7D7D7" stroke-width="2"/>
</g>
<g style="mix-blend-mode:overlay" opacity="0.1">
<path d="M1435.78 203C1430.3 207.393 1436.56 219.5 1435.56 232.275C1434.43 246.691 1436.51 266.124 1436.88 275" stroke="black" stroke-width="2"/>
<path d="M1432.78 203C1427.3 207.393 1433.56 219.5 1432.56 232.275C1431.43 246.691 1433.51 266.124 1433.88 275" stroke="#D7D7D7" stroke-width="2"/>
</g>
<g style="mix-blend-mode:overlay" opacity="0.1">
<path d="M1435.78 471C1430.3 475.393 1436.56 487.5 1435.56 500.275C1434.43 514.691 1436.51 534.124 1436.88 543" stroke="black" stroke-width="2"/>
<path d="M1432.78 471C1427.3 475.393 1433.56 487.5 1432.56 500.275C1431.43 514.691 1433.51 534.124 1433.88 543" stroke="#D7D7D7" stroke-width="2"/>
</g>
<g style="mix-blend-mode:overlay" opacity="0.1">
<path d="M1705.78 72C1700.3 76.3926 1706.56 88.5 1705.56 101.275C1704.43 115.691 1706.51 135.124 1706.88 144" stroke="black" stroke-width="2"/>
<path d="M1702.78 72C1697.3 76.3926 1703.56 88.5 1702.56 101.275C1701.43 115.691 1703.51 135.124 1703.88 144" stroke="#D7D7D7" stroke-width="2"/>
</g>
<g style="mix-blend-mode:overlay" opacity="0.1">
<path d="M1705.78 340C1700.3 344.393 1706.56 356.5 1705.56 369.275C1704.43 383.691 1706.51 403.124 1706.88 412" stroke="black" stroke-width="2"/>
<path d="M1702.78 340C1697.3 344.393 1703.56 356.5 1702.56 369.275C1701.43 383.691 1703.51 403.124 1703.88 412" stroke="#D7D7D7" stroke-width="2"/>
</g>
<g style="mix-blend-mode:overlay" opacity="0.1">
<path d="M1705.78 203C1700.3 206.721 1706.56 216.979 1705.56 227.802C1704.43 240.016 1706.51 256.48 1706.88 264" stroke="black" stroke-width="2"/>
<path d="M1702.78 203C1697.3 206.721 1703.56 216.979 1702.56 227.802C1701.43 240.016 1703.51 256.48 1703.88 264" stroke="#D7D7D7" stroke-width="2"/>
</g>
<g style="mix-blend-mode:overlay" opacity="0.1">
<path d="M1705.78 473C1700.3 476.599 1706.56 486.521 1705.56 496.989C1704.43 508.802 1706.51 524.727 1706.88 532" stroke="black" stroke-width="2"/>
<path d="M1702.78 473C1697.3 476.599 1703.56 486.521 1702.56 496.989C1701.43 508.802 1703.51 524.727 1703.88 532" stroke="#D7D7D7" stroke-width="2"/>
</g>
<g style="mix-blend-mode:overlay" opacity="0.1">
<path d="M1936.78 72C1931.3 76.3926 1937.56 88.5 1936.56 101.275C1935.43 115.691 1937.51 135.124 1937.88 144" stroke="black" stroke-width="2"/>
<path d="M1933.78 72C1928.3 76.3926 1934.56 88.5 1933.56 101.275C1932.43 115.691 1934.51 135.124 1934.88 144" stroke="#D7D7D7" stroke-width="2"/>
</g>
<g style="mix-blend-mode:overlay" opacity="0.1">
<path d="M1936.78 340C1931.3 344.393 1937.56 356.5 1936.56 369.275C1935.43 383.691 1937.51 403.124 1937.88 412" stroke="black" stroke-width="2"/>
<path d="M1933.78 340C1928.3 344.393 1934.56 356.5 1933.56 369.275C1932.43 383.691 1934.51 403.124 1934.88 412" stroke="#D7D7D7" stroke-width="2"/>
</g>
<g style="mix-blend-mode:overlay" opacity="0.1">
<path d="M1936.78 203C1931.3 207.393 1937.56 219.5 1936.56 232.275C1935.43 246.691 1937.51 266.124 1937.88 275" stroke="black" stroke-width="2"/>
<path d="M1933.78 203C1928.3 207.393 1934.56 219.5 1933.56 232.275C1932.43 246.691 1934.51 266.124 1934.88 275" stroke="#D7D7D7" stroke-width="2"/>
</g>
<g style="mix-blend-mode:overlay" opacity="0.1">
<path d="M1936.78 471C1931.3 475.393 1937.56 487.5 1936.56 500.275C1935.43 514.691 1937.51 534.124 1937.88 543" stroke="black" stroke-width="2"/>
<path d="M1933.78 471C1928.3 475.393 1934.56 487.5 1933.56 500.275C1932.43 514.691 1934.51 534.124 1934.88 543" stroke="#D7D7D7" stroke-width="2"/>
</g>
<g style="mix-blend-mode:overlay" opacity="0.1">
<path d="M2047.78 137C2042.3 141.393 2048.56 153.5 2047.56 166.275C2046.43 180.691 2048.51 200.124 2048.88 209" stroke="black" stroke-width="2"/>
<path d="M2044.78 137C2039.3 141.393 2045.56 153.5 2044.56 166.275C2043.43 180.691 2045.51 200.124 2045.88 209" stroke="#D7D7D7" stroke-width="2"/>
</g>
<g style="mix-blend-mode:overlay" opacity="0.1">
<path d="M2047.78 405C2042.3 409.393 2048.56 421.5 2047.56 434.275C2046.43 448.691 2048.51 468.124 2048.88 477" stroke="black" stroke-width="2"/>
<path d="M2044.78 405C2039.3 409.393 2045.56 421.5 2044.56 434.275C2043.43 448.691 2045.51 468.124 2045.88 477" stroke="#D7D7D7" stroke-width="2"/>
</g>
<g style="mix-blend-mode:overlay" opacity="0.1">
<path d="M1551.78 141C1546.3 144.905 1552.56 155.667 1551.56 167.022C1550.43 179.836 1552.51 197.11 1552.88 205" stroke="black" stroke-width="2"/>
<path d="M1548.78 141C1543.3 144.905 1549.56 155.667 1548.56 167.022C1547.43 179.836 1549.51 197.11 1549.88 205" stroke="#D7D7D7" stroke-width="2"/>
</g>
<g style="mix-blend-mode:overlay" opacity="0.1">
<path d="M1551.78 409C1546.3 412.905 1552.56 423.667 1551.56 435.022C1550.43 447.836 1552.51 465.11 1552.88 473" stroke="black" stroke-width="2"/>
<path d="M1548.78 409C1543.3 412.905 1549.56 423.667 1548.56 435.022C1547.43 447.836 1549.51 465.11 1549.88 473" stroke="#D7D7D7" stroke-width="2"/>
</g>
<g style="mix-blend-mode:overlay" opacity="0.1">
<path d="M1256.78 141C1251.3 144.905 1257.56 155.667 1256.56 167.022C1255.43 179.836 1257.51 197.11 1257.88 205" stroke="black" stroke-width="2"/>
<path d="M1253.78 141C1248.3 144.905 1254.56 155.667 1253.56 167.022C1252.43 179.836 1254.51 197.11 1254.88 205" stroke="#D7D7D7" stroke-width="2"/>
</g>
<g style="mix-blend-mode:overlay" opacity="0.1">
<path d="M1256.78 409C1251.3 412.905 1257.56 423.667 1256.56 435.022C1255.43 447.836 1257.51 465.11 1257.88 473" stroke="black" stroke-width="2"/>
<path d="M1253.78 409C1248.3 412.905 1254.56 423.667 1253.56 435.022C1252.43 447.836 1254.51 465.11 1254.88 473" stroke="#D7D7D7" stroke-width="2"/>
</g>
<g style="mix-blend-mode:overlay" opacity="0.1">
<path d="M1826.78 142C1821.3 145.905 1827.56 156.667 1826.56 168.022C1825.43 180.836 1827.51 198.11 1827.88 206" stroke="black" stroke-width="2"/>
<path d="M1823.78 142C1818.3 145.905 1824.56 156.667 1823.56 168.022C1822.43 180.836 1824.51 198.11 1824.88 206" stroke="#D7D7D7" stroke-width="2"/>
</g>
<g style="mix-blend-mode:overlay" opacity="0.1">
<path d="M1826.78 410C1821.3 413.905 1827.56 424.667 1826.56 436.022C1825.43 448.836 1827.51 466.11 1827.88 474" stroke="black" stroke-width="2"/>
<path d="M1823.78 410C1818.3 413.905 1824.56 424.667 1823.56 436.022C1822.43 448.836 1824.51 466.11 1824.88 474" stroke="#D7D7D7" stroke-width="2"/>
</g>
<g style="mix-blend-mode:overlay" opacity="0.1">
<path d="M2228.35 -15.1265C2147.93 -8.53879 1928.08 3.80337 1692.01 0.470664C1455.95 -2.86204 1071.62 0.0465876 908.96 1.91749" stroke="#D7D7D7" stroke-width="2"/>
<path d="M2228.4 -11.8379C2147.98 -5.25022 1928.13 7.09194 1692.06 3.75924C1455.99 0.426536 1071.66 3.33516 909.005 5.20606" stroke="black" stroke-width="2"/>
</g>
</g>
<mask id="mask2_1096_14445" style="mask-type:alpha" maskUnits="userSpaceOnUse" x="968" y="-51" width="1201" height="630">
<rect x="968.5" y="-51" width="1200" height="630" fill="url(#paint5_linear_1096_14445)"/>
</mask>
<g mask="url(#mask2_1096_14445)">
<g style="mix-blend-mode:overlay" opacity="0.1">
<path d="M909 258.5C989.5 263.5 1209.5 272 1445.5 266C1681.5 260 2065.83 257.833 2228.5 257.5" stroke="#D7D7D7" stroke-width="2"/>
<path d="M909 261.5C989.5 266.5 1209.5 275 1445.5 269C1681.5 263 2065.83 260.833 2228.5 260.5" stroke="black" stroke-width="2"/>
</g>
<g style="mix-blend-mode:overlay" opacity="0.1">
<path d="M909 526.5C989.5 531.5 1209.5 540 1445.5 534C1681.5 528 2065.83 525.833 2228.5 525.5" stroke="#D7D7D7" stroke-width="2"/>
<path d="M909 529.5C989.5 534.5 1209.5 543 1445.5 537C1681.5 531 2065.83 528.833 2228.5 528.5" stroke="black" stroke-width="2"/>
</g>
<g style="mix-blend-mode:overlay" opacity="0.1">
<path d="M2228.36 189.43C2147.93 195.536 1928.07 207.06 1692.01 204.305C1455.95 201.55 1071.62 204.667 908.969 206.57" stroke="#D7D7D7" stroke-width="2"/>
<path d="M2228.4 192.43C2147.98 198.536 1928.11 210.06 1692.05 207.305C1455.99 204.55 1071.67 207.667 909.01 209.57" stroke="black" stroke-width="2"/>
</g>
<g style="mix-blend-mode:overlay" opacity="0.1">
<path d="M2228.36 457.43C2147.93 463.536 1928.07 475.06 1692.01 472.305C1455.95 469.55 1071.62 472.667 908.969 474.57" stroke="#D7D7D7" stroke-width="2"/>
<path d="M2228.4 460.43C2147.98 466.536 1928.11 478.06 1692.05 475.305C1455.99 472.55 1071.67 475.667 909.01 477.57" stroke="black" stroke-width="2"/>
</g>
<g style="mix-blend-mode:overlay" opacity="0.1">
<path d="M2228.35 124.874C2147.93 131.461 1928.08 143.803 1692.01 140.471C1455.95 137.138 1071.62 140.047 908.96 141.917" stroke="#D7D7D7" stroke-width="2"/>
<path d="M2228.4 128.162C2147.98 134.75 1928.13 147.092 1692.06 143.759C1455.99 140.427 1071.66 143.335 909.005 145.206" stroke="black" stroke-width="2"/>
</g>
<g style="mix-blend-mode:overlay" opacity="0.1">
<path d="M2228.35 392.874C2147.93 399.461 1928.08 411.803 1692.01 408.471C1455.95 405.138 1071.62 408.047 908.96 409.917" stroke="#D7D7D7" stroke-width="2"/>
<path d="M2228.4 396.162C2147.98 402.75 1928.13 415.092 1692.06 411.759C1455.99 408.427 1071.66 411.335 909.005 413.206" stroke="black" stroke-width="2"/>
</g>
<g style="mix-blend-mode:overlay" opacity="0.1">
<path d="M2228.35 54.8735C2147.93 61.4612 1928.08 73.8034 1692.01 70.4707C1455.95 67.138 1071.62 70.0466 908.96 71.9175" stroke="#D7D7D7" stroke-width="2"/>
<path d="M2228.4 58.1621C2147.98 64.7498 1928.13 77.0919 1692.06 73.7592C1455.99 70.4265 1071.66 73.3352 909.005 75.2061" stroke="black" stroke-width="2"/>
</g>
<g style="mix-blend-mode:overlay" opacity="0.1">
<path d="M2228.35 322.874C2147.93 329.461 1928.08 341.803 1692.01 338.471C1455.95 335.138 1071.62 338.047 908.96 339.917" stroke="#D7D7D7" stroke-width="2"/>
<path d="M2228.4 326.162C2147.98 332.75 1928.13 345.092 1692.06 341.759C1455.99 338.427 1071.66 341.335 909.005 343.206" stroke="black" stroke-width="2"/>
</g>
<g style="mix-blend-mode:overlay" opacity="0.1">
<path d="M1565.7 4.79207e-08C1571.18 4.39257 1564.92 16.5 1565.92 29.2747C1567.05 43.6909 1564.97 63.1239 1564.6 72" stroke="black" stroke-width="2"/>
<path d="M1568.7 4.79207e-08C1574.18 4.39257 1567.92 16.5 1568.92 29.2747C1570.05 43.6909 1567.97 63.1239 1567.6 72" stroke="#D7D7D7" stroke-width="2"/>
</g>
<g style="mix-blend-mode:overlay" opacity="0.1">
<path d="M1565.7 268C1571.18 272.393 1564.92 284.5 1565.92 297.275C1567.05 311.691 1564.97 331.124 1564.6 340" stroke="black" stroke-width="2"/>
<path d="M1568.7 268C1574.18 272.393 1567.92 284.5 1568.92 297.275C1570.05 311.691 1567.97 331.124 1567.6 340" stroke="#D7D7D7" stroke-width="2"/>
</g>
<g style="mix-blend-mode:overlay" opacity="0.1">
<path d="M1819.6 4.79207e-08C1825.08 4.39257 1818.82 16.5 1819.82 29.2747C1820.95 43.6909 1818.87 63.1239 1818.5 72" stroke="black" stroke-width="2"/>
<path d="M1822.6 4.79207e-08C1828.08 4.39257 1821.82 16.5 1822.82 29.2747C1823.95 43.6909 1821.87 63.1239 1821.5 72" stroke="#D7D7D7" stroke-width="2"/>
</g>
<g style="mix-blend-mode:overlay" opacity="0.1">
<path d="M1819.6 268C1825.08 272.393 1818.82 284.5 1819.82 297.275C1820.95 311.691 1818.87 331.124 1818.5 340" stroke="black" stroke-width="2"/>
<path d="M1822.6 268C1828.08 272.393 1821.82 284.5 1822.82 297.275C1823.95 311.691 1821.87 331.124 1821.5 340" stroke="#D7D7D7" stroke-width="2"/>
</g>
<g style="mix-blend-mode:overlay" opacity="0.1">
<path d="M2037.6 -4C2043.08 0.392573 2036.82 12.5 2037.82 25.2747C2038.95 39.6909 2036.87 59.1239 2036.5 68" stroke="black" stroke-width="2"/>
<path d="M2040.6 -4C2046.08 0.392573 2039.82 12.5 2040.82 25.2747C2041.95 39.6909 2039.87 59.1239 2039.5 68" stroke="#D7D7D7" stroke-width="2"/>
</g>
<g style="mix-blend-mode:overlay" opacity="0.1">
<path d="M2037.6 264C2043.08 268.393 2036.82 280.5 2037.82 293.275C2038.95 307.691 2036.87 327.124 2036.5 336" stroke="black" stroke-width="2"/>
<path d="M2040.6 264C2046.08 268.393 2039.82 280.5 2040.82 293.275C2041.95 307.691 2039.87 327.124 2039.5 336" stroke="#D7D7D7" stroke-width="2"/>
</g>
<g style="mix-blend-mode:overlay" opacity="0.1">
<path d="M1302.78 -1C1297.3 3.39257 1303.56 15.5 1302.56 28.2747C1301.43 42.6909 1303.51 62.1239 1303.88 71" stroke="black" stroke-width="2"/>
<path d="M1299.78 -1C1294.3 3.39257 1300.56 15.5 1299.56 28.2747C1298.43 42.6909 1300.51 62.1239 1300.88 71" stroke="#D7D7D7" stroke-width="2"/>
</g>
<g style="mix-blend-mode:overlay" opacity="0.1">
<path d="M1302.78 267C1297.3 271.393 1303.56 283.5 1302.56 296.275C1301.43 310.691 1303.51 330.124 1303.88 339" stroke="black" stroke-width="2"/>
<path d="M1299.78 267C1294.3 271.393 1300.56 283.5 1299.56 296.275C1298.43 310.691 1300.51 330.124 1300.88 339" stroke="#D7D7D7" stroke-width="2"/>
</g>
<g style="mix-blend-mode:overlay" opacity="0.1">
<path d="M1435.78 72C1430.3 76.3926 1436.56 88.5 1435.56 101.275C1434.43 115.691 1436.51 135.124 1436.88 144" stroke="black" stroke-width="2"/>
<path d="M1432.78 72C1427.3 76.3926 1433.56 88.5 1432.56 101.275C1431.43 115.691 1433.51 135.124 1433.88 144" stroke="#D7D7D7" stroke-width="2"/>
</g>
<g style="mix-blend-mode:overlay" opacity="0.1">
<path d="M1435.78 340C1430.3 344.393 1436.56 356.5 1435.56 369.275C1434.43 383.691 1436.51 403.124 1436.88 412" stroke="black" stroke-width="2"/>
<path d="M1432.78 340C1427.3 344.393 1433.56 356.5 1432.56 369.275C1431.43 383.691 1433.51 403.124 1433.88 412" stroke="#D7D7D7" stroke-width="2"/>
</g>
<g style="mix-blend-mode:overlay" opacity="0.1">
<path d="M1435.78 203C1430.3 207.393 1436.56 219.5 1435.56 232.275C1434.43 246.691 1436.51 266.124 1436.88 275" stroke="black" stroke-width="2"/>
<path d="M1432.78 203C1427.3 207.393 1433.56 219.5 1432.56 232.275C1431.43 246.691 1433.51 266.124 1433.88 275" stroke="#D7D7D7" stroke-width="2"/>
</g>
<g style="mix-blend-mode:overlay" opacity="0.1">
<path d="M1435.78 471C1430.3 475.393 1436.56 487.5 1435.56 500.275C1434.43 514.691 1436.51 534.124 1436.88 543" stroke="black" stroke-width="2"/>
<path d="M1432.78 471C1427.3 475.393 1433.56 487.5 1432.56 500.275C1431.43 514.691 1433.51 534.124 1433.88 543" stroke="#D7D7D7" stroke-width="2"/>
</g>
<g style="mix-blend-mode:overlay" opacity="0.1">
<path d="M1705.78 72C1700.3 76.3926 1706.56 88.5 1705.56 101.275C1704.43 115.691 1706.51 135.124 1706.88 144" stroke="black" stroke-width="2"/>
<path d="M1702.78 72C1697.3 76.3926 1703.56 88.5 1702.56 101.275C1701.43 115.691 1703.51 135.124 1703.88 144" stroke="#D7D7D7" stroke-width="2"/>
</g>
<g style="mix-blend-mode:overlay" opacity="0.1">
<path d="M1705.78 340C1700.3 344.393 1706.56 356.5 1705.56 369.275C1704.43 383.691 1706.51 403.124 1706.88 412" stroke="black" stroke-width="2"/>
<path d="M1702.78 340C1697.3 344.393 1703.56 356.5 1702.56 369.275C1701.43 383.691 1703.51 403.124 1703.88 412" stroke="#D7D7D7" stroke-width="2"/>
</g>
<g style="mix-blend-mode:overlay" opacity="0.1">
<path d="M1705.78 203C1700.3 206.721 1706.56 216.979 1705.56 227.802C1704.43 240.016 1706.51 256.48 1706.88 264" stroke="black" stroke-width="2"/>
<path d="M1702.78 203C1697.3 206.721 1703.56 216.979 1702.56 227.802C1701.43 240.016 1703.51 256.48 1703.88 264" stroke="#D7D7D7" stroke-width="2"/>
</g>
<g style="mix-blend-mode:overlay" opacity="0.1">
<path d="M1705.78 473C1700.3 476.599 1706.56 486.521 1705.56 496.989C1704.43 508.802 1706.51 524.727 1706.88 532" stroke="black" stroke-width="2"/>
<path d="M1702.78 473C1697.3 476.599 1703.56 486.521 1702.56 496.989C1701.43 508.802 1703.51 524.727 1703.88 532" stroke="#D7D7D7" stroke-width="2"/>
</g>
<g style="mix-blend-mode:overlay" opacity="0.1">
<path d="M1936.78 72C1931.3 76.3926 1937.56 88.5 1936.56 101.275C1935.43 115.691 1937.51 135.124 1937.88 144" stroke="black" stroke-width="2"/>
<path d="M1933.78 72C1928.3 76.3926 1934.56 88.5 1933.56 101.275C1932.43 115.691 1934.51 135.124 1934.88 144" stroke="#D7D7D7" stroke-width="2"/>
</g>
<g style="mix-blend-mode:overlay" opacity="0.1">
<path d="M1936.78 340C1931.3 344.393 1937.56 356.5 1936.56 369.275C1935.43 383.691 1937.51 403.124 1937.88 412" stroke="black" stroke-width="2"/>
<path d="M1933.78 340C1928.3 344.393 1934.56 356.5 1933.56 369.275C1932.43 383.691 1934.51 403.124 1934.88 412" stroke="#D7D7D7" stroke-width="2"/>
</g>
<g style="mix-blend-mode:overlay" opacity="0.1">
<path d="M1936.78 203C1931.3 207.393 1937.56 219.5 1936.56 232.275C1935.43 246.691 1937.51 266.124 1937.88 275" stroke="black" stroke-width="2"/>
<path d="M1933.78 203C1928.3 207.393 1934.56 219.5 1933.56 232.275C1932.43 246.691 1934.51 266.124 1934.88 275" stroke="#D7D7D7" stroke-width="2"/>
</g>
<g style="mix-blend-mode:overlay" opacity="0.1">
<path d="M1936.78 471C1931.3 475.393 1937.56 487.5 1936.56 500.275C1935.43 514.691 1937.51 534.124 1937.88 543" stroke="black" stroke-width="2"/>
<path d="M1933.78 471C1928.3 475.393 1934.56 487.5 1933.56 500.275C1932.43 514.691 1934.51 534.124 1934.88 543" stroke="#D7D7D7" stroke-width="2"/>
</g>
<g style="mix-blend-mode:overlay" opacity="0.1">
<path d="M2047.78 137C2042.3 141.393 2048.56 153.5 2047.56 166.275C2046.43 180.691 2048.51 200.124 2048.88 209" stroke="black" stroke-width="2"/>
<path d="M2044.78 137C2039.3 141.393 2045.56 153.5 2044.56 166.275C2043.43 180.691 2045.51 200.124 2045.88 209" stroke="#D7D7D7" stroke-width="2"/>
</g>
<g style="mix-blend-mode:overlay" opacity="0.1">
<path d="M2047.78 405C2042.3 409.393 2048.56 421.5 2047.56 434.275C2046.43 448.691 2048.51 468.124 2048.88 477" stroke="black" stroke-width="2"/>
<path d="M2044.78 405C2039.3 409.393 2045.56 421.5 2044.56 434.275C2043.43 448.691 2045.51 468.124 2045.88 477" stroke="#D7D7D7" stroke-width="2"/>
</g>
<g style="mix-blend-mode:overlay" opacity="0.1">
<path d="M1551.78 141C1546.3 144.905 1552.56 155.667 1551.56 167.022C1550.43 179.836 1552.51 197.11 1552.88 205" stroke="black" stroke-width="2"/>
<path d="M1548.78 141C1543.3 144.905 1549.56 155.667 1548.56 167.022C1547.43 179.836 1549.51 197.11 1549.88 205" stroke="#D7D7D7" stroke-width="2"/>
</g>
<g style="mix-blend-mode:overlay" opacity="0.1">
<path d="M1551.78 409C1546.3 412.905 1552.56 423.667 1551.56 435.022C1550.43 447.836 1552.51 465.11 1552.88 473" stroke="black" stroke-width="2"/>
<path d="M1548.78 409C1543.3 412.905 1549.56 423.667 1548.56 435.022C1547.43 447.836 1549.51 465.11 1549.88 473" stroke="#D7D7D7" stroke-width="2"/>
</g>
<g style="mix-blend-mode:overlay" opacity="0.1">
<path d="M1256.78 141C1251.3 144.905 1257.56 155.667 1256.56 167.022C1255.43 179.836 1257.51 197.11 1257.88 205" stroke="black" stroke-width="2"/>
<path d="M1253.78 141C1248.3 144.905 1254.56 155.667 1253.56 167.022C1252.43 179.836 1254.51 197.11 1254.88 205" stroke="#D7D7D7" stroke-width="2"/>
</g>
<g style="mix-blend-mode:overlay" opacity="0.1">
<path d="M1256.78 409C1251.3 412.905 1257.56 423.667 1256.56 435.022C1255.43 447.836 1257.51 465.11 1257.88 473" stroke="black" stroke-width="2"/>
<path d="M1253.78 409C1248.3 412.905 1254.56 423.667 1253.56 435.022C1252.43 447.836 1254.51 465.11 1254.88 473" stroke="#D7D7D7" stroke-width="2"/>
</g>
<g style="mix-blend-mode:overlay" opacity="0.1">
<path d="M1826.78 142C1821.3 145.905 1827.56 156.667 1826.56 168.022C1825.43 180.836 1827.51 198.11 1827.88 206" stroke="black" stroke-width="2"/>
<path d="M1823.78 142C1818.3 145.905 1824.56 156.667 1823.56 168.022C1822.43 180.836 1824.51 198.11 1824.88 206" stroke="#D7D7D7" stroke-width="2"/>
</g>
<g style="mix-blend-mode:overlay" opacity="0.1">
<path d="M1826.78 410C1821.3 413.905 1827.56 424.667 1826.56 436.022C1825.43 448.836 1827.51 466.11 1827.88 474" stroke="black" stroke-width="2"/>
<path d="M1823.78 410C1818.3 413.905 1824.56 424.667 1823.56 436.022C1822.43 448.836 1824.51 466.11 1824.88 474" stroke="#D7D7D7" stroke-width="2"/>
</g>
<g style="mix-blend-mode:overlay" opacity="0.1">
<path d="M2228.35 -15.1265C2147.93 -8.53879 1928.08 3.80337 1692.01 0.470664C1455.95 -2.86204 1071.62 0.0465876 908.96 1.91749" stroke="#D7D7D7" stroke-width="2"/>
<path d="M2228.4 -11.8379C2147.98 -5.25022 1928.13 7.09194 1692.06 3.75924C1455.99 0.426536 1071.66 3.33516 909.005 5.20606" stroke="black" stroke-width="2"/>
</g>
</g>
<mask id="mask3_1096_14445" style="mask-type:alpha" maskUnits="userSpaceOnUse" x="968" y="-51" width="1201" height="630">
<rect x="968.5" y="-51" width="1200" height="630" fill="url(#paint6_linear_1096_14445)"/>
</mask>
<g mask="url(#mask3_1096_14445)">
<g style="mix-blend-mode:overlay" opacity="0.1">
<path d="M909 258.5C989.5 263.5 1209.5 272 1445.5 266C1681.5 260 2065.83 257.833 2228.5 257.5" stroke="#D7D7D7" stroke-width="2"/>
<path d="M909 261.5C989.5 266.5 1209.5 275 1445.5 269C1681.5 263 2065.83 260.833 2228.5 260.5" stroke="black" stroke-width="2"/>
</g>
<g style="mix-blend-mode:overlay" opacity="0.1">
<path d="M909 526.5C989.5 531.5 1209.5 540 1445.5 534C1681.5 528 2065.83 525.833 2228.5 525.5" stroke="#D7D7D7" stroke-width="2"/>
<path d="M909 529.5C989.5 534.5 1209.5 543 1445.5 537C1681.5 531 2065.83 528.833 2228.5 528.5" stroke="black" stroke-width="2"/>
</g>
<g style="mix-blend-mode:overlay" opacity="0.1">
<path d="M2228.36 189.43C2147.93 195.536 1928.07 207.06 1692.01 204.305C1455.95 201.55 1071.62 204.667 908.969 206.57" stroke="#D7D7D7" stroke-width="2"/>
<path d="M2228.4 192.43C2147.98 198.536 1928.11 210.06 1692.05 207.305C1455.99 204.55 1071.67 207.667 909.01 209.57" stroke="black" stroke-width="2"/>
</g>
<g style="mix-blend-mode:overlay" opacity="0.1">
<path d="M2228.36 457.43C2147.93 463.536 1928.07 475.06 1692.01 472.305C1455.95 469.55 1071.62 472.667 908.969 474.57" stroke="#D7D7D7" stroke-width="2"/>
<path d="M2228.4 460.43C2147.98 466.536 1928.11 478.06 1692.05 475.305C1455.99 472.55 1071.67 475.667 909.01 477.57" stroke="black" stroke-width="2"/>
</g>
<g style="mix-blend-mode:overlay" opacity="0.1">
<path d="M2228.35 124.874C2147.93 131.461 1928.08 143.803 1692.01 140.471C1455.95 137.138 1071.62 140.047 908.96 141.917" stroke="#D7D7D7" stroke-width="2"/>
<path d="M2228.4 128.162C2147.98 134.75 1928.13 147.092 1692.06 143.759C1455.99 140.427 1071.66 143.335 909.005 145.206" stroke="black" stroke-width="2"/>
</g>
<g style="mix-blend-mode:overlay" opacity="0.1">
<path d="M2228.35 392.874C2147.93 399.461 1928.08 411.803 1692.01 408.471C1455.95 405.138 1071.62 408.047 908.96 409.917" stroke="#D7D7D7" stroke-width="2"/>
<path d="M2228.4 396.162C2147.98 402.75 1928.13 415.092 1692.06 411.759C1455.99 408.427 1071.66 411.335 909.005 413.206" stroke="black" stroke-width="2"/>
</g>
<g style="mix-blend-mode:overlay" opacity="0.1">
<path d="M2228.35 54.8735C2147.93 61.4612 1928.08 73.8034 1692.01 70.4707C1455.95 67.138 1071.62 70.0466 908.96 71.9175" stroke="#D7D7D7" stroke-width="2"/>
<path d="M2228.4 58.1621C2147.98 64.7498 1928.13 77.0919 1692.06 73.7592C1455.99 70.4265 1071.66 73.3352 909.005 75.2061" stroke="black" stroke-width="2"/>
</g>
<g style="mix-blend-mode:overlay" opacity="0.1">
<path d="M2228.35 322.874C2147.93 329.461 1928.08 341.803 1692.01 338.471C1455.95 335.138 1071.62 338.047 908.96 339.917" stroke="#D7D7D7" stroke-width="2"/>
<path d="M2228.4 326.162C2147.98 332.75 1928.13 345.092 1692.06 341.759C1455.99 338.427 1071.66 341.335 909.005 343.206" stroke="black" stroke-width="2"/>
</g>
<g style="mix-blend-mode:overlay" opacity="0.1">
<path d="M1565.7 4.79207e-08C1571.18 4.39257 1564.92 16.5 1565.92 29.2747C1567.05 43.6909 1564.97 63.1239 1564.6 72" stroke="black" stroke-width="2"/>
<path d="M1568.7 4.79207e-08C1574.18 4.39257 1567.92 16.5 1568.92 29.2747C1570.05 43.6909 1567.97 63.1239 1567.6 72" stroke="#D7D7D7" stroke-width="2"/>
</g>
<g style="mix-blend-mode:overlay" opacity="0.1">
<path d="M1565.7 268C1571.18 272.393 1564.92 284.5 1565.92 297.275C1567.05 311.691 1564.97 331.124 1564.6 340" stroke="black" stroke-width="2"/>
<path d="M1568.7 268C1574.18 272.393 1567.92 284.5 1568.92 297.275C1570.05 311.691 1567.97 331.124 1567.6 340" stroke="#D7D7D7" stroke-width="2"/>
</g>
<g style="mix-blend-mode:overlay" opacity="0.1">
<path d="M1819.6 4.79207e-08C1825.08 4.39257 1818.82 16.5 1819.82 29.2747C1820.95 43.6909 1818.87 63.1239 1818.5 72" stroke="black" stroke-width="2"/>
<path d="M1822.6 4.79207e-08C1828.08 4.39257 1821.82 16.5 1822.82 29.2747C1823.95 43.6909 1821.87 63.1239 1821.5 72" stroke="#D7D7D7" stroke-width="2"/>
</g>
<g style="mix-blend-mode:overlay" opacity="0.1">
<path d="M1819.6 268C1825.08 272.393 1818.82 284.5 1819.82 297.275C1820.95 311.691 1818.87 331.124 1818.5 340" stroke="black" stroke-width="2"/>
<path d="M1822.6 268C1828.08 272.393 1821.82 284.5 1822.82 297.275C1823.95 311.691 1821.87 331.124 1821.5 340" stroke="#D7D7D7" stroke-width="2"/>
</g>
<g style="mix-blend-mode:overlay" opacity="0.1">
<path d="M2037.6 -4C2043.08 0.392573 2036.82 12.5 2037.82 25.2747C2038.95 39.6909 2036.87 59.1239 2036.5 68" stroke="black" stroke-width="2"/>
<path d="M2040.6 -4C2046.08 0.392573 2039.82 12.5 2040.82 25.2747C2041.95 39.6909 2039.87 59.1239 2039.5 68" stroke="#D7D7D7" stroke-width="2"/>
</g>
<g style="mix-blend-mode:overlay" opacity="0.1">
<path d="M2037.6 264C2043.08 268.393 2036.82 280.5 2037.82 293.275C2038.95 307.691 2036.87 327.124 2036.5 336" stroke="black" stroke-width="2"/>
<path d="M2040.6 264C2046.08 268.393 2039.82 280.5 2040.82 293.275C2041.95 307.691 2039.87 327.124 2039.5 336" stroke="#D7D7D7" stroke-width="2"/>
</g>
<g style="mix-blend-mode:overlay" opacity="0.1">
<path d="M1302.78 -1C1297.3 3.39257 1303.56 15.5 1302.56 28.2747C1301.43 42.6909 1303.51 62.1239 1303.88 71" stroke="black" stroke-width="2"/>
<path d="M1299.78 -1C1294.3 3.39257 1300.56 15.5 1299.56 28.2747C1298.43 42.6909 1300.51 62.1239 1300.88 71" stroke="#D7D7D7" stroke-width="2"/>
</g>
<g style="mix-blend-mode:overlay" opacity="0.1">
<path d="M1302.78 267C1297.3 271.393 1303.56 283.5 1302.56 296.275C1301.43 310.691 1303.51 330.124 1303.88 339" stroke="black" stroke-width="2"/>
<path d="M1299.78 267C1294.3 271.393 1300.56 283.5 1299.56 296.275C1298.43 310.691 1300.51 330.124 1300.88 339" stroke="#D7D7D7" stroke-width="2"/>
</g>
<g style="mix-blend-mode:overlay" opacity="0.1">
<path d="M1435.78 72C1430.3 76.3926 1436.56 88.5 1435.56 101.275C1434.43 115.691 1436.51 135.124 1436.88 144" stroke="black" stroke-width="2"/>
<path d="M1432.78 72C1427.3 76.3926 1433.56 88.5 1432.56 101.275C1431.43 115.691 1433.51 135.124 1433.88 144" stroke="#D7D7D7" stroke-width="2"/>
</g>
<g style="mix-blend-mode:overlay" opacity="0.1">
<path d="M1435.78 340C1430.3 344.393 1436.56 356.5 1435.56 369.275C1434.43 383.691 1436.51 403.124 1436.88 412" stroke="black" stroke-width="2"/>
<path d="M1432.78 340C1427.3 344.393 1433.56 356.5 1432.56 369.275C1431.43 383.691 1433.51 403.124 1433.88 412" stroke="#D7D7D7" stroke-width="2"/>
</g>
<g style="mix-blend-mode:overlay" opacity="0.1">
<path d="M1435.78 203C1430.3 207.393 1436.56 219.5 1435.56 232.275C1434.43 246.691 1436.51 266.124 1436.88 275" stroke="black" stroke-width="2"/>
<path d="M1432.78 203C1427.3 207.393 1433.56 219.5 1432.56 232.275C1431.43 246.691 1433.51 266.124 1433.88 275" stroke="#D7D7D7" stroke-width="2"/>
</g>
<g style="mix-blend-mode:overlay" opacity="0.1">
<path d="M1435.78 471C1430.3 475.393 1436.56 487.5 1435.56 500.275C1434.43 514.691 1436.51 534.124 1436.88 543" stroke="black" stroke-width="2"/>
<path d="M1432.78 471C1427.3 475.393 1433.56 487.5 1432.56 500.275C1431.43 514.691 1433.51 534.124 1433.88 543" stroke="#D7D7D7" stroke-width="2"/>
</g>
<g style="mix-blend-mode:overlay" opacity="0.1">
<path d="M1705.78 72C1700.3 76.3926 1706.56 88.5 1705.56 101.275C1704.43 115.691 1706.51 135.124 1706.88 144" stroke="black" stroke-width="2"/>
<path d="M1702.78 72C1697.3 76.3926 1703.56 88.5 1702.56 101.275C1701.43 115.691 1703.51 135.124 1703.88 144" stroke="#D7D7D7" stroke-width="2"/>
</g>
<g style="mix-blend-mode:overlay" opacity="0.1">
<path d="M1705.78 340C1700.3 344.393 1706.56 356.5 1705.56 369.275C1704.43 383.691 1706.51 403.124 1706.88 412" stroke="black" stroke-width="2"/>
<path d="M1702.78 340C1697.3 344.393 1703.56 356.5 1702.56 369.275C1701.43 383.691 1703.51 403.124 1703.88 412" stroke="#D7D7D7" stroke-width="2"/>
</g>
<g style="mix-blend-mode:overlay" opacity="0.1">
<path d="M1705.78 203C1700.3 206.721 1706.56 216.979 1705.56 227.802C1704.43 240.016 1706.51 256.48 1706.88 264" stroke="black" stroke-width="2"/>
<path d="M1702.78 203C1697.3 206.721 1703.56 216.979 1702.56 227.802C1701.43 240.016 1703.51 256.48 1703.88 264" stroke="#D7D7D7" stroke-width="2"/>
</g>
<g style="mix-blend-mode:overlay" opacity="0.1">
<path d="M1705.78 473C1700.3 476.599 1706.56 486.521 1705.56 496.989C1704.43 508.802 1706.51 524.727 1706.88 532" stroke="black" stroke-width="2"/>
<path d="M1702.78 473C1697.3 476.599 1703.56 486.521 1702.56 496.989C1701.43 508.802 1703.51 524.727 1703.88 532" stroke="#D7D7D7" stroke-width="2"/>
</g>
<g style="mix-blend-mode:overlay" opacity="0.1">
<path d="M1936.78 72C1931.3 76.3926 1937.56 88.5 1936.56 101.275C1935.43 115.691 1937.51 135.124 1937.88 144" stroke="black" stroke-width="2"/>
<path d="M1933.78 72C1928.3 76.3926 1934.56 88.5 1933.56 101.275C1932.43 115.691 1934.51 135.124 1934.88 144" stroke="#D7D7D7" stroke-width="2"/>
</g>
<g style="mix-blend-mode:overlay" opacity="0.1">
<path d="M1936.78 340C1931.3 344.393 1937.56 356.5 1936.56 369.275C1935.43 383.691 1937.51 403.124 1937.88 412" stroke="black" stroke-width="2"/>
<path d="M1933.78 340C1928.3 344.393 1934.56 356.5 1933.56 369.275C1932.43 383.691 1934.51 403.124 1934.88 412" stroke="#D7D7D7" stroke-width="2"/>
</g>
<g style="mix-blend-mode:overlay" opacity="0.1">
<path d="M1936.78 203C1931.3 207.393 1937.56 219.5 1936.56 232.275C1935.43 246.691 1937.51 266.124 1937.88 275" stroke="black" stroke-width="2"/>
<path d="M1933.78 203C1928.3 207.393 1934.56 219.5 1933.56 232.275C1932.43 246.691 1934.51 266.124 1934.88 275" stroke="#D7D7D7" stroke-width="2"/>
</g>
<g style="mix-blend-mode:overlay" opacity="0.1">
<path d="M1936.78 471C1931.3 475.393 1937.56 487.5 1936.56 500.275C1935.43 514.691 1937.51 534.124 1937.88 543" stroke="black" stroke-width="2"/>
<path d="M1933.78 471C1928.3 475.393 1934.56 487.5 1933.56 500.275C1932.43 514.691 1934.51 534.124 1934.88 543" stroke="#D7D7D7" stroke-width="2"/>
</g>
<g style="mix-blend-mode:overlay" opacity="0.1">
<path d="M2047.78 137C2042.3 141.393 2048.56 153.5 2047.56 166.275C2046.43 180.691 2048.51 200.124 2048.88 209" stroke="black" stroke-width="2"/>
<path d="M2044.78 137C2039.3 141.393 2045.56 153.5 2044.56 166.275C2043.43 180.691 2045.51 200.124 2045.88 209" stroke="#D7D7D7" stroke-width="2"/>
</g>
<g style="mix-blend-mode:overlay" opacity="0.1">
<path d="M2047.78 405C2042.3 409.393 2048.56 421.5 2047.56 434.275C2046.43 448.691 2048.51 468.124 2048.88 477" stroke="black" stroke-width="2"/>
<path d="M2044.78 405C2039.3 409.393 2045.56 421.5 2044.56 434.275C2043.43 448.691 2045.51 468.124 2045.88 477" stroke="#D7D7D7" stroke-width="2"/>
</g>
<g style="mix-blend-mode:overlay" opacity="0.1">
<path d="M1551.78 141C1546.3 144.905 1552.56 155.667 1551.56 167.022C1550.43 179.836 1552.51 197.11 1552.88 205" stroke="black" stroke-width="2"/>
<path d="M1548.78 141C1543.3 144.905 1549.56 155.667 1548.56 167.022C1547.43 179.836 1549.51 197.11 1549.88 205" stroke="#D7D7D7" stroke-width="2"/>
</g>
<g style="mix-blend-mode:overlay" opacity="0.1">
<path d="M1551.78 409C1546.3 412.905 1552.56 423.667 1551.56 435.022C1550.43 447.836 1552.51 465.11 1552.88 473" stroke="black" stroke-width="2"/>
<path d="M1548.78 409C1543.3 412.905 1549.56 423.667 1548.56 435.022C1547.43 447.836 1549.51 465.11 1549.88 473" stroke="#D7D7D7" stroke-width="2"/>
</g>
<g style="mix-blend-mode:overlay" opacity="0.1">
<path d="M1256.78 141C1251.3 144.905 1257.56 155.667 1256.56 167.022C1255.43 179.836 1257.51 197.11 1257.88 205" stroke="black" stroke-width="2"/>
<path d="M1253.78 141C1248.3 144.905 1254.56 155.667 1253.56 167.022C1252.43 179.836 1254.51 197.11 1254.88 205" stroke="#D7D7D7" stroke-width="2"/>
</g>
<g style="mix-blend-mode:overlay" opacity="0.1">
<path d="M1256.78 409C1251.3 412.905 1257.56 423.667 1256.56 435.022C1255.43 447.836 1257.51 465.11 1257.88 473" stroke="black" stroke-width="2"/>
<path d="M1253.78 409C1248.3 412.905 1254.56 423.667 1253.56 435.022C1252.43 447.836 1254.51 465.11 1254.88 473" stroke="#D7D7D7" stroke-width="2"/>
</g>
<g style="mix-blend-mode:overlay" opacity="0.1">
<path d="M1826.78 142C1821.3 145.905 1827.56 156.667 1826.56 168.022C1825.43 180.836 1827.51 198.11 1827.88 206" stroke="black" stroke-width="2"/>
<path d="M1823.78 142C1818.3 145.905 1824.56 156.667 1823.56 168.022C1822.43 180.836 1824.51 198.11 1824.88 206" stroke="#D7D7D7" stroke-width="2"/>
</g>
<g style="mix-blend-mode:overlay" opacity="0.1">
<path d="M1826.78 410C1821.3 413.905 1827.56 424.667 1826.56 436.022C1825.43 448.836 1827.51 466.11 1827.88 474" stroke="black" stroke-width="2"/>
<path d="M1823.78 410C1818.3 413.905 1824.56 424.667 1823.56 436.022C1822.43 448.836 1824.51 466.11 1824.88 474" stroke="#D7D7D7" stroke-width="2"/>
</g>
<g style="mix-blend-mode:overlay" opacity="0.1">
<path d="M2228.35 -15.1265C2147.93 -8.53879 1928.08 3.80337 1692.01 0.470664C1455.95 -2.86204 1071.62 0.0465876 908.96 1.91749" stroke="#D7D7D7" stroke-width="2"/>
<path d="M2228.4 -11.8379C2147.98 -5.25022 1928.13 7.09194 1692.06 3.75924C1455.99 0.426536 1071.66 3.33516 909.005 5.20606" stroke="black" stroke-width="2"/>
</g>
</g>
<mask id="mask4_1096_14445" style="mask-type:alpha" maskUnits="userSpaceOnUse" x="968" y="-51" width="1201" height="630">
<rect x="968.5" y="-51" width="1200" height="630" fill="url(#paint7_linear_1096_14445)"/>
</mask>
<g mask="url(#mask4_1096_14445)">
<g style="mix-blend-mode:overlay" opacity="0.1">
<path d="M909 258.5C989.5 263.5 1209.5 272 1445.5 266C1681.5 260 2065.83 257.833 2228.5 257.5" stroke="#D7D7D7" stroke-width="2"/>
<path d="M909 261.5C989.5 266.5 1209.5 275 1445.5 269C1681.5 263 2065.83 260.833 2228.5 260.5" stroke="black" stroke-width="2"/>
</g>
<g style="mix-blend-mode:overlay" opacity="0.1">
<path d="M909 526.5C989.5 531.5 1209.5 540 1445.5 534C1681.5 528 2065.83 525.833 2228.5 525.5" stroke="#D7D7D7" stroke-width="2"/>
<path d="M909 529.5C989.5 534.5 1209.5 543 1445.5 537C1681.5 531 2065.83 528.833 2228.5 528.5" stroke="black" stroke-width="2"/>
</g>
<g style="mix-blend-mode:overlay" opacity="0.1">
<path d="M2228.36 189.43C2147.93 195.536 1928.07 207.06 1692.01 204.305C1455.95 201.55 1071.62 204.667 908.969 206.57" stroke="#D7D7D7" stroke-width="2"/>
<path d="M2228.4 192.43C2147.98 198.536 1928.11 210.06 1692.05 207.305C1455.99 204.55 1071.67 207.667 909.01 209.57" stroke="black" stroke-width="2"/>
</g>
<g style="mix-blend-mode:overlay" opacity="0.1">
<path d="M2228.36 457.43C2147.93 463.536 1928.07 475.06 1692.01 472.305C1455.95 469.55 1071.62 472.667 908.969 474.57" stroke="#D7D7D7" stroke-width="2"/>
<path d="M2228.4 460.43C2147.98 466.536 1928.11 478.06 1692.05 475.305C1455.99 472.55 1071.67 475.667 909.01 477.57" stroke="black" stroke-width="2"/>
</g>
<g style="mix-blend-mode:overlay" opacity="0.1">
<path d="M2228.35 124.874C2147.93 131.461 1928.08 143.803 1692.01 140.471C1455.95 137.138 1071.62 140.047 908.96 141.917" stroke="#D7D7D7" stroke-width="2"/>
<path d="M2228.4 128.162C2147.98 134.75 1928.13 147.092 1692.06 143.759C1455.99 140.427 1071.66 143.335 909.005 145.206" stroke="black" stroke-width="2"/>
</g>
<g style="mix-blend-mode:overlay" opacity="0.1">
<path d="M2228.35 392.874C2147.93 399.461 1928.08 411.803 1692.01 408.471C1455.95 405.138 1071.62 408.047 908.96 409.917" stroke="#D7D7D7" stroke-width="2"/>
<path d="M2228.4 396.162C2147.98 402.75 1928.13 415.092 1692.06 411.759C1455.99 408.427 1071.66 411.335 909.005 413.206" stroke="black" stroke-width="2"/>
</g>
<g style="mix-blend-mode:overlay" opacity="0.1">
<path d="M2228.35 54.8735C2147.93 61.4612 1928.08 73.8034 1692.01 70.4707C1455.95 67.138 1071.62 70.0466 908.96 71.9175" stroke="#D7D7D7" stroke-width="2"/>
<path d="M2228.4 58.1621C2147.98 64.7498 1928.13 77.0919 1692.06 73.7592C1455.99 70.4265 1071.66 73.3352 909.005 75.2061" stroke="black" stroke-width="2"/>
</g>
<g style="mix-blend-mode:overlay" opacity="0.1">
<path d="M2228.35 322.874C2147.93 329.461 1928.08 341.803 1692.01 338.471C1455.95 335.138 1071.62 338.047 908.96 339.917" stroke="#D7D7D7" stroke-width="2"/>
<path d="M2228.4 326.162C2147.98 332.75 1928.13 345.092 1692.06 341.759C1455.99 338.427 1071.66 341.335 909.005 343.206" stroke="black" stroke-width="2"/>
</g>
<g style="mix-blend-mode:overlay" opacity="0.1">
<path d="M1565.7 4.79207e-08C1571.18 4.39257 1564.92 16.5 1565.92 29.2747C1567.05 43.6909 1564.97 63.1239 1564.6 72" stroke="black" stroke-width="2"/>
<path d="M1568.7 4.79207e-08C1574.18 4.39257 1567.92 16.5 1568.92 29.2747C1570.05 43.6909 1567.97 63.1239 1567.6 72" stroke="#D7D7D7" stroke-width="2"/>
</g>
<g style="mix-blend-mode:overlay" opacity="0.1">
<path d="M1565.7 268C1571.18 272.393 1564.92 284.5 1565.92 297.275C1567.05 311.691 1564.97 331.124 1564.6 340" stroke="black" stroke-width="2"/>
<path d="M1568.7 268C1574.18 272.393 1567.92 284.5 1568.92 297.275C1570.05 311.691 1567.97 331.124 1567.6 340" stroke="#D7D7D7" stroke-width="2"/>
</g>
<g style="mix-blend-mode:overlay" opacity="0.1">
<path d="M1819.6 4.79207e-08C1825.08 4.39257 1818.82 16.5 1819.82 29.2747C1820.95 43.6909 1818.87 63.1239 1818.5 72" stroke="black" stroke-width="2"/>
<path d="M1822.6 4.79207e-08C1828.08 4.39257 1821.82 16.5 1822.82 29.2747C1823.95 43.6909 1821.87 63.1239 1821.5 72" stroke="#D7D7D7" stroke-width="2"/>
</g>
<g style="mix-blend-mode:overlay" opacity="0.1">
<path d="M1819.6 268C1825.08 272.393 1818.82 284.5 1819.82 297.275C1820.95 311.691 1818.87 331.124 1818.5 340" stroke="black" stroke-width="2"/>
<path d="M1822.6 268C1828.08 272.393 1821.82 284.5 1822.82 297.275C1823.95 311.691 1821.87 331.124 1821.5 340" stroke="#D7D7D7" stroke-width="2"/>
</g>
<g style="mix-blend-mode:overlay" opacity="0.1">
<path d="M2037.6 -4C2043.08 0.392573 2036.82 12.5 2037.82 25.2747C2038.95 39.6909 2036.87 59.1239 2036.5 68" stroke="black" stroke-width="2"/>
<path d="M2040.6 -4C2046.08 0.392573 2039.82 12.5 2040.82 25.2747C2041.95 39.6909 2039.87 59.1239 2039.5 68" stroke="#D7D7D7" stroke-width="2"/>
</g>
<g style="mix-blend-mode:overlay" opacity="0.1">
<path d="M2037.6 264C2043.08 268.393 2036.82 280.5 2037.82 293.275C2038.95 307.691 2036.87 327.124 2036.5 336" stroke="black" stroke-width="2"/>
<path d="M2040.6 264C2046.08 268.393 2039.82 280.5 2040.82 293.275C2041.95 307.691 2039.87 327.124 2039.5 336" stroke="#D7D7D7" stroke-width="2"/>
</g>
<g style="mix-blend-mode:overlay" opacity="0.1">
<path d="M1302.78 -1C1297.3 3.39257 1303.56 15.5 1302.56 28.2747C1301.43 42.6909 1303.51 62.1239 1303.88 71" stroke="black" stroke-width="2"/>
<path d="M1299.78 -1C1294.3 3.39257 1300.56 15.5 1299.56 28.2747C1298.43 42.6909 1300.51 62.1239 1300.88 71" stroke="#D7D7D7" stroke-width="2"/>
</g>
<g style="mix-blend-mode:overlay" opacity="0.1">
<path d="M1302.78 267C1297.3 271.393 1303.56 283.5 1302.56 296.275C1301.43 310.691 1303.51 330.124 1303.88 339" stroke="black" stroke-width="2"/>
<path d="M1299.78 267C1294.3 271.393 1300.56 283.5 1299.56 296.275C1298.43 310.691 1300.51 330.124 1300.88 339" stroke="#D7D7D7" stroke-width="2"/>
</g>
<g style="mix-blend-mode:overlay" opacity="0.1">
<path d="M1435.78 72C1430.3 76.3926 1436.56 88.5 1435.56 101.275C1434.43 115.691 1436.51 135.124 1436.88 144" stroke="black" stroke-width="2"/>
<path d="M1432.78 72C1427.3 76.3926 1433.56 88.5 1432.56 101.275C1431.43 115.691 1433.51 135.124 1433.88 144" stroke="#D7D7D7" stroke-width="2"/>
</g>
<g style="mix-blend-mode:overlay" opacity="0.1">
<path d="M1435.78 340C1430.3 344.393 1436.56 356.5 1435.56 369.275C1434.43 383.691 1436.51 403.124 1436.88 412" stroke="black" stroke-width="2"/>
<path d="M1432.78 340C1427.3 344.393 1433.56 356.5 1432.56 369.275C1431.43 383.691 1433.51 403.124 1433.88 412" stroke="#D7D7D7" stroke-width="2"/>
</g>
<g style="mix-blend-mode:overlay" opacity="0.1">
<path d="M1435.78 203C1430.3 207.393 1436.56 219.5 1435.56 232.275C1434.43 246.691 1436.51 266.124 1436.88 275" stroke="black" stroke-width="2"/>
<path d="M1432.78 203C1427.3 207.393 1433.56 219.5 1432.56 232.275C1431.43 246.691 1433.51 266.124 1433.88 275" stroke="#D7D7D7" stroke-width="2"/>
</g>
<g style="mix-blend-mode:overlay" opacity="0.1">
<path d="M1435.78 471C1430.3 475.393 1436.56 487.5 1435.56 500.275C1434.43 514.691 1436.51 534.124 1436.88 543" stroke="black" stroke-width="2"/>
<path d="M1432.78 471C1427.3 475.393 1433.56 487.5 1432.56 500.275C1431.43 514.691 1433.51 534.124 1433.88 543" stroke="#D7D7D7" stroke-width="2"/>
</g>
<g style="mix-blend-mode:overlay" opacity="0.1">
<path d="M1705.78 72C1700.3 76.3926 1706.56 88.5 1705.56 101.275C1704.43 115.691 1706.51 135.124 1706.88 144" stroke="black" stroke-width="2"/>
<path d="M1702.78 72C1697.3 76.3926 1703.56 88.5 1702.56 101.275C1701.43 115.691 1703.51 135.124 1703.88 144" stroke="#D7D7D7" stroke-width="2"/>
</g>
<g style="mix-blend-mode:overlay" opacity="0.1">
<path d="M1705.78 340C1700.3 344.393 1706.56 356.5 1705.56 369.275C1704.43 383.691 1706.51 403.124 1706.88 412" stroke="black" stroke-width="2"/>
<path d="M1702.78 340C1697.3 344.393 1703.56 356.5 1702.56 369.275C1701.43 383.691 1703.51 403.124 1703.88 412" stroke="#D7D7D7" stroke-width="2"/>
</g>
<g style="mix-blend-mode:overlay" opacity="0.1">
<path d="M1705.78 203C1700.3 206.721 1706.56 216.979 1705.56 227.802C1704.43 240.016 1706.51 256.48 1706.88 264" stroke="black" stroke-width="2"/>
<path d="M1702.78 203C1697.3 206.721 1703.56 216.979 1702.56 227.802C1701.43 240.016 1703.51 256.48 1703.88 264" stroke="#D7D7D7" stroke-width="2"/>
</g>
<g style="mix-blend-mode:overlay" opacity="0.1">
<path d="M1705.78 473C1700.3 476.599 1706.56 486.521 1705.56 496.989C1704.43 508.802 1706.51 524.727 1706.88 532" stroke="black" stroke-width="2"/>
<path d="M1702.78 473C1697.3 476.599 1703.56 486.521 1702.56 496.989C1701.43 508.802 1703.51 524.727 1703.88 532" stroke="#D7D7D7" stroke-width="2"/>
</g>
<g style="mix-blend-mode:overlay" opacity="0.1">
<path d="M1936.78 72C1931.3 76.3926 1937.56 88.5 1936.56 101.275C1935.43 115.691 1937.51 135.124 1937.88 144" stroke="black" stroke-width="2"/>
<path d="M1933.78 72C1928.3 76.3926 1934.56 88.5 1933.56 101.275C1932.43 115.691 1934.51 135.124 1934.88 144" stroke="#D7D7D7" stroke-width="2"/>
</g>
<g style="mix-blend-mode:overlay" opacity="0.1">
<path d="M1936.78 340C1931.3 344.393 1937.56 356.5 1936.56 369.275C1935.43 383.691 1937.51 403.124 1937.88 412" stroke="black" stroke-width="2"/>
<path d="M1933.78 340C1928.3 344.393 1934.56 356.5 1933.56 369.275C1932.43 383.691 1934.51 403.124 1934.88 412" stroke="#D7D7D7" stroke-width="2"/>
</g>
<g style="mix-blend-mode:overlay" opacity="0.1">
<path d="M1936.78 203C1931.3 207.393 1937.56 219.5 1936.56 232.275C1935.43 246.691 1937.51 266.124 1937.88 275" stroke="black" stroke-width="2"/>
<path d="M1933.78 203C1928.3 207.393 1934.56 219.5 1933.56 232.275C1932.43 246.691 1934.51 266.124 1934.88 275" stroke="#D7D7D7" stroke-width="2"/>
</g>
<g style="mix-blend-mode:overlay" opacity="0.1">
<path d="M1936.78 471C1931.3 475.393 1937.56 487.5 1936.56 500.275C1935.43 514.691 1937.51 534.124 1937.88 543" stroke="black" stroke-width="2"/>
<path d="M1933.78 471C1928.3 475.393 1934.56 487.5 1933.56 500.275C1932.43 514.691 1934.51 534.124 1934.88 543" stroke="#D7D7D7" stroke-width="2"/>
</g>
<g style="mix-blend-mode:overlay" opacity="0.1">
<path d="M2047.78 137C2042.3 141.393 2048.56 153.5 2047.56 166.275C2046.43 180.691 2048.51 200.124 2048.88 209" stroke="black" stroke-width="2"/>
<path d="M2044.78 137C2039.3 141.393 2045.56 153.5 2044.56 166.275C2043.43 180.691 2045.51 200.124 2045.88 209" stroke="#D7D7D7" stroke-width="2"/>
</g>
<g style="mix-blend-mode:overlay" opacity="0.1">
<path d="M2047.78 405C2042.3 409.393 2048.56 421.5 2047.56 434.275C2046.43 448.691 2048.51 468.124 2048.88 477" stroke="black" stroke-width="2"/>
<path d="M2044.78 405C2039.3 409.393 2045.56 421.5 2044.56 434.275C2043.43 448.691 2045.51 468.124 2045.88 477" stroke="#D7D7D7" stroke-width="2"/>
</g>
<g style="mix-blend-mode:overlay" opacity="0.1">
<path d="M1551.78 141C1546.3 144.905 1552.56 155.667 1551.56 167.022C1550.43 179.836 1552.51 197.11 1552.88 205" stroke="black" stroke-width="2"/>
<path d="M1548.78 141C1543.3 144.905 1549.56 155.667 1548.56 167.022C1547.43 179.836 1549.51 197.11 1549.88 205" stroke="#D7D7D7" stroke-width="2"/>
</g>
<g style="mix-blend-mode:overlay" opacity="0.1">
<path d="M1551.78 409C1546.3 412.905 1552.56 423.667 1551.56 435.022C1550.43 447.836 1552.51 465.11 1552.88 473" stroke="black" stroke-width="2"/>
<path d="M1548.78 409C1543.3 412.905 1549.56 423.667 1548.56 435.022C1547.43 447.836 1549.51 465.11 1549.88 473" stroke="#D7D7D7" stroke-width="2"/>
</g>
<g style="mix-blend-mode:overlay" opacity="0.1">
<path d="M1256.78 141C1251.3 144.905 1257.56 155.667 1256.56 167.022C1255.43 179.836 1257.51 197.11 1257.88 205" stroke="black" stroke-width="2"/>
<path d="M1253.78 141C1248.3 144.905 1254.56 155.667 1253.56 167.022C1252.43 179.836 1254.51 197.11 1254.88 205" stroke="#D7D7D7" stroke-width="2"/>
</g>
<g style="mix-blend-mode:overlay" opacity="0.1">
<path d="M1256.78 409C1251.3 412.905 1257.56 423.667 1256.56 435.022C1255.43 447.836 1257.51 465.11 1257.88 473" stroke="black" stroke-width="2"/>
<path d="M1253.78 409C1248.3 412.905 1254.56 423.667 1253.56 435.022C1252.43 447.836 1254.51 465.11 1254.88 473" stroke="#D7D7D7" stroke-width="2"/>
</g>
<g style="mix-blend-mode:overlay" opacity="0.1">
<path d="M1826.78 142C1821.3 145.905 1827.56 156.667 1826.56 168.022C1825.43 180.836 1827.51 198.11 1827.88 206" stroke="black" stroke-width="2"/>
<path d="M1823.78 142C1818.3 145.905 1824.56 156.667 1823.56 168.022C1822.43 180.836 1824.51 198.11 1824.88 206" stroke="#D7D7D7" stroke-width="2"/>
</g>
<g style="mix-blend-mode:overlay" opacity="0.1">
<path d="M1826.78 410C1821.3 413.905 1827.56 424.667 1826.56 436.022C1825.43 448.836 1827.51 466.11 1827.88 474" stroke="black" stroke-width="2"/>
<path d="M1823.78 410C1818.3 413.905 1824.56 424.667 1823.56 436.022C1822.43 448.836 1824.51 466.11 1824.88 474" stroke="#D7D7D7" stroke-width="2"/>
</g>
<g style="mix-blend-mode:overlay" opacity="0.1">
<path d="M2228.35 -15.1265C2147.93 -8.53879 1928.08 3.80337 1692.01 0.470664C1455.95 -2.86204 1071.62 0.0465876 908.96 1.91749" stroke="#D7D7D7" stroke-width="2"/>
<path d="M2228.4 -11.8379C2147.98 -5.25022 1928.13 7.09194 1692.06 3.75924C1455.99 0.426536 1071.66 3.33516 909.005 5.20606" stroke="black" stroke-width="2"/>
</g>
</g>
</g>
<g style="mix-blend-mode:overlay" opacity="0.77">
<path d="M1307.17 156.661C1118 -172 112.197 -80.3601 -102.085 -32.4999L-93.0853 27.5887L-120.5 693.963L2374.67 761L2629.8 517.864C2635.2 407.302 2788.69 156.103 2629.8 -28C2470.9 -212.103 1927.5 -126 1842.6 156.661C1757.7 439.322 1496.35 485.322 1307.17 156.661Z" fill="#43004E"/>
</g>
</g>
<defs>
<linearGradient id="paint0_linear_1096_14445" x1="949.333" y1="-2.98977e-06" x2="1043.3" y2="587.836" gradientUnits="userSpaceOnUse">
<stop stop-color="#1F002E"/>
<stop offset="1" stop-color="#4F146B"/>
</linearGradient>
<radialGradient id="paint1_radial_1096_14445" cx="0" cy="0" r="1" gradientUnits="userSpaceOnUse" gradientTransform="translate(1691.73 138.373) rotate(170.667) scale(1005.31 1367.38)">
<stop stop-color="#BE342C"/>
<stop offset="1" stop-color="#5E1597"/>
</radialGradient>
<radialGradient id="paint2_radial_1096_14445" cx="0" cy="0" r="1" gradientUnits="userSpaceOnUse" gradientTransform="translate(1691.73 138.373) rotate(170.667) scale(1005.31 1367.38)">
<stop stop-color="#BE342C"/>
<stop offset="1" stop-color="#5E1597"/>
</radialGradient>
<linearGradient id="paint3_linear_1096_14445" x1="2065.5" y1="-51" x2="1014.5" y2="546" gradientUnits="userSpaceOnUse">
<stop offset="0.176945" stop-color="#D9D9D9" stop-opacity="0"/>
<stop offset="0.372543" stop-color="#D9D9D9"/>
<stop offset="1" stop-color="#D9D9D9" stop-opacity="0"/>
</linearGradient>
<linearGradient id="paint4_linear_1096_14445" x1="2168.5" y1="-51" x2="1117.5" y2="546" gradientUnits="userSpaceOnUse">
<stop offset="0.176945" stop-color="#D9D9D9" stop-opacity="0"/>
<stop offset="0.372543" stop-color="#D9D9D9"/>
<stop offset="1" stop-color="#D9D9D9" stop-opacity="0"/>
</linearGradient>
<linearGradient id="paint5_linear_1096_14445" x1="2168.5" y1="-51" x2="1117.5" y2="546" gradientUnits="userSpaceOnUse">
<stop offset="0.176945" stop-color="#D9D9D9" stop-opacity="0"/>
<stop offset="0.372543" stop-color="#D9D9D9"/>
<stop offset="1" stop-color="#D9D9D9" stop-opacity="0"/>
</linearGradient>
<linearGradient id="paint6_linear_1096_14445" x1="2168.5" y1="-51" x2="1117.5" y2="546" gradientUnits="userSpaceOnUse">
<stop offset="0.176945" stop-color="#D9D9D9" stop-opacity="0"/>
<stop offset="0.372543" stop-color="#D9D9D9"/>
<stop offset="1" stop-color="#D9D9D9" stop-opacity="0"/>
</linearGradient>
<linearGradient id="paint7_linear_1096_14445" x1="2168.5" y1="-51" x2="1117.5" y2="546" gradientUnits="userSpaceOnUse">
<stop offset="0.176945" stop-color="#D9D9D9" stop-opacity="0"/>
<stop offset="0.372543" stop-color="#D9D9D9"/>
<stop offset="1" stop-color="#D9D9D9" stop-opacity="0"/>
</linearGradient>
<clipPath id="clip0_1096_14445">
<rect width="2560" height="550" fill="white"/>
</clipPath>
</defs>
</svg>
