<svg viewBox="0 0 1440 652" preserveAspectRatio="none" fill="none" xmlns="http://www.w3.org/2000/svg">
<g>
<g clip-path="url(#clip0_1380_12626)">
<rect width="1440" height="644" fill="none"/>
<path d="M0 1046H1440V561.619C1440 561.619 1181.5 605.527 1104 561.619C1026.5 517.71 1015.5 585.191 960 561.619C904.5 538.047 790.5 561.619 790.5 561.619C790.5 561.619 635 597.208 539.5 561.619C444 526.03 456.5 543.593 249.5 561.619C42.5 579.644 0 561.619 0 561.619V1046Z" fill="url(#paint0_linear_1380_12626)"/>
<path d="M0 1046H1440V561.619C1440 561.619 1181.5 605.527 1104 561.619C1026.5 517.71 1015.5 585.191 960 561.619C904.5 538.047 790.5 561.619 790.5 561.619C790.5 561.619 635 597.208 539.5 561.619C444 526.03 456.5 543.593 249.5 561.619C42.5 579.644 0 561.619 0 561.619V1046Z" fill="white"/>
<path d="M1317.5 590.5C1265 584 1244.5 599 1305.5 610.5C1366.5 622 1427 608 1445.5 608C1460.3 608 1453.33 579.333 1448 565C1422 575.667 1359.5 595.7 1317.5 590.5Z" fill="#F2F4FF"/>
<path d="M1057 604C1088 592 1130 597.5 1173.5 604C1217 610.5 1237.5 595 1170 590.5C1102.5 586 1097 553.5 1057 556C1017 558.5 995 585 967 595C939 605 1026 616 1057 604Z" fill="#F2F4FF"/>
<path d="M951 575C975 587 898.5 557.5 871.5 592.5C844.499 627.5 842.6 586.5 807 592.5C762.5 600 795.5 575 846 566C896.5 557 927 563 951 575Z" fill="#F2F4FF"/>
<path d="M101.501 599.5C54.301 599.5 5.50101 579.5 -12.999 569.5C-36.1656 574.5 -69.399 590.2 -16.999 613C48.501 641.5 160.501 599.5 101.501 599.5Z" fill="#F2F4FF"/>
<path d="M322.501 569.5C380 569.5 432.501 550.5 478.501 560C524.501 569.5 575.501 596.5 537.001 595.5C498.501 594.5 209.001 587.5 322.501 569.5Z" fill="#F2F4FF"/>
</g>
</g>
<defs>
<filter id="filter0_d_1380_12626" x="-4" y="0" width="1448" height="652" filterUnits="userSpaceOnUse" color-interpolation-filters="sRGB">
<feFlood flood-opacity="0" result="BackgroundImageFix"/>
<feColorMatrix in="SourceAlpha" type="matrix" values="0 0 0 0 0 0 0 0 0 0 0 0 0 0 0 0 0 0 127 0" result="hardAlpha"/>
<feOffset dy="4"/>
<feGaussianBlur stdDeviation="2"/>
<feComposite in2="hardAlpha" operator="out"/>
<feColorMatrix type="matrix" values="0 0 0 0 0 0 0 0 0 0 0 0 0 0 0 0 0 0 0.25 0"/>
<feBlend mode="normal" in2="BackgroundImageFix" result="effect1_dropShadow_1380_12626"/>
<feBlend mode="normal" in="SourceGraphic" in2="effect1_dropShadow_1380_12626" result="shape"/>
</filter>
<linearGradient id="paint0_linear_1380_12626" x1="0" y1="1046" x2="1387.89" y2="441.9" gradientUnits="userSpaceOnUse">
<stop offset="0.129787" stop-color="#6B115C"/>
<stop offset="0.707946" stop-color="#3C0342"/>
<stop offset="1" stop-color="#FE4B4C"/>
</linearGradient>
<clipPath id="clip0_1380_12626">
<rect width="1440" height="644" fill="white"/>
</clipPath>
</defs>
</svg>
