<svg width="1440" height="462" viewBox="0 0 1440 462" fill="none" xmlns="http://www.w3.org/2000/svg">
<mask id="mask0_1441_11515" style="mask-type:alpha" maskUnits="userSpaceOnUse" x="0" y="0" width="1440" height="462">
<rect width="1440" height="462" fill="#D9D9D9"/>
</mask>
<g mask="url(#mask0_1441_11515)">
<path d="M0 512H1440V2C912.313 39.0115 516.833 37.6689 0 2V512Z" fill="url(#paint0_linear_1441_11515)"/>
<g opacity="0.4">
<mask id="mask1_1441_11515" style="mask-type:alpha" maskUnits="userSpaceOnUse" x="592" y="280" width="85" height="216">
<rect width="83.5659" height="215.043" transform="matrix(-1 0 0 1 676.261 280.833)" fill="url(#paint1_radial_1441_11515)"/>
</mask>
<g mask="url(#mask1_1441_11515)">
<rect opacity="0.5" width="40.2727" height="212.238" transform="matrix(-1 0 0 1 676.261 283.638)" fill="url(#paint2_linear_1441_11515)"/>
<rect opacity="0.5" x="592.698" y="283.638" width="40.2727" height="212.238" fill="url(#paint3_linear_1441_11515)"/>
</g>
</g>
<path d="M659.422 306.687C669.834 300.376 675.04 297.22 676.03 293.431C676.35 292.207 676.35 290.96 676.03 289.737C675.04 285.947 669.834 282.792 659.422 276.481C649.009 270.17 643.803 267.015 637.551 266.415C635.532 266.221 633.475 266.221 631.455 266.415C625.203 267.015 619.997 270.17 609.585 276.481C599.173 282.792 593.966 285.947 592.976 289.737C592.656 290.96 592.656 292.207 592.976 293.431C593.966 297.22 599.173 300.376 609.585 306.687C619.997 312.997 625.203 316.153 631.455 316.753C633.475 316.947 635.532 316.947 637.551 316.753C643.803 316.153 649.009 312.997 659.422 306.687Z" fill="url(#paint4_linear_1441_11515)"/>
<path d="M659.422 306.687C669.834 300.376 675.04 297.22 676.03 293.431C676.35 292.207 676.35 290.96 676.03 289.737C675.04 285.947 669.834 282.792 659.422 276.481C649.009 270.17 643.803 267.015 637.551 266.415C635.532 266.221 633.475 266.221 631.455 266.415C625.203 267.015 619.997 270.17 609.585 276.481C599.173 282.792 593.966 285.947 592.976 289.737C592.656 290.96 592.656 292.207 592.976 293.431C593.966 297.22 599.173 300.376 609.585 306.687C619.997 312.997 625.203 316.153 631.455 316.753C633.475 316.947 635.532 316.947 637.551 316.753C643.803 316.153 649.009 312.997 659.422 306.687Z" fill="white" fill-opacity="0.6"/>
<path d="M676.27 287.412H592.704V291.44H676.27V287.412Z" fill="url(#paint5_linear_1441_11515)"/>
<path d="M676.27 287.412H592.704V291.44H676.27V287.412Z" fill="white" fill-opacity="0.6"/>
<rect width="58.276" height="58.276" rx="16.1091" transform="matrix(-0.855186 -0.518321 -0.855186 0.518321 684.323 286.914)" fill="white"/>
<g filter="url(#filter0_f_1441_11515)">
<circle cx="690.878" cy="195.509" r="4.57341" fill="white"/>
</g>
<circle cx="690.878" cy="195.509" r="4.57341" fill="white"/>
<g filter="url(#filter1_f_1441_11515)">
<circle cx="811.092" cy="339.245" r="4.57341" fill="white"/>
</g>
<circle cx="811.092" cy="339.245" r="4.57341" fill="white"/>
<g filter="url(#filter2_f_1441_11515)">
<circle cx="680.424" cy="232.096" r="4.57341" fill="white"/>
</g>
<circle cx="680.424" cy="232.096" r="4.57341" fill="white"/>
<g filter="url(#filter3_f_1441_11515)">
<circle cx="749.025" cy="175.909" r="4.57341" fill="white"/>
</g>
<circle cx="749.025" cy="175.909" r="4.57341" fill="white"/>
<g filter="url(#filter4_f_1441_11515)">
<circle cx="769.933" cy="216.416" r="4.57341" fill="white"/>
</g>
<circle cx="769.933" cy="216.416" r="4.57341" fill="white"/>
<path d="M881.001 519.655C879.26 524.747 877.244 528.822 874.926 531.429C857.516 551.011 805.287 508.176 805.287 508.176C805.287 508.176 812.828 503.696 827.91 507.588C810.483 500.685 785.129 440.862 785.129 440.862C785.129 440.862 785.129 440.862 799.789 435.967C776.882 420.056 752.142 327.042 752.142 327.042C752.142 327.042 757.64 327.042 781.463 327.042C763.284 320.971 740.587 238.996 740.239 237.711C740.587 237.894 748.513 242.251 750.309 226.684C734.971 204.678 719.065 122.827 719.065 122.827C719.065 122.827 719.214 106.57 726.559 114.968C728.712 116.547 729.848 120.378 731.351 123.547C732.936 126.411 734.897 128.602 737.527 129.508C738.123 143.692 741.43 152.7 750.41 162.981C749.53 167.68 750.062 172.698 751.042 177.019C751.885 180.152 752.838 183.126 753.269 184.423C753.278 184.448 753.287 184.46 753.287 184.484C758.125 197.616 758.648 199.208 752.728 184.068C754.744 189.368 756.329 193.529 757.456 196.368C758.638 199.33 759.326 200.835 759.591 200.162C759.564 200.493 759.509 200.676 759.427 200.737C760.141 201.704 760.828 202.12 761.561 201.729C761.589 202.218 761.626 202.683 761.653 203.112C761.891 202.94 762.13 202.671 762.377 202.316C762.368 202.855 762.359 203.356 762.34 203.822C762.771 203.748 763.229 203.54 763.715 203.173C763.614 209.892 764.164 213.356 767.921 208.154C766.546 215.987 768.37 215.167 772.31 209.635C770.056 219.132 769.616 223.208 775.819 216.342C771.384 225.484 773.602 223.697 779.182 217.419C774.17 225.141 772.52 228.385 779.897 222.18C773.941 230.967 777.01 230.306 784.698 226.757C778.614 233.953 776.708 237.833 786.017 235.569C778.284 243.292 781.766 244.87 790.397 245.299C790.141 245.495 789.893 245.678 789.655 245.862C789.967 245.801 790.297 245.727 790.626 245.654C789.976 245.96 789.371 246.266 788.812 246.547C787.887 247.294 787.108 247.991 786.512 248.554C787.731 248.53 789.261 248.395 791.03 248.224C787.942 249.705 785.852 250.965 785.66 250.194C785.633 250.329 785.605 250.451 785.596 250.574C786.393 250.855 787.731 250.843 789.71 250.513C788.299 251.406 787.227 252.128 786.485 252.556C786.476 252.752 786.466 252.936 786.457 253.119C786.576 253.156 786.705 253.181 786.842 253.193C787.639 253.266 788.803 252.948 790.416 252.202C789.472 253.119 788.693 253.89 788.052 254.466C788.84 254.331 789.802 253.976 790.938 253.352C790.461 254.099 790.022 254.784 789.628 255.396C789.701 255.384 789.765 255.359 789.838 255.322C790.333 254.98 790.892 254.6 791.524 254.184C791.213 254.453 790.91 254.71 790.636 254.967C791.222 254.674 791.854 254.294 792.541 253.817C791.515 254.649 790.599 255.408 789.829 256.057C790.681 255.518 791.708 254.845 792.88 254.037C790.819 255.922 789.261 257.17 788.217 257.574C788.024 257.868 787.841 258.113 787.694 258.321V258.504C787.694 258.504 787.694 258.504 787.703 258.517C788.574 257.966 790.049 256.938 792.193 255.384C791.479 256.338 790.846 257.232 790.306 258.039C791.167 257.476 792.175 256.571 793.339 255.31C792.615 256.142 791.955 256.901 791.369 257.599C792.065 257.122 792.844 256.559 793.687 255.922C793.476 256.167 793.265 256.412 793.064 256.644C793.018 256.73 792.972 256.816 792.926 256.889C792.981 256.828 793.045 256.754 793.1 256.693C792.853 257.121 792.615 257.538 792.386 257.941C792.908 257.464 793.458 256.901 794.053 256.265C791.827 259.251 790.489 261.625 789.93 263.229C789.957 263.204 789.994 263.18 790.031 263.155C790.92 261.858 792.551 259.936 794.96 257.415C793.806 258.884 792.816 260.23 792.001 261.43C792.926 260.536 793.998 259.41 795.19 258.027C793.155 261.16 791.57 263.106 790.397 263.926C790.132 264.379 789.903 264.783 789.71 265.162C789.71 265.175 789.719 265.175 789.719 265.175C790.406 265.016 791.735 264.232 793.641 262.776C794.182 262.09 794.768 261.295 795.409 260.426C794.823 261.258 794.273 262.017 793.76 262.69C794.438 262.176 795.19 261.589 796.005 260.903C796.262 260.414 796.527 259.912 796.802 259.386C796.637 259.814 796.482 260.23 796.344 260.622C796.674 260.34 797.022 260.047 797.379 259.741C796.967 260.218 796.564 260.659 796.179 261.075C795.822 262.041 795.529 262.91 795.281 263.694C796.042 262.923 796.876 262.029 797.773 261.026C796.564 262.959 795.529 264.587 794.649 265.946C793.366 271.441 796.207 269.776 802.492 262.825C795.492 274.733 794.191 277.891 802.492 265.138C793.229 283.716 793.568 286.372 807.66 272.64C795.474 290.546 797.05 292.063 813.625 283.312C801.631 294.229 804.637 294.89 817.602 291.598C802.996 300.471 800.806 304.547 817.822 309.712C801.933 312.71 805.25 316.786 817.593 325.12C807.431 322.746 806.304 324.631 814.468 333.088C806.735 329.93 808.311 333.369 813.378 339.048C810.483 339.28 811.078 341.765 812.764 342.56C812.746 347.174 813.818 350.099 814.413 344.886C815.174 350.393 815.834 353.893 816.512 354.677C817.19 355.46 817.886 353.526 818.738 348.202C818.408 359.425 819.041 362.742 822.798 352.498C820.305 364.872 820.947 363.684 824.145 351.739C822.239 366.255 822.917 370.71 831.374 360.625C825.345 376.988 827.086 378.799 839.089 370.33C829.038 383.364 829.239 386.106 843.121 381.7C837.568 386.485 835.424 389.484 836.579 390.952C837.193 393.486 841.087 394.502 847.611 395.309C843.506 395.97 841.123 396.497 840.674 396.533C840.335 397.782 842.974 398.161 847.987 398.553C841.068 400.168 844.001 401.723 850.809 403.791C845.503 405.835 844.083 408.393 849.453 411.661C843.011 414.231 843.35 417.523 850.195 414.757C847.95 418.367 846.539 420.815 845.998 420.84C846.062 425.013 847.822 422.981 851.019 415.956C847.51 427.669 847.116 432.173 853.008 424.242C853.658 422.663 854.437 420.778 855.317 418.612C854.886 420.093 854.501 421.439 854.181 422.626C854.501 422.161 854.85 421.66 855.207 421.133C854.721 422.1 854.272 422.994 853.869 423.789C852.247 429.957 852.596 430.802 856.682 422.455C851.523 438.023 852.064 439.589 860.622 426.31C853.017 441.07 855.683 437.851 863.353 425.001C858.359 435.502 856.884 439.724 864.645 430.508C855.326 446.088 855.253 448.23 867.852 436.432C856.572 450.421 857.983 450.482 870.967 440.287C862.629 448.573 865.873 446.602 874.046 440.519C865.332 450.555 862.317 455.696 875.265 454.129C860.109 463.467 860.906 466.111 877.226 467.849C866.523 469.978 871.343 471.19 880.817 472.463C870.308 477.322 867.036 481.801 874.77 491.519C870.839 491.408 869.666 492.608 870.124 494.639C870.573 496.659 872.653 499.51 875.228 502.705C869.877 502.962 871.719 508.004 874.632 510.99C874.248 514.895 874.926 516.743 876.346 515.298C874.926 516.743 876.328 517.526 879.507 518.113C879.892 518.627 880.396 519.141 881.001 519.655Z" fill="#0A0144"/>
<path d="M572.293 540.121C574.197 545.106 576.342 549.061 578.742 551.531C599.441 572.842 817.944 532.887 852.357 531.1C852.357 531.1 811.705 469.094 812.76 460.273C835.13 443.064 800.774 430.443 800.774 430.443C800.774 430.443 803.047 348.582 779.248 349.954C797.212 342.844 805.911 361.734 789.522 318.718C789.522 300.191 771.271 265.867 768.975 250.422C783.587 227.561 717.691 161.57 722.927 122.667C721.591 119.646 720.969 116.559 722.042 115.983C720.298 112.825 719.393 110.918 719.619 110.55C718.402 110.338 718.576 112.594 719.918 117.232C715.892 116.668 714.39 121.273 713.513 127.043C711.413 128.743 710.401 132.635 709.003 135.887C707.512 138.839 705.623 141.14 703.026 142.196C702.888 156.397 699.875 165.584 691.236 176.369C692.267 181.012 691.898 186.055 691.058 190.426C690.317 193.604 689.461 196.629 689.072 197.95C689.064 197.975 689.055 197.987 689.056 198.012C684.647 211.406 684.176 213.025 689.601 197.564C687.758 202.973 686.309 207.22 685.275 210.121C684.19 213.147 683.552 214.69 683.265 214.033C683.303 214.362 683.363 214.542 683.448 214.598C682.765 215.605 682.092 216.06 681.347 215.711C681.335 216.202 681.314 216.668 681.3 217.098C681.057 216.94 680.81 216.685 680.551 216.345C680.578 216.882 680.603 217.383 680.637 217.846C680.204 217.798 679.74 217.616 679.243 217.278C679.56 223.983 679.123 227.474 675.202 222.495C676.828 230.239 674.98 229.525 670.866 224.226C673.424 233.582 673.995 237.627 667.576 231.127C672.301 240.003 670.029 238.346 664.252 232.396C669.508 239.821 671.26 242.965 663.692 237.192C669.925 245.626 666.837 245.143 659.043 242.04C665.353 248.878 667.382 252.643 658.009 250.917C665.984 258.185 662.556 259.963 653.948 260.887C654.211 261.068 654.464 261.237 654.707 261.407C654.394 261.364 654.062 261.309 653.731 261.255C654.39 261.523 655.004 261.794 655.572 262.043C656.52 262.735 657.321 263.387 657.934 263.915C656.716 263.961 655.183 263.915 653.411 263.845C656.543 265.147 658.671 266.285 658.838 265.504C658.87 265.637 658.901 265.758 658.914 265.879C658.127 266.206 656.79 266.271 654.803 266.055C656.241 266.866 657.335 267.526 658.09 267.911C658.106 268.106 658.121 268.289 658.136 268.472C658.018 268.515 657.891 268.547 657.754 268.567C656.96 268.686 655.787 268.435 654.152 267.783C655.125 268.645 655.928 269.37 656.587 269.908C655.795 269.819 654.823 269.52 653.668 268.962C654.168 269.68 654.629 270.339 655.043 270.928C654.969 270.92 654.904 270.899 654.83 270.866C654.324 270.553 653.754 270.206 653.109 269.827C653.429 270.078 653.739 270.317 654.022 270.558C653.427 270.298 652.783 269.956 652.081 269.518C653.133 270.291 654.073 270.996 654.863 271.599C653.994 271.11 652.947 270.497 651.749 269.758C653.87 271.522 655.466 272.679 656.522 273.022C656.724 273.304 656.915 273.538 657.068 273.738L657.074 273.921C657.074 273.921 657.074 273.921 657.065 273.934C656.178 273.434 654.671 272.492 652.479 271.063C653.224 271.975 653.884 272.831 654.45 273.607C653.572 273.094 652.536 272.248 651.333 271.056C652.083 271.845 652.766 272.565 653.375 273.228C652.663 272.791 651.867 272.274 651.005 271.687C651.223 271.919 651.442 272.152 651.65 272.372C651.699 272.455 651.747 272.538 651.796 272.609C651.739 272.551 651.672 272.481 651.615 272.423C651.876 272.837 652.128 273.239 652.37 273.629C651.832 273.182 651.265 272.652 650.65 272.05C652.97 274.905 654.383 277.199 654.993 278.768C654.965 278.745 654.928 278.723 654.89 278.701C653.96 277.456 652.269 275.631 649.781 273.251C650.981 274.652 652.013 275.94 652.867 277.091C651.913 276.251 650.806 275.189 649.571 273.876C651.705 276.888 653.351 278.74 654.549 279.492C654.829 279.929 655.071 280.319 655.275 280.687C655.276 280.699 655.267 280.7 655.267 280.7C654.575 280.58 653.222 279.874 651.272 278.529C650.709 277.876 650.098 277.115 649.429 276.284C650.042 277.082 650.616 277.808 651.15 278.451C650.456 277.976 649.686 277.433 648.85 276.795C648.578 276.321 648.296 275.835 648.004 275.325C648.183 275.744 648.352 276.15 648.502 276.534C648.163 276.272 647.806 275.998 647.439 275.713C647.866 276.166 648.283 276.583 648.681 276.976C649.069 277.922 649.39 278.773 649.663 279.541C648.878 278.814 648.016 277.97 647.087 277.019C648.358 278.881 649.444 280.447 650.367 281.753C651.826 287.168 648.935 285.669 642.431 279.088C649.808 290.579 651.21 293.657 642.506 281.398C652.359 299.421 652.106 302.093 637.585 289.189C650.337 306.371 648.812 307.977 631.971 300.191C644.305 310.404 641.324 311.237 628.266 308.695C643.142 316.717 645.462 320.661 628.631 326.799C644.599 328.88 641.417 333.141 629.357 342.176C639.431 339.219 640.618 341.037 632.735 349.954C640.358 346.355 638.895 349.88 634.017 355.844C636.916 355.909 636.402 358.425 634.743 359.317C634.91 363.924 633.934 366.907 633.171 361.734C632.589 367.278 632.043 370.812 631.39 371.634C630.738 372.455 629.98 370.564 628.957 365.296C629.649 376.486 629.124 379.835 625.041 369.82C627.93 382.034 627.251 380.886 623.671 369.139C626.043 383.527 625.51 388.015 616.736 378.43C623.287 394.426 621.606 396.335 609.342 388.567C619.804 401.007 619.691 403.757 605.682 400.155C611.383 404.615 613.621 407.487 612.515 409.02C611.984 411.585 608.127 412.824 601.636 414.006C605.758 414.43 608.154 414.819 608.604 414.83C608.983 416.057 606.359 416.588 601.365 417.267C608.328 418.483 605.449 420.204 598.715 422.662C604.08 424.398 605.582 426.871 600.323 430.443C606.841 432.64 606.609 435.947 599.682 433.579C602.041 437.055 603.529 439.419 604.07 439.412C604.141 443.584 602.318 441.656 598.897 434.824C602.78 446.32 603.319 450.796 597.178 443.214C596.477 441.675 595.638 439.837 594.69 437.724C595.168 439.178 595.596 440.501 595.954 441.668C595.619 441.222 595.255 440.741 594.881 440.236C595.397 441.173 595.874 442.04 596.303 442.811C598.122 448.879 597.801 449.742 593.45 441.641C599.105 456.892 598.616 458.488 589.638 445.718C597.712 460.022 594.944 456.961 586.868 444.567C592.196 454.768 593.806 458.9 585.756 450.142C595.567 465.167 595.709 467.302 582.743 456.243C594.462 469.566 593.054 469.708 579.755 460.273C588.352 468.069 585.048 466.287 576.687 460.682C585.716 470.204 588.893 475.165 575.909 474.345C591.35 482.8 590.639 485.486 574.393 488.161C585.153 489.672 580.377 491.159 570.954 492.976C581.609 497.224 585.022 501.51 577.61 511.66C581.533 511.324 582.743 512.454 582.351 514.51C581.968 516.553 579.982 519.521 577.513 522.859C582.867 522.808 581.19 527.95 578.375 531.1C578.886 534.978 578.268 536.862 576.803 535.502C578.268 536.862 576.893 537.725 573.736 538.495C573.368 539.031 572.881 539.573 572.293 540.121Z" fill="url(#paint6_linear_1441_11515)"/>
<ellipse opacity="0.1" cx="779.099" cy="226.73" rx="12.9301" ry="13.3919" fill="white"/>
<ellipse opacity="0.1" cx="774.482" cy="216.571" rx="23.0896" ry="23.5513" fill="white"/>
<path fill-rule="evenodd" clip-rule="evenodd" d="M770.195 351.81C773.317 345.071 774.878 341.701 774.888 337.795C774.891 336.509 774.773 335.21 774.539 333.945C773.828 330.105 771.686 327.071 767.403 321.002L757.197 306.543C752.914 300.475 754.894 297.353 752.598 296.933C752.013 295.987 746.969 296.95 746.25 297.222C744.067 298.048 742.506 301.418 739.383 308.157C736.261 314.896 734.7 318.266 734.691 322.172C734.688 323.458 734.805 324.757 735.039 326.022C735.751 329.862 737.892 332.897 742.175 338.965L752.381 353.424C756.664 359.493 758.806 362.527 761.102 362.947C761.858 363.085 766.081 363.098 767.017 362.411C769.2 361.585 767.072 358.549 770.195 351.81ZM757.438 331.13C757.906 332.947 758.14 333.855 757.895 334.384C757.65 334.912 757.093 334.701 755.98 334.278L752.659 333.016C751.588 332.609 751.053 332.406 750.89 331.743C750.728 331.08 751.046 330.394 751.681 329.023L753.607 324.866C754.242 323.495 754.56 322.809 754.965 322.949C755.369 323.09 755.594 323.963 756.044 325.71L757.438 331.13Z" fill="url(#paint7_linear_1441_11515)"/>
<path d="M756.044 325.71C755.594 323.963 755.369 323.09 754.965 322.949C754.56 322.809 754.242 323.495 753.607 324.866L751.681 329.023C751.046 330.394 750.728 331.08 750.89 331.743C751.053 332.406 751.588 332.609 752.659 333.016L755.98 334.278C757.093 334.701 757.65 334.912 757.895 334.384C758.14 333.855 757.906 332.947 757.438 331.13L756.044 325.71Z" fill="url(#paint8_linear_1441_11515)"/>
<path fill-rule="evenodd" clip-rule="evenodd" d="M772.445 346.951C773.449 344.785 773.951 343.702 774.25 342.636C775.424 338.45 774.949 333.205 773.041 329.298C772.555 328.303 771.867 327.328 770.49 325.378L762.536 314.108C761.16 312.158 760.471 311.183 759.814 310.558C757.233 308.104 754.2 308.379 752.102 311.257C751.567 311.99 751.066 313.073 750.062 315.239V315.239C749.058 317.405 748.557 318.488 748.257 319.554C747.083 323.74 747.558 328.985 749.466 332.892C749.952 333.887 750.64 334.862 752.017 336.812L759.971 348.082C761.348 350.032 762.036 351.007 762.694 351.632C765.275 354.086 768.308 353.811 770.406 350.933C770.94 350.2 771.442 349.117 772.445 346.951V346.951ZM762.813 330.675C763.312 332.541 763.562 333.474 763.312 334.012C763.063 334.55 762.489 334.316 761.342 333.85L760.38 333.458C759.327 333.03 758.801 332.816 758.643 332.158C758.485 331.499 758.798 330.824 759.423 329.474L759.967 328.3C760.593 326.95 760.905 326.275 761.307 326.409C761.708 326.543 761.937 327.398 762.394 329.11L762.813 330.675Z" fill="white"/>
<path d="M762.394 329.11C761.937 327.398 761.708 326.543 761.307 326.409C760.905 326.275 760.593 326.95 759.967 328.3L759.423 329.474C758.798 330.824 758.485 331.499 758.643 332.158C758.801 332.816 759.327 333.03 760.38 333.458L761.342 333.85C762.489 334.316 763.063 334.55 763.312 334.012C763.562 333.474 763.312 332.541 762.813 330.675L762.394 329.11Z" fill="white"/>
<path fill-rule="evenodd" clip-rule="evenodd" d="M773.164 351.541C776.286 344.802 777.848 341.432 777.857 337.526C777.86 336.24 777.742 334.941 777.508 333.676C776.797 329.836 774.655 326.802 770.372 320.733L760.166 306.274C755.883 300.206 753.741 297.172 751.445 296.752C750.689 296.613 749.938 296.681 749.219 296.953C747.036 297.779 745.475 301.149 742.352 307.888V307.888C739.23 314.628 737.669 317.997 737.66 321.903C737.657 323.189 737.774 324.489 738.009 325.753C738.72 329.594 740.861 332.628 745.144 338.696L755.35 353.155C759.634 359.224 761.775 362.258 764.071 362.678C764.827 362.816 765.578 362.748 766.297 362.476C768.48 361.65 770.041 358.28 773.164 351.541V351.541ZM760.407 330.861C760.875 332.678 761.109 333.586 760.864 334.115C760.619 334.643 760.062 334.432 758.949 334.009L755.628 332.747C754.557 332.34 754.022 332.137 753.859 331.474C753.697 330.811 754.015 330.125 754.65 328.754L756.576 324.597C757.211 323.226 757.529 322.54 757.934 322.68C758.338 322.821 758.563 323.694 759.013 325.441L760.407 330.861Z" fill="url(#paint9_linear_1441_11515)"/>
<path fill-rule="evenodd" clip-rule="evenodd" d="M774.155 351.451C777.277 344.712 778.839 341.342 778.848 337.436C778.851 336.151 778.733 334.851 778.499 333.586C777.788 329.746 775.646 326.712 771.363 320.644L761.157 306.184C756.874 300.116 754.732 297.082 752.436 296.662C751.68 296.523 750.929 296.591 750.21 296.863C748.027 297.689 746.466 301.059 743.343 307.798V307.798C740.221 314.538 738.66 317.907 738.651 321.813C738.648 323.099 738.765 324.399 739 325.663C739.711 329.504 741.852 332.538 746.135 338.606L756.341 353.066C760.624 359.134 762.766 362.168 765.062 362.588C765.818 362.726 766.569 362.658 767.288 362.386C769.471 361.56 771.032 358.191 774.155 351.451V351.451ZM761.398 330.771C761.866 332.588 762.1 333.496 761.855 334.025C761.61 334.553 761.053 334.342 759.94 333.919L756.619 332.657C755.548 332.25 755.013 332.047 754.85 331.384C754.688 330.721 755.006 330.036 755.641 328.664L757.567 324.507C758.202 323.136 758.52 322.45 758.925 322.59C759.329 322.731 759.554 323.604 760.004 325.352L761.398 330.771Z" fill="url(#paint10_linear_1441_11515)"/>
<path fill-rule="evenodd" clip-rule="evenodd" d="M766.26 313.414L771.363 320.644C775.646 326.712 777.788 329.746 778.499 333.586C778.733 334.851 778.851 336.151 778.848 337.436C778.839 341.342 777.277 344.712 774.155 351.451V351.451C771.032 358.191 769.471 361.56 767.288 362.386C766.569 362.658 765.818 362.726 765.062 362.588C762.766 362.168 760.624 359.134 756.341 353.066L742.51 333.469C741.633 332.227 741.195 331.607 740.862 331.01C738.526 326.827 737.976 320.754 739.521 316.218C739.742 315.572 740.061 314.882 740.7 313.503V313.503C751.476 306.235 762.23 310.415 766.26 313.414ZM755.641 328.664C755.006 330.036 754.688 330.721 754.85 331.384C755.013 332.047 755.548 332.25 756.619 332.657L759.94 333.919C761.053 334.342 761.61 334.553 761.855 334.025C762.1 333.496 761.866 332.588 761.398 330.771L760.004 325.352C759.554 323.604 759.329 322.731 758.925 322.59C758.52 322.45 758.202 323.136 757.567 324.507L755.641 328.664Z" fill="url(#paint11_linear_1441_11515)"/>
<path fill-rule="evenodd" clip-rule="evenodd" d="M697.492 200.592L699.276 198.451L719.621 202.349L720.339 204.437L729.078 227.568L730.694 228.915C730.316 230.464 728.511 232.854 725.963 233.168C723.176 233.51 719.713 231.758 718.23 229.254C716.746 226.751 718.796 224.021 720.188 222.898C721.572 222.728 723.525 224.276 724.916 224.974L719.939 210.498L702.992 209.024L709.409 226.947L710.939 227.972C711.029 228.96 709.008 231.491 706.454 231.805C703.667 232.148 700.204 230.396 698.72 227.892C696.807 224.663 699.467 222.325 700.881 221.417C701.347 221.117 700.391 222.823 701.081 222.738C702.465 222.568 704.015 222.914 705.407 223.612L697.492 200.592Z" fill="url(#paint12_linear_1441_11515)"/>
<path fill-rule="evenodd" clip-rule="evenodd" d="M699.288 198.436L721.417 200.194L722.135 202.282L722.135 202.282L730.462 226.5L730.447 226.498C731.41 228.744 730.308 230.699 727.76 231.012C724.972 231.355 721.51 229.603 720.026 227.099C718.542 224.595 719.599 222.287 722.387 221.945C723.771 221.774 725.321 222.121 726.713 222.819L721.735 208.342L704.713 206.99L710.953 225.138L710.931 225.12C711.905 227.373 710.804 229.336 708.25 229.65C705.463 229.992 702 228.24 700.517 225.737C699.033 223.233 700.09 220.925 702.877 220.582C704.261 220.412 705.811 220.758 707.203 221.456L699.288 198.436L699.288 198.436L699.288 198.436Z" fill="url(#paint13_linear_1441_11515)"/>
<path d="M738.246 140.666C741.731 141.864 744.192 148.18 726.159 163.86C703.619 183.46 678.138 182.154 691.532 199.141M750.66 180.194C756.867 183.787 760.264 193.718 724.199 204.694C679.118 218.414 676.505 225.928 678.792 235.401M770.913 222.008C786.376 219.721 799.073 222.53 726.159 252.061C635.018 288.975 640.244 289.955 650.045 298.122M789.86 262.842C812.292 263.168 834.811 273.426 745.433 311.843C633.711 359.863 602.35 356.597 635.998 385.671M814.361 342.876C843.326 345.49 871.529 360.517 770.913 399.717C645.144 448.718 528.849 417.358 594.837 464.399" stroke="url(#paint14_linear_1441_11515)" stroke-width="2.61338"/>
<g filter="url(#filter5_f_1441_11515)">
<path d="M737.574 140.571C741.059 141.769 743.52 148.085 725.488 163.765C702.947 183.365 677.467 182.058 690.86 199.045M749.988 180.098C756.195 183.692 760.463 198.036 724.398 209.012C679.318 222.732 675.833 225.833 678.12 235.306M772.385 220.981C787.847 218.695 801.468 225.66 728.554 255.191C637.413 292.105 639.573 289.86 649.373 298.027M789.189 262.747C811.62 263.073 834.095 275.422 744.717 313.839C632.995 361.86 601.679 356.502 635.326 385.575M813.689 342.781C842.654 345.395 873.04 365.611 772.424 404.812C646.656 453.812 528.177 417.263 594.165 464.303" stroke="url(#paint15_linear_1441_11515)" stroke-width="1.30669"/>
</g>
<g filter="url(#filter6_f_1441_11515)">
<path d="M738.246 136.708C741.731 137.906 744.192 144.222 726.159 159.902C703.619 179.502 678.138 178.196 691.532 195.182M750.66 176.235C756.866 179.829 760.264 189.76 724.199 200.736C679.118 214.456 676.505 221.97 678.792 231.443M770.913 218.05C786.376 215.763 799.073 218.572 726.159 248.103C635.018 285.017 640.244 285.997 650.045 294.164M789.86 258.884C812.292 259.21 834.81 269.468 745.433 307.884C633.711 355.905 602.35 352.639 635.998 381.712M809.787 338.918C838.752 341.532 871.529 356.559 770.913 395.759C645.144 444.76 528.849 413.4 594.837 460.44" stroke="white" stroke-width="2.61338"/>
</g>
<path d="M738.246 136.708C741.731 137.906 744.192 144.222 726.159 159.902C703.619 179.502 678.138 178.196 691.532 195.182M750.66 176.235C756.867 179.829 760.264 189.76 724.199 200.736C679.118 214.456 676.505 221.97 678.792 231.443M770.913 218.05C786.376 215.763 799.073 218.572 726.159 248.103C635.018 285.017 640.244 285.997 650.045 294.164M789.86 258.884C812.292 259.21 834.811 269.468 745.433 307.884C633.711 355.905 602.35 352.639 635.998 381.712M814.361 338.918C843.326 341.532 871.529 356.559 770.913 395.759C645.144 444.76 528.849 413.4 594.837 460.44" stroke="url(#paint16_linear_1441_11515)" stroke-width="0.653345"/>
<path d="M738.246 138.649C741.731 139.847 744.192 146.163 726.159 161.843C703.619 181.443 678.138 180.137 691.532 197.124M750.66 178.177C756.867 181.77 760.264 191.701 724.199 202.677C679.118 216.397 676.505 223.911 678.792 233.384M770.913 219.991C786.376 217.704 799.073 220.513 726.159 250.045C635.018 286.959 640.244 287.939 650.045 296.105M789.86 260.825C812.292 261.152 834.811 271.409 745.433 309.826C633.711 357.847 602.35 354.58 635.998 383.654M814.361 340.86C843.326 343.473 871.529 358.5 770.913 397.701C645.144 446.701 528.849 415.341 594.837 462.382" stroke="url(#paint17_linear_1441_11515)" stroke-width="1.34473"/>
<path opacity="0.1" d="M738.246 135.401C741.731 136.599 744.192 142.915 726.159 158.595C703.619 178.196 678.138 176.889 691.532 193.876M750.66 174.929C756.867 178.522 760.264 188.453 724.199 199.429C679.118 213.149 676.505 220.663 678.792 230.136M770.913 216.743C786.376 214.456 799.073 217.266 726.159 246.797C635.018 283.711 640.244 284.691 650.045 292.858M789.86 257.577C812.292 257.904 834.811 268.161 745.433 306.578C633.711 354.599 602.35 351.332 635.998 380.406M814.361 337.612C843.326 340.225 871.529 355.252 770.913 394.453C645.144 443.454 528.849 412.093 594.837 459.134" stroke="url(#paint18_linear_1441_11515)" stroke-width="0.653345"/>
<g filter="url(#filter7_f_1441_11515)">
<circle cx="739.879" cy="311.151" r="4.57341" fill="white"/>
</g>
<circle cx="739.879" cy="311.151" r="4.57341" fill="white"/>
<g filter="url(#filter8_f_1441_11515)">
<circle cx="673.236" cy="337.285" r="4.57341" fill="white"/>
</g>
<circle cx="673.236" cy="337.285" r="4.57341" fill="white"/>
<g filter="url(#filter9_f_1441_11515)">
<circle cx="807.826" cy="380.406" r="4.57341" fill="white"/>
</g>
<circle cx="807.826" cy="380.406" r="4.57341" fill="white"/>
<g filter="url(#filter10_f_1441_11515)">
<circle cx="757.52" cy="405.233" r="4.57341" fill="white"/>
</g>
<circle cx="757.52" cy="405.233" r="4.57341" fill="white"/>
<g filter="url(#filter11_f_1441_11515)">
<circle cx="688.918" cy="415.686" r="7.18679" fill="white"/>
</g>
<circle cx="688.918" cy="415.686" r="7.18679" fill="white"/>
<g filter="url(#filter12_f_1441_11515)">
<circle cx="770.453" cy="298.614" r="4.57341" fill="white"/>
</g>
<circle cx="770.453" cy="298.614" r="4.57341" fill="white"/>
<g filter="url(#filter13_f_1441_11515)">
<circle cx="772.451" cy="222.201" r="4.57341" fill="white"/>
</g>
<circle cx="772.451" cy="222.201" r="4.57341" fill="white"/>
<g filter="url(#filter14_f_1441_11515)">
<circle cx="712.437" cy="254.31" r="4.57341" fill="white"/>
</g>
<circle cx="712.437" cy="254.31" r="4.57341" fill="white"/>
<g filter="url(#filter15_f_1441_11515)">
<circle cx="688.918" cy="216.416" r="4.57341" fill="white"/>
</g>
<circle cx="688.918" cy="216.416" r="4.57341" fill="white"/>
<g filter="url(#filter16_f_1441_11515)">
<circle cx="732.038" cy="196.163" r="4.57341" fill="white"/>
</g>
<circle cx="732.038" cy="196.163" r="4.57341" fill="white"/>
<g filter="url(#filter17_f_1441_11515)">
<circle cx="708.518" cy="171.336" r="4.57341" fill="white"/>
</g>
<circle cx="708.518" cy="171.336" r="4.57341" fill="white"/>
<g filter="url(#filter18_f_1441_11515)">
<circle cx="739.228" cy="138.668" r="4.57341" fill="white"/>
</g>
<circle cx="739.228" cy="138.668" r="4.57341" fill="white"/>
<g filter="url(#filter19_f_1441_11515)">
<circle cx="656.904" cy="278.484" r="4.57341" fill="white"/>
</g>
<circle cx="656.904" cy="278.484" r="4.57341" fill="white"/>
<ellipse opacity="0.1" cx="740.309" cy="134.372" rx="9.23582" ry="9.69761" fill="white"/>
<ellipse opacity="0.1" cx="689.51" cy="198.099" rx="9.23582" ry="9.69761" fill="white"/>
<ellipse opacity="0.1" cx="734.304" cy="198.982" rx="12.4684" ry="12.9301" fill="white"/>
<ellipse opacity="0.1" cx="687.664" cy="218.418" rx="14.7773" ry="15.2391" fill="white"/>
<ellipse opacity="0.1" cx="658.203" cy="278.913" rx="20.3188" ry="21.2424" fill="white"/>
<ellipse opacity="0.1" cx="711.678" cy="253.514" rx="12.9301" ry="13.3919" fill="white"/>
<ellipse opacity="0.1" cx="740.308" cy="308.929" rx="23.0896" ry="23.5513" fill="white"/>
<ellipse opacity="0.1" cx="768.718" cy="298.532" rx="11.083" ry="11.5448" fill="white"/>
<ellipse opacity="0.1" cx="669.192" cy="334.789" rx="11.083" ry="11.5448" fill="white"/>
<ellipse opacity="0.1" cx="672.887" cy="338.484" rx="11.083" ry="11.5448" fill="white"/>
<ellipse opacity="0.1" cx="635.021" cy="385.586" rx="11.083" ry="11.5448" fill="white"/>
<ellipse opacity="0.1" cx="690.435" cy="408.676" rx="11.083" ry="11.5448" fill="white"/>
<ellipse opacity="0.1" cx="680.275" cy="412.371" rx="11.083" ry="11.5448" fill="white"/>
<ellipse opacity="0.1" cx="696.9" cy="416.065" rx="11.083" ry="11.5448" fill="white"/>
<ellipse opacity="0.1" cx="758.78" cy="408.676" rx="11.083" ry="11.5448" fill="white"/>
<ellipse opacity="0.1" cx="755.086" cy="404.058" rx="12.9301" ry="13.3919" fill="white"/>
<ellipse opacity="0.1" cx="768.016" cy="401.288" rx="15.7009" ry="16.1627" fill="white"/>
<ellipse opacity="0.1" cx="812.348" cy="383.739" rx="15.7009" ry="16.1627" fill="white"/>
<ellipse opacity="0.9" cx="690.896" cy="299.693" rx="3.23254" ry="3.23254" transform="rotate(180 690.896 299.693)" fill="white"/>
<ellipse opacity="0.9" cx="707.521" cy="375.427" rx="3.23254" ry="3.23254" transform="rotate(180 707.521 375.427)" fill="white"/>
<circle opacity="0.9" cx="674.271" cy="298.77" r="1.38537" transform="rotate(180 674.271 298.77)" fill="white"/>
<circle opacity="0.9" cx="727.839" cy="227.654" r="1.38537" transform="rotate(180 727.839 227.654)" fill="white"/>
<circle opacity="0.9" cx="762.014" cy="283.993" r="1.38537" transform="rotate(180 762.014 283.993)" fill="white"/>
<circle opacity="0.9" cx="775.866" cy="324.63" r="1.38537" transform="rotate(180 775.866 324.63)" fill="white"/>
<circle opacity="0.9" cx="659.494" cy="380.969" r="1.38537" transform="rotate(180 659.494 380.969)" fill="white"/>
<circle opacity="0.9" cx="640.101" cy="404.981" r="1.38537" transform="rotate(180 640.101 404.981)" fill="white"/>
<g filter="url(#filter20_f_1441_11515)">
<path d="M726.722 22.7444L732.286 94.8448L803.07 80.0465L736.217 107.618L772.165 170.365L725.285 115.304L676.717 168.882L714.596 107.282L648.632 77.6478L718.923 94.6372L726.722 22.7444Z" fill="#FFE091"/>
</g>
<g filter="url(#filter21_f_1441_11515)">
<path d="M724.494 72.6549C725.057 71.4836 726.734 71.5096 727.259 72.6979L733.673 87.1903C733.887 87.6746 734.338 88.0128 734.863 88.0833L750.57 90.1935C751.858 90.3665 752.351 91.9692 751.384 92.8366L739.582 103.415C739.188 103.768 739.006 104.301 739.101 104.822L741.948 120.413C742.181 121.691 740.809 122.655 739.685 122.003L725.978 114.048C725.52 113.783 724.957 113.774 724.491 114.025L710.543 121.551C709.4 122.168 708.058 121.161 708.331 119.89L711.661 104.396C711.772 103.878 711.607 103.34 711.223 102.974L699.756 92.0347C698.816 91.1378 699.359 89.5511 700.652 89.4181L716.417 87.7968C716.944 87.7426 717.404 87.4186 717.634 86.9412L724.494 72.6549Z" fill="#FFBA07"/>
</g>
<path d="M724.494 72.6549C725.057 71.4836 726.734 71.5096 727.259 72.6979L733.673 87.1903C733.887 87.6746 734.338 88.0128 734.863 88.0833L750.57 90.1935C751.858 90.3665 752.351 91.9692 751.384 92.8366L739.582 103.415C739.188 103.768 739.006 104.301 739.101 104.822L741.948 120.413C742.181 121.691 740.809 122.655 739.685 122.003L725.978 114.048C725.52 113.783 724.957 113.774 724.491 114.025L710.543 121.551C709.4 122.168 708.058 121.161 708.331 119.89L711.661 104.396C711.772 103.878 711.607 103.34 711.223 102.974L699.756 92.0347C698.816 91.1378 699.359 89.5511 700.652 89.4181L716.417 87.7968C716.944 87.7426 717.404 87.4186 717.634 86.9412L724.494 72.6549Z" fill="#FFD569"/>
<path d="M721.035 71.9116C721.58 70.7316 723.257 70.7316 723.801 71.9116L730.439 86.3027C730.661 86.7836 731.117 87.1147 731.642 87.177L747.38 89.043C748.671 89.196 749.189 90.7909 748.235 91.6732L736.599 102.433C736.211 102.793 736.037 103.329 736.14 103.848L739.228 119.392C739.482 120.667 738.125 121.653 736.991 121.018L723.162 113.277C722.7 113.018 722.137 113.018 721.674 113.277L707.845 121.018C706.711 121.653 705.355 120.667 705.608 119.392L708.697 103.848C708.8 103.329 708.626 102.793 708.237 102.433L696.601 91.6732C695.647 90.7909 696.166 89.196 697.456 89.043L713.194 87.177C713.72 87.1147 714.176 86.7836 714.398 86.3027L721.035 71.9116Z" fill="url(#paint19_linear_1441_11515)"/>
<path d="M721.035 71.9116C721.58 70.7316 723.257 70.7316 723.801 71.9116L730.439 86.3027C730.661 86.7836 731.117 87.1147 731.642 87.177L747.38 89.043C748.671 89.196 749.189 90.7909 748.235 91.6732L736.599 102.433C736.211 102.793 736.037 103.329 736.14 103.848L739.228 119.392C739.482 120.667 738.125 121.653 736.991 121.018L723.162 113.277C722.7 113.018 722.137 113.018 721.674 113.277L707.845 121.018C706.711 121.653 705.355 120.667 705.608 119.392L708.697 103.848C708.8 103.329 708.626 102.793 708.237 102.433L696.601 91.6732C695.647 90.7909 696.166 89.196 697.456 89.043L713.194 87.177C713.72 87.1147 714.176 86.7836 714.398 86.3027L721.035 71.9116Z" fill="url(#paint20_linear_1441_11515)"/>
<path d="M721.035 71.9116C721.58 70.7316 723.257 70.7316 723.801 71.9116L730.439 86.3027C730.661 86.7836 731.117 87.1147 731.642 87.177L747.38 89.043C748.671 89.196 749.189 90.7909 748.235 91.6732L736.599 102.433C736.211 102.793 736.037 103.329 736.14 103.848L739.228 119.392C739.482 120.667 738.125 121.653 736.991 121.018L723.162 113.277C722.7 113.018 722.137 113.018 721.674 113.277L707.845 121.018C706.711 121.653 705.355 120.667 705.608 119.392L708.697 103.848C708.8 103.329 708.626 102.793 708.237 102.433L696.601 91.6732C695.647 90.7909 696.166 89.196 697.456 89.043L713.194 87.177C713.72 87.1147 714.176 86.7836 714.398 86.3027L721.035 71.9116Z" fill="url(#paint21_linear_1441_11515)"/>
<mask id="mask2_1441_11515" style="mask-type:alpha" maskUnits="userSpaceOnUse" x="696" y="71" width="53" height="51">
<path d="M721.035 72.6727C721.58 71.4927 723.257 71.4927 723.801 72.6727L730.439 87.0638C730.661 87.5447 731.116 87.8758 731.642 87.9381L747.38 89.8041C748.671 89.9571 749.189 91.552 748.235 92.4343L736.599 103.194C736.211 103.554 736.036 104.09 736.14 104.609L739.228 120.154C739.482 121.428 738.125 122.414 736.991 121.779L723.162 114.038C722.7 113.779 722.136 113.779 721.674 114.038L707.845 121.779C706.711 122.414 705.355 121.428 705.608 120.154L708.697 104.609C708.8 104.09 708.626 103.554 708.237 103.194L696.601 92.4343C695.647 91.552 696.166 89.9571 697.456 89.8041L713.194 87.9381C713.72 87.8758 714.176 87.5447 714.397 87.0638L721.035 72.6727Z" fill="#A5D9FF"/>
</mask>
<g mask="url(#mask2_1441_11515)">
<g opacity="0.3" filter="url(#filter22_f_1441_11515)">
<path d="M726.364 72.6727C726.909 71.4927 728.586 71.4927 729.13 72.6727L735.768 87.0638C735.99 87.5447 736.445 87.8758 736.971 87.9381L752.709 89.8041C754 89.9571 754.518 91.552 753.564 92.4343L741.928 103.194C741.54 103.554 741.366 104.09 741.469 104.609L744.557 120.154C744.811 121.428 743.454 122.414 742.32 121.779L728.491 114.038C728.029 113.779 727.466 113.779 727.003 114.038L713.174 121.779C712.04 122.414 710.684 121.428 710.937 120.154L714.026 104.609C714.129 104.09 713.955 103.554 713.566 103.194L701.93 92.4343C700.976 91.552 701.495 89.9571 702.785 89.8041L718.523 87.9381C719.049 87.8758 719.505 87.5447 719.726 87.0638L726.364 72.6727Z" fill="#FFBA07"/>
</g>
</g>
<g opacity="0.4">
<mask id="mask3_1441_11515" style="mask-type:alpha" maskUnits="userSpaceOnUse" x="763" y="152" width="85" height="216">
<rect width="83.5659" height="215.043" transform="matrix(-1 0 0 1 847.021 152.323)" fill="url(#paint22_radial_1441_11515)"/>
</mask>
<g mask="url(#mask3_1441_11515)">
<rect opacity="0.5" width="40.2727" height="212.238" transform="matrix(-1 0 0 1 847.021 155.128)" fill="url(#paint23_linear_1441_11515)"/>
<rect opacity="0.5" x="763.458" y="155.128" width="40.2727" height="212.238" fill="url(#paint24_linear_1441_11515)"/>
</g>
</g>
<path d="M830.182 178.176C840.594 171.865 845.8 168.71 846.79 164.92C847.11 163.696 847.11 162.45 846.79 161.226C845.8 157.436 840.594 154.281 830.182 147.97C819.77 141.659 814.564 138.504 808.311 137.904C806.292 137.71 804.235 137.71 802.216 137.904C795.963 138.504 790.757 141.659 780.345 147.97C769.933 154.281 764.727 157.436 763.736 161.226C763.417 162.45 763.417 163.696 763.736 164.92C764.727 168.71 769.933 171.865 780.345 178.176C790.757 184.487 795.963 187.642 802.216 188.242C804.235 188.436 806.292 188.436 808.311 188.242C814.564 187.642 819.77 184.487 830.182 178.176Z" fill="url(#paint25_linear_1441_11515)"/>
<path d="M830.182 178.176C840.594 171.865 845.8 168.71 846.79 164.92C847.11 163.696 847.11 162.45 846.79 161.226C845.8 157.436 840.594 154.281 830.182 147.97C819.77 141.659 814.564 138.504 808.311 137.904C806.292 137.71 804.235 137.71 802.216 137.904C795.963 138.504 790.757 141.659 780.345 147.97C769.933 154.281 764.727 157.436 763.736 161.226C763.417 162.45 763.417 163.696 763.736 164.92C764.727 168.71 769.933 171.865 780.345 178.176C790.757 184.487 795.963 187.642 802.216 188.242C804.235 188.436 806.292 188.436 808.311 188.242C814.564 187.642 819.77 184.487 830.182 178.176Z" fill="white" fill-opacity="0.6"/>
<path d="M847.03 158.902H763.464V162.929H847.03V158.902Z" fill="url(#paint26_linear_1441_11515)"/>
<path d="M847.03 158.902H763.464V162.929H847.03V158.902Z" fill="white" fill-opacity="0.6"/>
<rect width="58.276" height="58.276" rx="16.1091" transform="matrix(-0.855186 -0.518321 -0.855186 0.518321 855.083 158.403)" fill="white"/>
<g opacity="0.4">
<mask id="mask4_1441_11515" style="mask-type:alpha" maskUnits="userSpaceOnUse" x="1040" y="335" width="110" height="282">
<rect width="109.273" height="281.197" transform="matrix(-1 0 0 1 1149.8 335.55)" fill="url(#paint27_radial_1441_11515)"/>
</mask>
<g mask="url(#mask4_1441_11515)">
<rect opacity="0.5" width="52.6617" height="277.529" transform="matrix(-1 0 0 1 1149.8 339.218)" fill="url(#paint28_linear_1441_11515)"/>
<rect opacity="0.5" x="1040.53" y="339.218" width="52.6617" height="277.529" fill="url(#paint29_linear_1441_11515)"/>
</g>
</g>
<path d="M1127.78 369.356C1141.39 361.104 1148.2 356.978 1149.49 352.023C1149.91 350.422 1149.91 348.792 1149.49 347.192C1148.2 342.236 1141.39 338.11 1127.78 329.858C1114.16 321.606 1107.35 317.48 1099.18 316.695C1096.54 316.442 1093.85 316.442 1091.21 316.695C1083.03 317.48 1076.22 321.606 1062.61 329.858C1048.99 338.11 1042.19 342.236 1040.89 347.192C1040.47 348.792 1040.47 350.422 1040.89 352.023C1042.19 356.978 1048.99 361.104 1062.61 369.356C1076.22 377.608 1083.03 381.734 1091.21 382.519C1093.85 382.772 1096.54 382.772 1099.18 382.519C1107.35 381.734 1114.16 377.608 1127.78 369.356Z" fill="url(#paint30_linear_1441_11515)"/>
<path d="M1127.78 369.356C1141.39 361.104 1148.2 356.978 1149.49 352.023C1149.91 350.422 1149.91 348.792 1149.49 347.192C1148.2 342.236 1141.39 338.11 1127.78 329.858C1114.16 321.606 1107.35 317.48 1099.18 316.695C1096.54 316.442 1093.85 316.442 1091.21 316.695C1083.03 317.48 1076.22 321.606 1062.61 329.858C1048.99 338.11 1042.19 342.236 1040.89 347.192C1040.47 348.792 1040.47 350.422 1040.89 352.023C1042.19 356.978 1048.99 361.104 1062.61 369.356C1076.22 377.608 1083.03 381.734 1091.21 382.519C1093.85 382.772 1096.54 382.772 1099.18 382.519C1107.35 381.734 1114.16 377.608 1127.78 369.356Z" fill="white" fill-opacity="0.6"/>
<path d="M1149.81 344.153H1040.54V349.419H1149.81V344.153Z" fill="url(#paint31_linear_1441_11515)"/>
<path d="M1149.81 344.153H1040.54V349.419H1149.81V344.153Z" fill="white" fill-opacity="0.6"/>
<rect width="76.2033" height="76.2033" rx="21.0647" transform="matrix(-0.855186 -0.518321 -0.855186 0.518321 1160.34 343.5)" fill="white"/>
<ellipse opacity="0.34" rx="15.9915" ry="15.9915" transform="matrix(1 8.74228e-08 8.74228e-08 -1 369.055 274.655)" fill="white"/>
<ellipse opacity="0.7" rx="8.40791" ry="8.40791" transform="matrix(1 8.74228e-08 8.74228e-08 -1 20.4592 63.9946)" fill="white"/>
<ellipse opacity="0.7" rx="8.40791" ry="8.40791" transform="matrix(1 8.74228e-08 8.74228e-08 -1 562.457 442.896)" fill="white"/>
<ellipse opacity="0.7" rx="12.4378" ry="12.4378" transform="matrix(1 8.74228e-08 8.74228e-08 -1 237.569 133.844)" fill="white"/>
<circle opacity="0.1" r="161.691" transform="matrix(-1 0 0 1 51.0021 407.476)" fill="white"/>
<ellipse opacity="0.1" rx="52.4165" ry="53.3049" transform="matrix(-1 0 0 1 279.324 171.157)" fill="white"/>
<ellipse opacity="0.1" rx="52.4165" ry="53.3049" transform="matrix(-1 0 0 1 541.034 295.125)" fill="white"/>
<ellipse opacity="0.9" rx="6.2189" ry="6.2189" transform="matrix(1 8.74228e-08 8.74228e-08 -1 298.87 186.261)" fill="white"/>
<ellipse opacity="0.9" rx="2.66524" ry="2.66525" transform="matrix(1 8.74228e-08 8.74228e-08 -1 69.6576 182.707)" fill="white"/>
<ellipse opacity="0.9" rx="2.66524" ry="2.66525" transform="matrix(1 8.74228e-08 8.74228e-08 -1 503.759 105.148)" fill="white"/>
<ellipse opacity="0.9" rx="2.66524" ry="2.66525" transform="matrix(1 8.74228e-08 8.74228e-08 -1 485.5 446.115)" fill="white"/>
<ellipse opacity="0.9" rx="2.66524" ry="2.66525" transform="matrix(1 8.74228e-08 8.74228e-08 -1 609.468 404.792)" fill="white"/>
<ellipse opacity="0.9" rx="2.66524" ry="2.66525" transform="matrix(1 8.74228e-08 8.74228e-08 -1 595.693 189.309)" fill="white"/>
<ellipse opacity="0.9" rx="2.66524" ry="2.66525" transform="matrix(1 8.74228e-08 8.74228e-08 -1 445.496 266.643)" fill="white"/>
<ellipse opacity="0.9" rx="2.66524" ry="2.66525" transform="matrix(1 8.74228e-08 8.74228e-08 -1 345.85 87.8253)" fill="white"/>
<ellipse opacity="0.9" rx="2.66524" ry="2.66525" transform="matrix(1 8.74228e-08 8.74228e-08 -1 476.265 207.757)" fill="white"/>
<ellipse opacity="0.34" cx="1130.78" cy="220.832" rx="11.6957" ry="11.6957" transform="rotate(180 1130.78 220.832)" fill="white"/>
<ellipse opacity="0.7" cx="1385.73" cy="66.7612" rx="6.14929" ry="6.14929" transform="rotate(180 1385.73 66.7612)" fill="white"/>
<ellipse opacity="0.7" cx="989.334" cy="343.878" rx="6.14929" ry="6.14929" transform="rotate(180 989.334 343.878)" fill="white"/>
<ellipse opacity="0.7" cx="1226.95" cy="117.847" rx="9.09663" ry="9.09663" transform="rotate(180 1226.95 117.847)" fill="white"/>
<circle opacity="0.1" cx="1363.4" cy="317.973" r="118.256" fill="white"/>
<g filter="url(#filter23_f_1441_11515)">
<circle cx="1446.8" cy="439.062" r="6.43498" fill="white"/>
</g>
<ellipse opacity="0.1" cx="1196.41" cy="145.137" rx="38.3358" ry="38.9856" fill="white"/>
<ellipse opacity="0.1" cx="1005" cy="235.803" rx="38.3358" ry="38.9856" fill="white"/>
<ellipse opacity="0.9" cx="1182.11" cy="156.183" rx="4.54831" ry="4.54832" transform="rotate(180 1182.11 156.183)" fill="white"/>
<ellipse opacity="0.9" cx="1349.75" cy="153.584" rx="1.94928" ry="1.94928" transform="rotate(180 1349.75 153.584)" fill="white"/>
<ellipse opacity="0.9" cx="1032.26" cy="96.8595" rx="1.94928" ry="1.94928" transform="rotate(180 1032.26 96.8595)" fill="white"/>
<ellipse opacity="0.9" cx="1045.62" cy="346.232" rx="1.94928" ry="1.94928" transform="rotate(180 1045.62 346.232)" fill="white"/>
<ellipse opacity="0.9" cx="954.951" cy="316.01" rx="1.94928" ry="1.94928" transform="rotate(180 954.951 316.01)" fill="white"/>
<ellipse opacity="0.9" cx="965.025" cy="114.53" rx="1.94928" ry="1.94928" transform="rotate(180 965.025 114.53)" fill="white"/>
<ellipse opacity="0.9" cx="1427.72" cy="278.337" rx="1.94928" ry="1.94928" transform="rotate(180 1427.72 278.337)" fill="white"/>
<ellipse opacity="0.9" cx="1074.87" cy="214.972" rx="1.94928" ry="1.94928" transform="rotate(180 1074.87 214.972)" fill="white"/>
<ellipse opacity="0.9" cx="1147.75" cy="84.1902" rx="1.94928" ry="1.94928" transform="rotate(180 1147.75 84.1902)" fill="white"/>
<ellipse opacity="0.9" cx="1052.37" cy="171.905" rx="1.94928" ry="1.94928" transform="rotate(180 1052.37 171.905)" fill="white"/>
</g>
<defs>
<filter id="filter0_f_1441_11515" x="679.771" y="184.402" width="22.2138" height="22.2138" filterUnits="userSpaceOnUse" color-interpolation-filters="sRGB">
<feFlood flood-opacity="0" result="BackgroundImageFix"/>
<feBlend mode="normal" in="SourceGraphic" in2="BackgroundImageFix" result="shape"/>
<feGaussianBlur stdDeviation="3.26673" result="effect1_foregroundBlur_1441_11515"/>
</filter>
<filter id="filter1_f_1441_11515" x="799.985" y="328.138" width="22.2138" height="22.2137" filterUnits="userSpaceOnUse" color-interpolation-filters="sRGB">
<feFlood flood-opacity="0" result="BackgroundImageFix"/>
<feBlend mode="normal" in="SourceGraphic" in2="BackgroundImageFix" result="shape"/>
<feGaussianBlur stdDeviation="3.26673" result="effect1_foregroundBlur_1441_11515"/>
</filter>
<filter id="filter2_f_1441_11515" x="669.317" y="220.99" width="22.2138" height="22.2138" filterUnits="userSpaceOnUse" color-interpolation-filters="sRGB">
<feFlood flood-opacity="0" result="BackgroundImageFix"/>
<feBlend mode="normal" in="SourceGraphic" in2="BackgroundImageFix" result="shape"/>
<feGaussianBlur stdDeviation="3.26673" result="effect1_foregroundBlur_1441_11515"/>
</filter>
<filter id="filter3_f_1441_11515" x="737.918" y="164.802" width="22.2138" height="22.2138" filterUnits="userSpaceOnUse" color-interpolation-filters="sRGB">
<feFlood flood-opacity="0" result="BackgroundImageFix"/>
<feBlend mode="normal" in="SourceGraphic" in2="BackgroundImageFix" result="shape"/>
<feGaussianBlur stdDeviation="3.26673" result="effect1_foregroundBlur_1441_11515"/>
</filter>
<filter id="filter4_f_1441_11515" x="758.826" y="205.309" width="22.2138" height="22.2138" filterUnits="userSpaceOnUse" color-interpolation-filters="sRGB">
<feFlood flood-opacity="0" result="BackgroundImageFix"/>
<feBlend mode="normal" in="SourceGraphic" in2="BackgroundImageFix" result="shape"/>
<feGaussianBlur stdDeviation="3.26673" result="effect1_foregroundBlur_1441_11515"/>
</filter>
<filter id="filter5_f_1441_11515" x="563.205" y="128.523" width="290.615" height="347.743" filterUnits="userSpaceOnUse" color-interpolation-filters="sRGB">
<feFlood flood-opacity="0" result="BackgroundImageFix"/>
<feBlend mode="normal" in="SourceGraphic" in2="BackgroundImageFix" result="shape"/>
<feGaussianBlur stdDeviation="5.71509" result="effect1_foregroundBlur_1441_11515"/>
</filter>
<filter id="filter6_f_1441_11515" x="567.242" y="128.286" width="280.222" height="340.406" filterUnits="userSpaceOnUse" color-interpolation-filters="sRGB">
<feFlood flood-opacity="0" result="BackgroundImageFix"/>
<feBlend mode="normal" in="SourceGraphic" in2="BackgroundImageFix" result="shape"/>
<feGaussianBlur stdDeviation="3.5934" result="effect1_foregroundBlur_1441_11515"/>
</filter>
<filter id="filter7_f_1441_11515" x="728.772" y="300.044" width="22.2138" height="22.2137" filterUnits="userSpaceOnUse" color-interpolation-filters="sRGB">
<feFlood flood-opacity="0" result="BackgroundImageFix"/>
<feBlend mode="normal" in="SourceGraphic" in2="BackgroundImageFix" result="shape"/>
<feGaussianBlur stdDeviation="3.26673" result="effect1_foregroundBlur_1441_11515"/>
</filter>
<filter id="filter8_f_1441_11515" x="662.129" y="326.178" width="22.2138" height="22.2137" filterUnits="userSpaceOnUse" color-interpolation-filters="sRGB">
<feFlood flood-opacity="0" result="BackgroundImageFix"/>
<feBlend mode="normal" in="SourceGraphic" in2="BackgroundImageFix" result="shape"/>
<feGaussianBlur stdDeviation="3.26673" result="effect1_foregroundBlur_1441_11515"/>
</filter>
<filter id="filter9_f_1441_11515" x="796.719" y="369.299" width="22.2138" height="22.2137" filterUnits="userSpaceOnUse" color-interpolation-filters="sRGB">
<feFlood flood-opacity="0" result="BackgroundImageFix"/>
<feBlend mode="normal" in="SourceGraphic" in2="BackgroundImageFix" result="shape"/>
<feGaussianBlur stdDeviation="3.26673" result="effect1_foregroundBlur_1441_11515"/>
</filter>
<filter id="filter10_f_1441_11515" x="746.413" y="394.126" width="22.2138" height="22.2137" filterUnits="userSpaceOnUse" color-interpolation-filters="sRGB">
<feFlood flood-opacity="0" result="BackgroundImageFix"/>
<feBlend mode="normal" in="SourceGraphic" in2="BackgroundImageFix" result="shape"/>
<feGaussianBlur stdDeviation="3.26673" result="effect1_foregroundBlur_1441_11515"/>
</filter>
<filter id="filter11_f_1441_11515" x="671.464" y="398.233" width="34.9072" height="34.9073" filterUnits="userSpaceOnUse" color-interpolation-filters="sRGB">
<feFlood flood-opacity="0" result="BackgroundImageFix"/>
<feBlend mode="normal" in="SourceGraphic" in2="BackgroundImageFix" result="shape"/>
<feGaussianBlur stdDeviation="5.13342" result="effect1_foregroundBlur_1441_11515"/>
</filter>
<filter id="filter12_f_1441_11515" x="759.346" y="287.507" width="22.2138" height="22.2137" filterUnits="userSpaceOnUse" color-interpolation-filters="sRGB">
<feFlood flood-opacity="0" result="BackgroundImageFix"/>
<feBlend mode="normal" in="SourceGraphic" in2="BackgroundImageFix" result="shape"/>
<feGaussianBlur stdDeviation="3.26673" result="effect1_foregroundBlur_1441_11515"/>
</filter>
<filter id="filter13_f_1441_11515" x="761.344" y="211.094" width="22.2138" height="22.2138" filterUnits="userSpaceOnUse" color-interpolation-filters="sRGB">
<feFlood flood-opacity="0" result="BackgroundImageFix"/>
<feBlend mode="normal" in="SourceGraphic" in2="BackgroundImageFix" result="shape"/>
<feGaussianBlur stdDeviation="3.26673" result="effect1_foregroundBlur_1441_11515"/>
</filter>
<filter id="filter14_f_1441_11515" x="701.33" y="243.203" width="22.2138" height="22.2138" filterUnits="userSpaceOnUse" color-interpolation-filters="sRGB">
<feFlood flood-opacity="0" result="BackgroundImageFix"/>
<feBlend mode="normal" in="SourceGraphic" in2="BackgroundImageFix" result="shape"/>
<feGaussianBlur stdDeviation="3.26673" result="effect1_foregroundBlur_1441_11515"/>
</filter>
<filter id="filter15_f_1441_11515" x="677.811" y="205.309" width="22.2138" height="22.2138" filterUnits="userSpaceOnUse" color-interpolation-filters="sRGB">
<feFlood flood-opacity="0" result="BackgroundImageFix"/>
<feBlend mode="normal" in="SourceGraphic" in2="BackgroundImageFix" result="shape"/>
<feGaussianBlur stdDeviation="3.26673" result="effect1_foregroundBlur_1441_11515"/>
</filter>
<filter id="filter16_f_1441_11515" x="720.931" y="185.056" width="22.2138" height="22.2138" filterUnits="userSpaceOnUse" color-interpolation-filters="sRGB">
<feFlood flood-opacity="0" result="BackgroundImageFix"/>
<feBlend mode="normal" in="SourceGraphic" in2="BackgroundImageFix" result="shape"/>
<feGaussianBlur stdDeviation="3.26673" result="effect1_foregroundBlur_1441_11515"/>
</filter>
<filter id="filter17_f_1441_11515" x="697.412" y="160.229" width="22.2138" height="22.2138" filterUnits="userSpaceOnUse" color-interpolation-filters="sRGB">
<feFlood flood-opacity="0" result="BackgroundImageFix"/>
<feBlend mode="normal" in="SourceGraphic" in2="BackgroundImageFix" result="shape"/>
<feGaussianBlur stdDeviation="3.26673" result="effect1_foregroundBlur_1441_11515"/>
</filter>
<filter id="filter18_f_1441_11515" x="728.121" y="127.561" width="22.2138" height="22.2138" filterUnits="userSpaceOnUse" color-interpolation-filters="sRGB">
<feFlood flood-opacity="0" result="BackgroundImageFix"/>
<feBlend mode="normal" in="SourceGraphic" in2="BackgroundImageFix" result="shape"/>
<feGaussianBlur stdDeviation="3.26673" result="effect1_foregroundBlur_1441_11515"/>
</filter>
<filter id="filter19_f_1441_11515" x="645.797" y="267.377" width="22.2138" height="22.2138" filterUnits="userSpaceOnUse" color-interpolation-filters="sRGB">
<feFlood flood-opacity="0" result="BackgroundImageFix"/>
<feBlend mode="normal" in="SourceGraphic" in2="BackgroundImageFix" result="shape"/>
<feGaussianBlur stdDeviation="3.26673" result="effect1_foregroundBlur_1441_11515"/>
</filter>
<filter id="filter20_f_1441_11515" x="623.507" y="-2.38113" width="204.689" height="197.871" filterUnits="userSpaceOnUse" color-interpolation-filters="sRGB">
<feFlood flood-opacity="0" result="BackgroundImageFix"/>
<feBlend mode="normal" in="SourceGraphic" in2="BackgroundImageFix" result="shape"/>
<feGaussianBlur stdDeviation="12.5628" result="effect1_foregroundBlur_1441_11515"/>
</filter>
<filter id="filter21_f_1441_11515" x="674.157" y="46.6658" width="102.86" height="100.673" filterUnits="userSpaceOnUse" color-interpolation-filters="sRGB">
<feFlood flood-opacity="0" result="BackgroundImageFix"/>
<feBlend mode="normal" in="SourceGraphic" in2="BackgroundImageFix" result="shape"/>
<feGaussianBlur stdDeviation="12.5628" result="effect1_foregroundBlur_1441_11515"/>
</filter>
<filter id="filter22_f_1441_11515" x="698.394" y="68.7422" width="58.706" height="56.2803" filterUnits="userSpaceOnUse" color-interpolation-filters="sRGB">
<feFlood flood-opacity="0" result="BackgroundImageFix"/>
<feBlend mode="normal" in="SourceGraphic" in2="BackgroundImageFix" result="shape"/>
<feGaussianBlur stdDeviation="1.52276" result="effect1_foregroundBlur_1441_11515"/>
</filter>
<filter id="filter23_f_1441_11515" x="1431.17" y="423.434" width="31.2555" height="31.2556" filterUnits="userSpaceOnUse" color-interpolation-filters="sRGB">
<feFlood flood-opacity="0" result="BackgroundImageFix"/>
<feBlend mode="normal" in="SourceGraphic" in2="BackgroundImageFix" result="shape"/>
<feGaussianBlur stdDeviation="4.59642" result="effect1_foregroundBlur_1441_11515"/>
</filter>
<linearGradient id="paint0_linear_1441_11515" x1="1440" y1="573" x2="52.1096" y2="-31.1002" gradientUnits="userSpaceOnUse">
<stop stop-color="#410060"/>
<stop offset="0.707946" stop-color="#400141"/>
<stop offset="1" stop-color="#0C0344"/>
</linearGradient>
<radialGradient id="paint1_radial_1441_11515" cx="0" cy="0" r="1" gradientUnits="userSpaceOnUse" gradientTransform="translate(42.2863 1.42234e-06) rotate(90.1341) scale(215.044 200.872)">
<stop stop-opacity="0"/>
<stop offset="0.221563"/>
<stop offset="1" stop-opacity="0"/>
</radialGradient>
<linearGradient id="paint2_linear_1441_11515" x1="40.2727" y1="59.3707" x2="-2.53987e-06" y2="59.3707" gradientUnits="userSpaceOnUse">
<stop stop-color="white" stop-opacity="0"/>
<stop offset="1" stop-color="white"/>
</linearGradient>
<linearGradient id="paint3_linear_1441_11515" x1="632.97" y1="343.009" x2="592.698" y2="343.009" gradientUnits="userSpaceOnUse">
<stop stop-color="white" stop-opacity="0"/>
<stop offset="1" stop-color="white"/>
</linearGradient>
<linearGradient id="paint4_linear_1441_11515" x1="676.27" y1="291.44" x2="592.704" y2="291.44" gradientUnits="userSpaceOnUse">
<stop stop-color="#E3E3E3"/>
<stop offset="0.21988" stop-color="#99C2FF"/>
<stop offset="0.512048" stop-color="#F48DA5"/>
<stop offset="0.75" stop-color="#A699DC"/>
<stop offset="1" stop-color="#E3E3E3"/>
</linearGradient>
<linearGradient id="paint5_linear_1441_11515" x1="676.27" y1="291.44" x2="592.704" y2="291.44" gradientUnits="userSpaceOnUse">
<stop stop-color="#E3E3E3"/>
<stop offset="0.21988" stop-color="#99C2FF"/>
<stop offset="0.512048" stop-color="#F48DA5"/>
<stop offset="0.75" stop-color="#A699DC"/>
<stop offset="1" stop-color="#E3E3E3"/>
</linearGradient>
<linearGradient id="paint6_linear_1441_11515" x1="610.185" y1="324.598" x2="810.909" y2="343.375" gradientUnits="userSpaceOnUse">
<stop offset="0.176169" stop-color="#200947"/>
<stop offset="1" stop-color="#200D56"/>
</linearGradient>
<linearGradient id="paint7_linear_1441_11515" x1="752.894" y1="299.826" x2="735.675" y2="357.615" gradientUnits="userSpaceOnUse">
<stop stop-color="#FFCDC1"/>
<stop offset="0.592097" stop-color="#EE4F72"/>
</linearGradient>
<linearGradient id="paint8_linear_1441_11515" x1="752.894" y1="299.826" x2="735.675" y2="357.615" gradientUnits="userSpaceOnUse">
<stop stop-color="#FFCDC1"/>
<stop offset="0.592097" stop-color="#EE4F72"/>
</linearGradient>
<linearGradient id="paint9_linear_1441_11515" x1="755.864" y1="299.557" x2="738.644" y2="357.347" gradientUnits="userSpaceOnUse">
<stop stop-color="white"/>
<stop offset="0.592097" stop-color="#F16382"/>
</linearGradient>
<linearGradient id="paint10_linear_1441_11515" x1="756.855" y1="299.467" x2="739.635" y2="357.257" gradientUnits="userSpaceOnUse">
<stop stop-color="#FEAD9A"/>
<stop offset="0.592097" stop-color="#F16382"/>
</linearGradient>
<linearGradient id="paint11_linear_1441_11515" x1="756.855" y1="299.467" x2="739.635" y2="357.257" gradientUnits="userSpaceOnUse">
<stop stop-color="#FFCCC0"/>
<stop offset="0.592097" stop-color="#F16382"/>
</linearGradient>
<linearGradient id="paint12_linear_1441_11515" x1="687.312" y1="197.471" x2="729.482" y2="237.467" gradientUnits="userSpaceOnUse">
<stop stop-color="#E5B12A"/>
<stop offset="1" stop-color="#E94B70"/>
</linearGradient>
<linearGradient id="paint13_linear_1441_11515" x1="689.109" y1="195.315" x2="731.279" y2="235.311" gradientUnits="userSpaceOnUse">
<stop stop-color="#FFCF52"/>
<stop offset="1" stop-color="#F48DA5"/>
</linearGradient>
<linearGradient id="paint14_linear_1441_11515" x1="524.929" y1="451.658" x2="870.222" y2="349.41" gradientUnits="userSpaceOnUse">
<stop stop-color="white" stop-opacity="0"/>
<stop offset="0.740815" stop-color="#0C0063"/>
<stop offset="1" stop-color="white" stop-opacity="0"/>
</linearGradient>
<linearGradient id="paint15_linear_1441_11515" x1="524.257" y1="451.563" x2="869.55" y2="349.315" gradientUnits="userSpaceOnUse">
<stop stop-color="white" stop-opacity="0"/>
<stop offset="0.885167" stop-color="#FFBA07"/>
<stop offset="1" stop-color="white" stop-opacity="0"/>
</linearGradient>
<linearGradient id="paint16_linear_1441_11515" x1="524.929" y1="447.7" x2="870.222" y2="345.452" gradientUnits="userSpaceOnUse">
<stop stop-color="white" stop-opacity="0"/>
<stop offset="0.102127" stop-color="white"/>
<stop offset="1" stop-color="white" stop-opacity="0"/>
</linearGradient>
<linearGradient id="paint17_linear_1441_11515" x1="524.929" y1="449.641" x2="870.222" y2="347.393" gradientUnits="userSpaceOnUse">
<stop stop-color="white" stop-opacity="0"/>
<stop offset="0.740815" stop-color="white"/>
<stop offset="1" stop-color="white" stop-opacity="0"/>
</linearGradient>
<linearGradient id="paint18_linear_1441_11515" x1="524.929" y1="446.394" x2="870.222" y2="344.145" gradientUnits="userSpaceOnUse">
<stop stop-color="white" stop-opacity="0"/>
<stop offset="0.885167" stop-color="white"/>
<stop offset="1" stop-color="white" stop-opacity="0"/>
</linearGradient>
<linearGradient id="paint19_linear_1441_11515" x1="692.724" y1="102.415" x2="752.112" y2="92.5166" gradientUnits="userSpaceOnUse">
<stop stop-color="white"/>
<stop offset="1" stop-color="white"/>
</linearGradient>
<linearGradient id="paint20_linear_1441_11515" x1="692.724" y1="102.415" x2="752.112" y2="92.5166" gradientUnits="userSpaceOnUse">
<stop stop-color="white"/>
<stop offset="1" stop-color="white"/>
</linearGradient>
<linearGradient id="paint21_linear_1441_11515" x1="692.724" y1="102.415" x2="752.112" y2="92.5166" gradientUnits="userSpaceOnUse">
<stop stop-color="#FFFCF3"/>
<stop offset="1" stop-color="white"/>
</linearGradient>
<radialGradient id="paint22_radial_1441_11515" cx="0" cy="0" r="1" gradientUnits="userSpaceOnUse" gradientTransform="translate(42.2863 1.42234e-06) rotate(90.1341) scale(215.044 200.872)">
<stop stop-opacity="0"/>
<stop offset="0.221563"/>
<stop offset="1" stop-opacity="0"/>
</radialGradient>
<linearGradient id="paint23_linear_1441_11515" x1="40.2727" y1="59.3707" x2="-2.53987e-06" y2="59.3707" gradientUnits="userSpaceOnUse">
<stop stop-color="white" stop-opacity="0"/>
<stop offset="1" stop-color="white"/>
</linearGradient>
<linearGradient id="paint24_linear_1441_11515" x1="803.73" y1="214.498" x2="763.458" y2="214.498" gradientUnits="userSpaceOnUse">
<stop stop-color="white" stop-opacity="0"/>
<stop offset="1" stop-color="white"/>
</linearGradient>
<linearGradient id="paint25_linear_1441_11515" x1="847.03" y1="162.929" x2="763.464" y2="162.929" gradientUnits="userSpaceOnUse">
<stop stop-color="#E3E3E3"/>
<stop offset="0.21988" stop-color="#99C2FF"/>
<stop offset="0.512048" stop-color="#F48DA5"/>
<stop offset="0.75" stop-color="#A699DC"/>
<stop offset="1" stop-color="#E3E3E3"/>
</linearGradient>
<linearGradient id="paint26_linear_1441_11515" x1="847.03" y1="162.929" x2="763.464" y2="162.929" gradientUnits="userSpaceOnUse">
<stop stop-color="#E3E3E3"/>
<stop offset="0.21988" stop-color="#99C2FF"/>
<stop offset="0.512048" stop-color="#F48DA5"/>
<stop offset="0.75" stop-color="#A699DC"/>
<stop offset="1" stop-color="#E3E3E3"/>
</linearGradient>
<radialGradient id="paint27_radial_1441_11515" cx="0" cy="0" r="1" gradientUnits="userSpaceOnUse" gradientTransform="translate(55.2948 1.85989e-06) rotate(90.1341) scale(281.197 262.665)">
<stop stop-opacity="0"/>
<stop offset="0.221563"/>
<stop offset="1" stop-opacity="0"/>
</radialGradient>
<linearGradient id="paint28_linear_1441_11515" x1="52.6617" y1="77.6347" x2="-3.3212e-06" y2="77.6347" gradientUnits="userSpaceOnUse">
<stop stop-color="white" stop-opacity="0"/>
<stop offset="1" stop-color="white"/>
</linearGradient>
<linearGradient id="paint29_linear_1441_11515" x1="1093.19" y1="416.852" x2="1040.53" y2="416.852" gradientUnits="userSpaceOnUse">
<stop stop-color="white" stop-opacity="0"/>
<stop offset="1" stop-color="white"/>
</linearGradient>
<linearGradient id="paint30_linear_1441_11515" x1="1149.81" y1="349.419" x2="1040.54" y2="349.419" gradientUnits="userSpaceOnUse">
<stop stop-color="#E3E3E3"/>
<stop offset="0.21988" stop-color="#99C2FF"/>
<stop offset="0.512048" stop-color="#F48DA5"/>
<stop offset="0.75" stop-color="#A699DC"/>
<stop offset="1" stop-color="#E3E3E3"/>
</linearGradient>
<linearGradient id="paint31_linear_1441_11515" x1="1149.81" y1="349.419" x2="1040.54" y2="349.419" gradientUnits="userSpaceOnUse">
<stop stop-color="#E3E3E3"/>
<stop offset="0.21988" stop-color="#99C2FF"/>
<stop offset="0.512048" stop-color="#F48DA5"/>
<stop offset="0.75" stop-color="#A699DC"/>
<stop offset="1" stop-color="#E3E3E3"/>
</linearGradient>
</defs>
</svg>
