<svg width="492" height="491" viewBox="0 0 492 491" fill="none" xmlns="http://www.w3.org/2000/svg">
<path d="M482.136 245.377C482.136 323.822 443.845 393.323 384.934 436.209C346.009 464.546 298.082 481.263 246.25 481.263C194.411 481.263 146.477 464.541 107.549 436.197C48.6482 393.31 10.3644 323.814 10.3644 245.377C10.3644 219.94 14.3908 195.443 21.8412 172.489C52.5472 77.8855 141.412 9.4917 246.25 9.4917C351.089 9.4917 439.953 77.8855 470.659 172.489C478.109 195.443 482.136 219.94 482.136 245.377Z" fill="#5B31B3"/>
<path fill-rule="evenodd" clip-rule="evenodd" d="M246.25 9.4917V245.377L21.8412 172.489C52.5472 77.8855 141.412 9.4917 246.25 9.4917Z" fill="#7946E6"/>
<path d="M21.8412 172.489C14.3908 195.443 10.3644 219.94 10.3644 245.377C10.3644 323.814 48.6482 393.31 107.549 436.197L246.25 245.377L21.8412 172.489Z" fill="#7233F7"/>
<path d="M107.549 436.197C146.477 464.541 194.411 481.263 246.25 481.263C298.082 481.263 346.009 464.546 384.934 436.209L246.25 245.377L107.549 436.197Z" fill="#5523BE"/>
<path d="M482.136 245.377C482.136 219.94 478.109 195.443 470.659 172.489L246.25 245.377L384.934 436.209C443.845 393.323 482.136 323.822 482.136 245.377Z" fill="#6E3FD1"/>
<path d="M470.659 172.489C439.953 77.8855 351.089 9.4917 246.25 9.4917V245.377L470.659 172.489Z" fill="#B8241B"/>
<path d="M491.568 245.377C491.568 326.959 451.746 399.24 390.479 443.842C349.997 473.312 300.152 490.698 246.247 490.698C192.334 490.698 142.484 473.307 101.998 443.829C40.7412 399.226 0.926025 326.951 0.926025 245.377C0.926025 218.922 5.11355 193.445 12.8619 169.573C44.7961 71.1852 137.215 0.0556641 246.247 0.0556641C355.279 0.0556641 447.698 71.1852 479.633 169.573C487.381 193.445 491.568 218.922 491.568 245.377Z" fill="url(#paint0_linear_1427_11215)"/>
<path fill-rule="evenodd" clip-rule="evenodd" d="M246.247 9.49097V245.377L21.8384 172.488C52.5444 77.8847 141.409 9.49097 246.247 9.49097Z" fill="url(#paint1_radial_1427_11215)"/>
<path opacity="0.3" d="M206.747 158.016C204.192 159.758 201.591 160.916 198.943 161.489C196.274 162.032 193.696 162.028 191.208 161.479C188.689 160.951 186.322 159.901 184.106 158.33C181.889 156.759 179.93 154.726 178.229 152.231C176.528 149.736 175.35 147.171 174.697 144.534C174.043 141.897 173.93 139.309 174.358 136.772C174.755 134.255 175.704 131.869 177.204 129.613C178.683 127.327 180.701 125.312 183.256 123.57C185.81 121.828 188.422 120.685 191.091 120.142C193.738 119.57 196.322 119.547 198.84 120.076C201.328 120.625 203.68 121.685 205.897 123.256C208.113 124.827 210.072 126.86 211.773 129.355C213.475 131.85 214.652 134.416 215.306 137.053C215.959 139.69 216.087 142.266 215.69 144.783C215.262 147.321 214.309 149.732 212.829 152.018C211.329 154.275 209.302 156.274 206.747 158.016ZM201.766 150.712C203.269 149.687 204.498 148.519 205.452 147.207C206.357 145.886 206.978 144.471 207.315 142.964C207.622 141.478 207.621 139.959 207.313 138.408C206.983 136.827 206.306 135.285 205.281 133.783C204.256 132.28 203.078 131.101 201.747 130.247C200.396 129.364 198.972 128.793 197.476 128.537C195.949 128.3 194.416 128.377 192.877 128.767C191.286 129.147 189.74 129.849 188.237 130.874C186.764 131.878 185.56 133.052 184.626 134.393C183.671 135.705 183.04 137.105 182.732 138.591C182.395 140.098 182.391 141.642 182.721 143.223C183.03 144.774 183.697 146.301 184.721 147.804C185.746 149.306 186.935 150.5 188.286 151.384C189.617 152.238 191.046 152.783 192.572 153.019C194.068 153.276 195.611 153.214 197.202 152.834C198.772 152.424 200.293 151.717 201.766 150.712ZM163.85 129.404L149.245 107.988L155.737 103.56L165.546 117.943L172.038 113.515L162.968 100.214L169.46 95.7866L178.531 109.087L190.975 100.601L195.771 107.634L163.85 129.404ZM145.624 102.678L131.018 81.2616L137.511 76.8339L147.319 91.2164L153.812 86.7887L144.741 73.4882L151.234 69.0605L160.304 82.361L172.748 73.8746L177.545 80.9081L145.624 102.678Z" fill="#65C9EB"/>
<path d="M21.8384 172.488C14.388 195.442 10.3616 219.939 10.3616 245.377C10.3616 323.814 48.6454 393.309 107.547 436.196L246.247 245.377L21.8384 172.488Z" fill="url(#paint2_radial_1427_11215)"/>
<path d="M183.256 251.444C184.166 255.603 184.305 259.52 183.673 263.196C182.992 266.882 181.661 270.172 179.68 273.066C177.709 276.01 175.15 278.492 172.003 280.513C168.856 282.534 165.252 283.989 161.191 284.877C157.13 285.765 153.248 285.948 149.545 285.424C145.842 284.901 142.481 283.714 139.461 281.862C136.452 280.059 133.893 277.62 131.785 274.543C129.628 271.478 128.094 267.865 127.185 263.707C126.275 259.548 126.161 255.625 126.842 251.939C127.473 248.263 128.775 244.954 130.745 242.011C132.727 239.116 135.291 236.659 138.438 234.637C141.585 232.616 145.189 231.162 149.25 230.273C153.311 229.385 157.193 229.203 160.896 229.726C164.599 230.249 167.955 231.412 170.964 233.215C173.984 235.067 176.572 237.525 178.729 240.591C180.838 243.667 182.347 247.285 183.256 251.444ZM171.367 254.044C170.832 251.598 169.973 249.427 168.789 247.533C167.568 245.698 166.082 244.177 164.331 242.971C162.591 241.813 160.652 241.033 158.513 240.629C156.325 240.236 154.007 240.307 151.561 240.842C149.115 241.377 147.004 242.274 145.229 243.534C143.405 244.805 141.944 246.329 140.846 248.107C139.758 249.934 139.067 251.931 138.772 254.097C138.439 256.324 138.539 258.66 139.074 261.106C139.599 263.504 140.477 265.644 141.709 267.528C142.893 269.423 144.354 270.949 146.094 272.106C147.845 273.313 149.814 274.112 152.002 274.505C154.141 274.909 156.434 274.844 158.88 274.308C161.327 273.773 163.462 272.871 165.286 271.6C167.061 270.34 168.492 268.797 169.579 266.97C170.677 265.192 171.393 263.19 171.726 260.963C172.011 258.748 171.891 256.442 171.367 254.044ZM124.645 291.485L89.7837 299.109L87.4724 288.541L110.884 283.421L108.573 272.852L86.9225 277.587L84.6112 267.019L106.262 262.284L101.832 242.028L113.281 239.524L124.645 291.485ZM81.1401 301L46.279 308.624L43.9678 298.055L67.3797 292.935L65.0684 282.367L43.4179 287.102L41.1066 276.533L62.7571 271.798L58.3272 251.542L69.7763 249.038L81.1401 301Z" fill="#FD9E42"/>
<path d="M107.547 436.196C146.475 464.54 194.408 481.263 246.247 481.263C298.079 481.263 346.006 464.545 384.931 436.208L246.247 245.377L107.547 436.196Z" fill="url(#paint3_radial_1427_11215)"/>
<path d="M246.4 314.946C250.84 314.946 254.862 315.677 258.466 317.139C262.07 318.654 265.125 320.743 267.632 323.407C270.192 326.071 272.15 329.231 273.508 332.887C274.866 336.544 275.546 340.539 275.546 344.875C275.546 349.21 274.866 353.206 273.508 356.862C272.15 360.518 270.192 363.678 267.632 366.342C265.125 369.006 262.07 371.069 258.466 372.531C254.862 374.046 250.84 374.803 246.4 374.803C241.96 374.803 237.939 374.046 234.335 372.531C230.731 371.069 227.649 369.006 225.09 366.342C222.582 363.678 220.65 360.518 219.292 356.862C217.934 353.206 217.255 349.21 217.255 344.875C217.255 340.539 217.934 336.544 219.292 332.887C220.65 329.231 222.582 326.071 225.09 323.407C227.649 320.743 230.731 318.654 234.335 317.139C237.939 315.677 241.96 314.946 246.4 314.946ZM246.4 327.638C243.789 327.638 241.386 328.03 239.192 328.813C237.051 329.649 235.17 330.824 233.551 332.339C231.984 333.854 230.757 335.656 229.869 337.745C228.981 339.886 228.537 342.263 228.537 344.875C228.537 347.486 228.981 349.837 229.869 351.926C230.757 354.067 231.984 355.896 233.551 357.41C235.17 358.925 237.051 360.074 239.192 360.858C241.386 361.693 243.789 362.111 246.4 362.111C248.959 362.111 251.336 361.693 253.53 360.858C255.724 360.074 257.604 358.925 259.171 357.41C260.79 355.896 262.044 354.067 262.932 351.926C263.819 349.837 264.263 347.486 264.263 344.875C264.263 342.263 263.819 339.886 262.932 337.745C262.044 335.656 260.79 333.854 259.171 332.339C257.604 330.824 255.724 329.649 253.53 328.813C251.336 328.03 248.959 327.638 246.4 327.638ZM274.135 383.581L274.135 420.796L262.853 420.796L262.853 395.803L251.571 395.803L251.571 418.916L240.289 418.916L240.289 395.803L218.665 395.803L218.665 383.581L274.135 383.581ZM274.135 430.023L274.135 467.238L262.853 467.238L262.853 442.246L251.571 442.246L251.571 465.358L240.289 465.358L240.289 442.246L218.665 442.246L218.665 430.023L274.135 430.023Z" fill="#682EDE"/>
<path d="M482.133 245.377C482.133 219.939 478.107 195.442 470.656 172.488L246.247 245.377L384.931 436.208C443.842 393.322 482.133 323.821 482.133 245.377Z" fill="url(#paint4_radial_1427_11215)"/>
<path d="M294.749 296.908C293.666 292.934 293.34 289.156 293.769 285.574C294.246 281.979 295.371 278.734 297.143 275.84C298.903 272.9 301.253 270.376 304.195 268.268C307.136 266.161 310.546 264.578 314.427 263.521C318.307 262.463 322.049 262.096 325.653 262.42C329.256 262.743 332.562 263.726 335.571 265.366C338.567 266.961 341.159 269.192 343.347 272.061C345.582 274.917 347.241 278.332 348.324 282.306C349.407 286.279 349.71 290.064 349.234 293.659C348.804 297.242 347.709 300.503 345.949 303.444C344.177 306.337 341.82 308.838 338.879 310.946C335.938 313.053 332.527 314.635 328.647 315.693C324.767 316.751 321.025 317.118 317.421 316.794C313.817 316.471 310.517 315.512 307.522 313.918C304.513 312.277 301.891 310.028 299.656 307.172C297.468 304.303 295.832 300.882 294.749 296.908ZM306.109 293.812C306.747 296.149 307.683 298.204 308.92 299.977C310.19 301.689 311.701 303.086 313.451 304.165C315.189 305.198 317.102 305.857 319.188 306.142C321.322 306.415 323.557 306.232 325.894 305.595C328.232 304.958 330.227 303.987 331.881 302.683C333.581 301.366 334.918 299.821 335.891 298.049C336.852 296.23 337.422 294.267 337.6 292.159C337.813 289.992 337.601 287.74 336.964 285.402C336.34 283.111 335.386 281.086 334.103 279.327C332.866 277.554 331.379 276.152 329.641 275.119C327.89 274.039 325.948 273.363 323.815 273.091C321.728 272.806 319.516 272.982 317.179 273.619C314.841 274.256 312.823 275.233 311.123 276.55C309.469 277.855 308.162 279.416 307.201 281.235C306.228 283.007 305.635 284.977 305.422 287.144C305.256 289.298 305.485 291.521 306.109 293.812ZM349.414 255.341L382.723 246.262L385.475 256.36L363.106 262.457L365.858 272.555L386.545 266.916L389.297 277.014L368.61 282.653L373.885 302.007L362.946 304.988L349.414 255.341ZM390.982 244.011L424.29 234.932L427.043 245.03L404.673 251.127L407.426 261.225L428.112 255.587L430.864 265.684L410.178 271.323L415.453 290.677L404.514 293.659L390.982 244.011Z" fill="#4F25C7"/>
<path d="M246.73 9.49145C351.189 9.70076 439.71 77.8087 470.507 172.029M21.6898 172.948C14.3345 195.769 10.3616 220.109 10.3616 245.377C10.3616 323.64 48.4764 393.002 107.156 435.911M21.9879 172.029C52.7846 77.8087 141.306 9.70077 245.764 9.49145M107.937 436.48C146.795 464.652 194.581 481.263 246.247 481.263C297.906 481.263 345.686 464.657 384.541 436.492M247.029 245.631L470.346 173.097C477.685 195.871 481.65 220.16 481.65 245.377C481.65 323.487 443.607 392.711 385.038 435.533L247.029 245.631Z" stroke="black" stroke-width="0.965832"/>
<path d="M470.656 172.488C439.95 77.8847 351.086 9.49097 246.247 9.49097V245.377L470.656 172.488Z" fill="url(#paint5_radial_1427_11215)"/>
<path opacity="0.1" d="M246.247 82.8517C318.48 82.8517 379.708 129.975 400.865 195.157C405.998 210.972 408.772 227.85 408.772 245.377C408.772 299.425 382.39 347.311 341.8 376.86C314.981 396.384 281.959 407.902 246.247 407.902C210.529 407.902 177.503 396.381 150.682 376.852C110.099 347.302 83.7215 299.42 83.7215 245.377C83.7215 227.85 86.4958 210.972 91.629 195.157C112.785 129.975 174.013 82.8517 246.247 82.8517Z" fill="white" stroke="white" stroke-width="0.471772"/>
<path opacity="0.3" d="M262.856 157.178C261.744 153.03 261.421 149.09 261.885 145.357C262.398 141.611 263.585 138.233 265.446 135.224C267.294 132.166 269.756 129.545 272.832 127.361C275.907 125.177 279.47 123.542 283.521 122.457C287.571 121.372 291.474 121.006 295.23 121.359C298.985 121.713 302.428 122.752 305.557 124.476C308.674 126.151 311.366 128.49 313.635 131.491C315.952 134.478 317.666 138.046 318.778 142.194C319.889 146.342 320.188 150.289 319.675 154.035C319.211 157.768 318.055 161.164 316.207 164.222C314.346 167.231 311.878 169.827 308.802 172.011C305.726 174.195 302.163 175.83 298.113 176.915C294.062 178 290.159 178.366 286.404 178.013C282.648 177.659 279.212 176.645 276.096 174.969C272.966 173.245 270.243 170.889 267.925 167.901C265.657 164.9 263.967 161.326 262.856 157.178ZM274.713 154.001C275.367 156.441 276.335 158.587 277.616 160.441C278.933 162.232 280.501 163.695 282.322 164.828C284.129 165.913 286.12 166.609 288.294 166.915C290.517 167.209 292.848 167.029 295.288 166.375C297.728 165.721 299.813 164.718 301.543 163.365C303.321 162 304.722 160.395 305.745 158.552C306.754 156.66 307.357 154.616 307.553 152.419C307.785 150.16 307.574 147.811 306.92 145.371C306.279 142.98 305.294 140.865 303.964 139.024C302.683 137.171 301.138 135.702 299.331 134.617C297.511 133.484 295.489 132.77 293.266 132.477C291.092 132.17 288.785 132.344 286.345 132.997C283.905 133.651 281.796 134.661 280.017 136.026C278.288 137.379 276.918 139.001 275.908 140.893C274.885 142.736 274.258 144.787 274.027 147.046C273.844 149.292 274.073 151.61 274.713 154.001ZM320.035 114.085L354.803 104.769L357.627 115.309L334.278 121.566L337.102 132.106L358.695 126.32L361.519 136.861L339.926 142.646L345.339 162.849L333.921 165.908L320.035 114.085ZM363.424 102.459L398.192 93.1431L401.016 103.683L377.667 109.94L380.491 120.48L402.084 114.694L404.908 125.235L383.315 131.02L388.728 151.223L377.31 154.282L363.424 102.459Z" fill="url(#paint6_linear_1427_11215)"/>
<path d="M108.206 436.092L246.247 246.179L384.272 436.104C345.494 464.216 297.807 480.791 246.247 480.791C194.68 480.791 146.987 464.211 108.206 436.092ZM470.353 173.083C477.695 195.861 481.661 220.155 481.661 245.377C481.661 323.494 443.613 392.725 385.035 435.549L247.011 245.625L470.353 173.083ZM246.719 9.9632C350.976 10.1677 439.328 78.1448 470.062 172.185L246.719 244.727V9.9632ZM245.776 244.727L22.4332 172.185C53.1665 78.1448 141.518 10.1677 245.776 9.9632V244.727ZM10.8333 245.377C10.8333 220.155 14.7995 195.861 22.1419 173.083L245.484 245.625L107.443 435.536C48.8745 392.712 10.8333 323.487 10.8333 245.377Z" stroke="#431C94" stroke-width="0.943543"/>
<path opacity="0.3" d="M246.247 12.1286C349.91 12.1286 437.784 79.7544 468.147 173.302C475.513 195.997 479.495 220.22 479.495 245.377C479.495 322.942 441.637 391.665 383.379 434.076C344.89 462.096 297.502 478.625 246.247 478.625C194.984 478.625 147.591 462.091 109.098 434.064C50.8503 391.652 12.9987 322.935 12.9987 245.377C12.9987 220.22 16.9806 195.997 24.3467 173.302C54.7102 79.7544 142.584 12.1286 246.247 12.1286Z" stroke="#3E1F80" stroke-width="4.82916"/>
<g filter="url(#filter0_d_1427_11215)">
<circle cx="246.246" cy="9.71029" r="7.72665" fill="url(#paint7_linear_1427_11215)"/>
</g>
<g filter="url(#filter1_d_1427_11215)">
<circle cx="385.325" cy="435.642" r="7.72665" fill="url(#paint8_linear_1427_11215)"/>
</g>
<g filter="url(#filter2_d_1427_11215)">
<circle cx="470.319" cy="171.004" r="7.72665" fill="url(#paint9_linear_1427_11215)"/>
</g>
<g filter="url(#filter3_d_1427_11215)">
<circle cx="23.1385" cy="172.936" r="7.72665" fill="url(#paint10_linear_1427_11215)"/>
</g>
<g filter="url(#filter4_d_1427_11215)">
<circle cx="108.132" cy="433.71" r="7.72665" fill="url(#paint11_linear_1427_11215)"/>
</g>
<g filter="url(#filter5_d_1427_11215)">
<path d="M179.863 144.945L184.398 151.686L181.11 153.898L176.575 147.158L179.863 144.945ZM164.478 142.842L170.52 144.429L169.402 148.564L159.801 145.829L157.22 141.993L176.619 128.942L179.274 132.888L164.478 142.842ZM163.366 130.185C162.215 130.959 160.978 131.645 159.656 132.243C158.321 132.823 156.991 133.173 155.667 133.295C154.33 133.398 153.047 133.187 151.817 132.661C150.569 132.147 149.46 131.169 148.489 129.726C147.518 128.283 147.03 126.886 147.024 125.537C147 124.2 147.294 122.941 147.906 121.759C148.505 120.56 149.331 119.461 150.383 118.461C151.423 117.443 152.519 116.547 153.669 115.773C154.82 114.998 156.063 114.321 157.398 113.742C158.72 113.144 160.05 112.793 161.387 112.69C162.711 112.568 163.998 112.765 165.245 113.278C166.475 113.804 167.575 114.789 168.546 116.232C169.517 117.675 170.014 119.065 170.038 120.402C170.044 121.752 169.747 123.026 169.148 124.226C168.536 125.407 167.71 126.506 166.67 127.524C165.618 128.524 164.516 129.411 163.366 130.185ZM160.601 126.075C161.112 125.731 161.712 125.301 162.399 124.785C163.075 124.251 163.674 123.662 164.196 123.019C164.719 122.376 165.073 121.7 165.26 120.99C165.434 120.263 165.269 119.525 164.765 118.776C164.273 118.045 163.658 117.623 162.918 117.511C162.179 117.398 161.413 117.462 160.62 117.703C159.827 117.945 159.063 118.287 158.326 118.73C157.576 119.154 156.946 119.539 156.434 119.883C155.923 120.227 155.33 120.666 154.654 121.2C153.966 121.716 153.361 122.295 152.839 122.939C152.316 123.582 151.968 124.267 151.794 124.995C151.62 125.722 151.779 126.451 152.27 127.182C152.774 127.931 153.396 128.362 154.135 128.475C154.862 128.569 155.622 128.496 156.415 128.254C157.208 128.013 157.979 127.68 158.728 127.255C159.465 126.813 160.089 126.419 160.601 126.075ZM148.276 97.8761C147.527 98.3799 146.732 98.7161 145.89 98.8845C145.036 99.0346 144.202 99.0381 143.39 98.895C142.565 98.7336 141.794 98.4162 141.077 97.943C140.343 97.482 139.723 96.877 139.22 96.1281C138.716 95.3791 138.389 94.5775 138.239 93.7233C138.07 92.8814 138.073 92.057 138.247 91.2503C138.408 90.4253 138.725 89.6545 139.199 88.9381C139.66 88.2034 140.264 87.5842 141.013 87.0803C141.762 86.5765 142.573 86.2433 143.446 86.0809C144.288 85.9125 145.121 85.909 145.946 86.0704C146.759 86.2135 147.532 86.5156 148.267 86.9765C148.984 87.4498 149.594 88.0609 150.098 88.8099C150.601 89.5588 150.938 90.3543 151.106 91.1962C151.256 92.0504 151.25 92.8901 151.089 93.7151C150.915 94.5218 150.598 95.2925 150.137 96.0272C149.646 96.7559 149.025 97.3722 148.276 97.8761ZM142.894 89.8752C142.163 90.3667 141.714 91.0403 141.547 91.8959C141.367 92.7332 141.523 93.5172 142.014 94.2478C142.506 94.9785 143.18 95.4275 144.035 95.5949C144.878 95.744 145.665 95.5728 146.396 95.0812C147.145 94.5774 147.609 93.9068 147.789 93.0695C147.956 92.2139 147.794 91.4208 147.303 90.6901C146.811 89.9594 146.144 89.5195 145.3 89.3704C144.445 89.2031 143.643 89.3713 142.894 89.8752ZM148.369 117.834C147.62 118.338 146.825 118.674 145.983 118.842C145.129 118.992 144.295 118.996 143.483 118.853C142.658 118.691 141.887 118.374 141.17 117.901C140.436 117.44 139.817 116.835 139.313 116.086C138.809 115.337 138.482 114.535 138.332 113.681C138.163 112.839 138.166 112.015 138.34 111.208C138.501 110.383 138.818 109.612 139.292 108.896C139.753 108.161 140.358 107.542 141.107 107.038C141.855 106.534 142.657 106.207 143.511 106.057C144.353 105.889 145.187 105.885 146.012 106.047C146.824 106.19 147.598 106.492 148.333 106.953C149.049 107.426 149.659 108.037 150.163 108.786C150.667 109.535 151.003 110.33 151.172 111.172C151.322 112.027 151.316 112.866 151.155 113.691C150.981 114.498 150.664 115.269 150.203 116.003C149.729 116.72 149.118 117.33 148.369 117.834ZM142.987 109.833C142.256 110.324 141.807 110.998 141.64 111.854C141.46 112.691 141.616 113.475 142.108 114.206C142.599 114.936 143.273 115.385 144.128 115.553C144.972 115.702 145.758 115.531 146.489 115.039C147.22 114.547 147.675 113.883 147.855 113.046C148.022 112.19 147.86 111.397 147.368 110.666C146.877 109.936 146.209 109.496 145.366 109.347C144.511 109.179 143.717 109.341 142.987 109.833ZM131.152 105.138L130.891 101.97L158.369 99.9219L158.592 102.797L131.152 105.138Z" fill="url(#paint12_linear_1427_11215)"/>
<path d="M179.863 144.945L184.398 151.686L181.11 153.898L176.575 147.158L179.863 144.945ZM164.478 142.842L170.52 144.429L169.402 148.564L159.801 145.829L157.22 141.993L176.619 128.942L179.274 132.888L164.478 142.842ZM163.366 130.185C162.215 130.959 160.978 131.645 159.656 132.243C158.321 132.823 156.991 133.173 155.667 133.295C154.33 133.398 153.047 133.187 151.817 132.661C150.569 132.147 149.46 131.169 148.489 129.726C147.518 128.283 147.03 126.886 147.024 125.537C147 124.2 147.294 122.941 147.906 121.759C148.505 120.56 149.331 119.461 150.383 118.461C151.423 117.443 152.519 116.547 153.669 115.773C154.82 114.998 156.063 114.321 157.398 113.742C158.72 113.144 160.05 112.793 161.387 112.69C162.711 112.568 163.998 112.765 165.245 113.278C166.475 113.804 167.575 114.789 168.546 116.232C169.517 117.675 170.014 119.065 170.038 120.402C170.044 121.752 169.747 123.026 169.148 124.226C168.536 125.407 167.71 126.506 166.67 127.524C165.618 128.524 164.516 129.411 163.366 130.185ZM160.601 126.075C161.112 125.731 161.712 125.301 162.399 124.785C163.075 124.251 163.674 123.662 164.196 123.019C164.719 122.376 165.073 121.7 165.26 120.99C165.434 120.263 165.269 119.525 164.765 118.776C164.273 118.045 163.658 117.623 162.918 117.511C162.179 117.398 161.413 117.462 160.62 117.703C159.827 117.945 159.063 118.287 158.326 118.73C157.576 119.154 156.946 119.539 156.434 119.883C155.923 120.227 155.33 120.666 154.654 121.2C153.966 121.716 153.361 122.295 152.839 122.939C152.316 123.582 151.968 124.267 151.794 124.995C151.62 125.722 151.779 126.451 152.27 127.182C152.774 127.931 153.396 128.362 154.135 128.475C154.862 128.569 155.622 128.496 156.415 128.254C157.208 128.013 157.979 127.68 158.728 127.255C159.465 126.813 160.089 126.419 160.601 126.075ZM148.276 97.8761C147.527 98.3799 146.732 98.7161 145.89 98.8845C145.036 99.0346 144.202 99.0381 143.39 98.895C142.565 98.7336 141.794 98.4162 141.077 97.943C140.343 97.482 139.723 96.877 139.22 96.1281C138.716 95.3791 138.389 94.5775 138.239 93.7233C138.07 92.8814 138.073 92.057 138.247 91.2503C138.408 90.4253 138.725 89.6545 139.199 88.9381C139.66 88.2034 140.264 87.5842 141.013 87.0803C141.762 86.5765 142.573 86.2433 143.446 86.0809C144.288 85.9125 145.121 85.909 145.946 86.0704C146.759 86.2135 147.532 86.5156 148.267 86.9765C148.984 87.4498 149.594 88.0609 150.098 88.8099C150.601 89.5588 150.938 90.3543 151.106 91.1962C151.256 92.0504 151.25 92.8901 151.089 93.7151C150.915 94.5218 150.598 95.2925 150.137 96.0272C149.646 96.7559 149.025 97.3722 148.276 97.8761ZM142.894 89.8752C142.163 90.3667 141.714 91.0403 141.547 91.8959C141.367 92.7332 141.523 93.5172 142.014 94.2478C142.506 94.9785 143.18 95.4275 144.035 95.5949C144.878 95.744 145.665 95.5728 146.396 95.0812C147.145 94.5774 147.609 93.9068 147.789 93.0695C147.956 92.2139 147.794 91.4208 147.303 90.6901C146.811 89.9594 146.144 89.5195 145.3 89.3704C144.445 89.2031 143.643 89.3713 142.894 89.8752ZM148.369 117.834C147.62 118.338 146.825 118.674 145.983 118.842C145.129 118.992 144.295 118.996 143.483 118.853C142.658 118.691 141.887 118.374 141.17 117.901C140.436 117.44 139.817 116.835 139.313 116.086C138.809 115.337 138.482 114.535 138.332 113.681C138.163 112.839 138.166 112.015 138.34 111.208C138.501 110.383 138.818 109.612 139.292 108.896C139.753 108.161 140.358 107.542 141.107 107.038C141.855 106.534 142.657 106.207 143.511 106.057C144.353 105.889 145.187 105.885 146.012 106.047C146.824 106.19 147.598 106.492 148.333 106.953C149.049 107.426 149.659 108.037 150.163 108.786C150.667 109.535 151.003 110.33 151.172 111.172C151.322 112.027 151.316 112.866 151.155 113.691C150.981 114.498 150.664 115.269 150.203 116.003C149.729 116.72 149.118 117.33 148.369 117.834ZM142.987 109.833C142.256 110.324 141.807 110.998 141.64 111.854C141.46 112.691 141.616 113.475 142.108 114.206C142.599 114.936 143.273 115.385 144.128 115.553C144.972 115.702 145.758 115.531 146.489 115.039C147.22 114.547 147.675 113.883 147.855 113.046C148.022 112.19 147.86 111.397 147.368 110.666C146.877 109.936 146.209 109.496 145.366 109.347C144.511 109.179 143.717 109.341 142.987 109.833ZM131.152 105.138L130.891 101.97L158.369 99.9219L158.592 102.797L131.152 105.138Z" fill="url(#paint13_linear_1427_11215)"/>
</g>
<g filter="url(#filter6_d_1427_11215)">
<path d="M304.257 173.476L296.072 183.274L291.293 179.281L299.477 169.484L304.257 173.476ZM318.035 160.785L307.755 173.092L302.737 168.9L294.827 142.752L300.283 136.22L317.808 150.858L320.835 147.234L325.854 151.426L322.826 155.05L328.482 159.774L323.691 165.509L318.035 160.785ZM303.299 148.476L303.232 148.555L307.727 162.926L313.017 156.593L303.299 148.476ZM319.3 142.111C317.627 140.713 316.049 139.148 314.568 137.414C313.108 135.654 311.996 133.801 311.232 131.855C310.49 129.883 310.247 127.854 310.501 125.768C310.73 123.66 311.72 121.557 313.472 119.459C315.224 117.362 317.117 116.013 319.151 115.413C321.159 114.791 323.188 114.682 325.238 115.088C327.311 115.467 329.332 116.231 331.302 117.381C333.294 118.504 335.126 119.764 336.799 121.161C338.472 122.558 340.038 124.137 341.498 125.897C342.98 127.631 344.092 129.484 344.833 131.456C345.597 133.402 345.865 135.428 345.637 137.537C345.382 139.623 344.378 141.715 342.626 143.812C340.874 145.91 338.994 147.27 336.987 147.892C334.953 148.492 332.9 148.603 330.827 148.224C328.777 147.818 326.756 147.054 324.763 145.931C322.794 144.781 320.972 143.508 319.3 142.111ZM324.29 136.136C325.033 136.757 325.945 137.474 327.025 138.286C328.127 139.071 329.278 139.717 330.478 140.223C331.678 140.73 332.853 140.968 334.005 140.938C335.179 140.882 336.221 140.31 337.13 139.221C338.017 138.159 338.384 137.045 338.23 135.88C338.077 134.715 337.644 133.587 336.932 132.497C336.22 131.406 335.368 130.402 334.377 129.484C333.408 128.539 332.552 127.756 331.809 127.135C331.065 126.514 330.142 125.811 329.04 125.026C327.961 124.214 326.821 123.555 325.621 123.048C324.421 122.542 323.234 122.317 322.06 122.373C320.886 122.429 319.856 122.988 318.969 124.051C318.059 125.139 317.681 126.266 317.835 127.431C318.011 128.57 318.455 129.684 319.167 130.775C319.879 131.865 320.719 132.883 321.688 133.828C322.679 134.746 323.546 135.515 324.29 136.136ZM361.442 105.178C360.353 104.269 359.497 103.216 358.874 102.019C358.273 100.796 357.903 99.5396 357.762 98.2504C357.644 96.9346 357.785 95.6325 358.186 94.3439C358.559 93.0332 359.201 91.8335 360.11 90.7449C361.019 89.6562 362.086 88.8114 363.309 88.2104C364.506 87.5872 365.751 87.2299 367.044 87.1384C368.36 87.0203 369.662 87.1614 370.951 87.5616C372.262 87.9352 373.461 88.5767 374.55 89.486C375.639 90.3954 376.497 91.4728 377.124 92.7182C377.747 93.915 378.118 95.1712 378.236 96.4869C378.376 97.7761 378.26 99.0761 377.886 100.387C377.486 101.675 376.831 102.864 375.922 103.953C375.012 105.041 373.959 105.897 372.763 106.52C371.539 107.121 370.27 107.481 368.954 107.599C367.66 107.69 366.358 107.549 365.048 107.176C363.732 106.753 362.531 106.088 361.442 105.178ZM371.156 93.5485C370.094 92.6613 368.881 92.2789 367.517 92.4014C366.174 92.4972 365.06 93.0762 364.172 94.1383C363.285 95.2004 362.903 96.4137 363.025 97.7781C363.17 99.116 363.773 100.229 364.835 101.116C365.924 102.025 367.139 102.432 368.482 102.336C369.846 102.214 370.972 101.621 371.859 100.559C372.746 99.4971 373.118 98.2971 372.973 96.9592C372.851 95.5947 372.245 94.4578 371.156 93.5485ZM331.365 114.067C330.277 113.157 329.421 112.104 328.798 110.907C328.197 109.684 327.826 108.428 327.686 107.139C327.568 105.823 327.709 104.521 328.109 103.232C328.483 101.922 329.124 100.722 330.033 99.6332C330.943 98.5446 332.009 97.6998 333.232 97.0988C334.429 96.4756 335.674 96.1183 336.968 96.0267C338.284 95.9087 339.586 96.0497 340.874 96.4499C342.185 96.8235 343.385 97.465 344.473 98.3744C345.562 99.2837 346.407 100.35 347.008 101.573C347.631 102.77 348.002 104.026 348.12 105.342C348.26 106.631 348.143 107.931 347.77 109.242C347.369 110.53 346.715 111.719 345.805 112.808C344.896 113.896 343.843 114.752 342.646 115.375C341.423 115.976 340.153 116.336 338.838 116.454C337.544 116.546 336.242 116.404 334.931 116.031C333.643 115.631 332.454 114.976 331.365 114.067ZM341.08 102.437C340.018 101.55 338.805 101.167 337.44 101.29C336.098 101.386 334.983 101.965 334.096 103.027C333.209 104.089 332.826 105.302 332.949 106.666C333.093 108.004 333.697 109.117 334.759 110.004C335.821 110.891 337.023 111.287 338.365 111.191C339.73 111.069 340.856 110.476 341.743 109.414C342.63 108.352 343.001 107.152 342.857 105.814C342.734 104.45 342.142 103.324 341.08 102.437ZM342.977 82.5189L347.643 80.737L362.779 121.306L358.538 122.902L342.977 82.5189Z" fill="url(#paint14_linear_1427_11215)"/>
</g>
<g filter="url(#filter7_d_1427_11215)">
<path d="M358.096 285.584L349.252 282.759L350.629 278.445L359.474 281.269L358.096 285.584ZM360.409 287.511L373.132 281.787C373.78 281.493 374.448 281.138 375.135 280.723C375.822 280.309 376.288 279.718 376.533 278.951C376.809 278.088 376.711 277.318 376.241 276.639C375.779 275.937 375.128 275.452 374.289 275.184C373.283 274.862 372.392 274.921 371.618 275.361C370.868 275.808 370.311 276.476 369.948 277.363L364.682 275.246C365.174 273.951 365.814 272.9 366.599 272.094C367.392 271.265 368.288 270.653 369.285 270.258C370.283 269.863 371.359 269.679 372.513 269.704C373.699 269.713 374.915 269.916 376.161 270.314C377.312 270.682 378.337 271.194 379.236 271.851C380.143 272.484 380.865 273.243 381.402 274.127C381.946 274.987 382.268 275.962 382.37 277.051C382.495 278.147 382.355 279.331 381.949 280.601C381.689 281.416 381.368 282.132 380.986 282.75C380.611 283.344 380.18 283.866 379.693 284.318C379.237 284.754 378.732 285.134 378.179 285.459C377.626 285.785 377.041 286.086 376.424 286.365L366.57 290.548L377.86 294.153L376.344 298.898L358.583 293.227L360.409 287.511ZM383.349 287.11C383.831 285.6 384.453 284.108 385.214 282.634C385.999 281.168 386.942 279.911 388.043 278.863C389.168 277.822 390.468 277.101 391.943 276.7C393.425 276.276 395.113 276.366 397.007 276.971C398.9 277.575 400.328 278.48 401.29 279.685C402.26 280.867 402.89 282.204 403.179 283.696C403.493 285.196 403.533 286.767 403.299 288.409C403.089 290.059 402.743 291.639 402.261 293.149C401.778 294.659 401.145 296.147 400.36 297.613C399.599 299.087 398.656 300.344 397.531 301.385C396.43 302.433 395.138 303.17 393.656 303.594C392.181 303.995 390.497 303.893 388.603 303.288C386.71 302.684 385.278 301.791 384.308 300.609C383.346 299.404 382.708 298.052 382.395 296.552C382.105 295.059 382.065 293.488 382.275 291.838C382.509 290.196 382.867 288.62 383.349 287.11ZM388.742 288.832C388.528 289.503 388.295 290.314 388.045 291.264C387.818 292.222 387.699 293.174 387.687 294.121C387.675 295.068 387.837 295.926 388.173 296.693C388.533 297.468 389.205 298.013 390.187 298.327C391.146 298.633 391.997 298.574 392.739 298.151C393.482 297.728 394.123 297.127 394.662 296.348C395.201 295.57 395.644 294.721 395.991 293.801C396.361 292.889 396.653 292.098 396.868 291.427C397.082 290.756 397.302 289.941 397.529 288.983C397.78 288.033 397.911 287.085 397.923 286.138C397.934 285.191 397.76 284.329 397.401 283.554C397.041 282.779 396.381 282.238 395.422 281.932C394.44 281.618 393.577 281.673 392.834 282.096C392.116 282.527 391.487 283.132 390.948 283.91C390.409 284.689 389.954 285.534 389.583 286.446C389.237 287.366 388.957 288.161 388.742 288.832ZM419.787 305.362C420.101 304.379 420.575 303.514 421.21 302.765C421.869 302.025 422.614 301.431 423.443 300.983C424.297 300.542 425.213 300.28 426.191 300.196C427.176 300.088 428.16 300.191 429.143 300.505C430.125 300.818 430.987 301.305 431.727 301.964C432.476 302.599 433.058 303.339 433.474 304.186C433.915 305.039 434.177 305.955 434.261 306.933C434.369 307.918 434.266 308.902 433.952 309.885C433.639 310.868 433.148 311.741 432.482 312.506C431.847 313.254 431.102 313.848 430.248 314.288C429.418 314.737 428.511 315.015 427.526 315.123C426.548 315.207 425.568 315.092 424.585 314.778C423.602 314.464 422.737 313.99 421.989 313.355C421.248 312.696 420.658 311.939 420.217 311.085C419.801 310.239 419.539 309.324 419.431 308.338C419.354 307.337 419.473 306.344 419.787 305.362ZM430.285 308.714C430.591 307.755 430.516 306.833 430.059 305.948C429.626 305.07 428.93 304.478 427.972 304.172C427.013 303.866 426.091 303.941 425.205 304.398C424.344 304.862 423.76 305.574 423.454 306.533C423.14 307.515 423.2 308.446 423.633 309.323C424.089 310.209 424.797 310.805 425.756 311.111C426.715 311.417 427.625 311.338 428.486 310.873C429.372 310.416 429.971 309.697 430.285 308.714ZM405.548 287.543C405.862 286.56 406.337 285.694 406.972 284.946C407.631 284.206 408.375 283.612 409.205 283.164C410.059 282.723 410.974 282.461 411.952 282.377C412.937 282.269 413.921 282.372 414.904 282.686C415.887 282.999 416.748 283.486 417.489 284.145C418.237 284.78 418.819 285.52 419.236 286.367C419.676 287.22 419.939 288.136 420.023 289.114C420.131 290.099 420.028 291.083 419.714 292.066C419.4 293.049 418.914 293.91 418.255 294.651C417.62 295.399 416.875 295.993 416.021 296.433C415.191 296.882 414.284 297.16 413.299 297.268C412.321 297.352 411.341 297.237 410.358 296.923C409.375 296.609 408.51 296.135 407.762 295.5C407.021 294.841 406.431 294.084 405.99 293.23C405.574 292.384 405.312 291.469 405.204 290.483C405.12 289.506 405.234 288.525 405.548 287.543ZM416.047 290.895C416.353 289.936 416.277 289.014 415.821 288.129C415.388 287.251 414.692 286.659 413.733 286.353C412.774 286.047 411.852 286.122 410.967 286.579C410.105 287.043 409.522 287.755 409.216 288.714C408.909 289.672 408.973 290.591 409.406 291.468C409.862 292.354 410.57 292.95 411.529 293.256C412.488 293.562 413.398 293.483 414.259 293.018C415.145 292.561 415.74 291.854 416.047 290.895ZM429.983 286.708L432.463 289.362L409.291 310.687L407.052 308.268L429.983 286.708Z" fill="url(#paint15_linear_1427_11215)"/>
<path d="M358.096 285.584L349.252 282.759L350.629 278.445L359.474 281.269L358.096 285.584ZM360.409 287.511L373.132 281.787C373.78 281.493 374.448 281.138 375.135 280.723C375.822 280.309 376.288 279.718 376.533 278.951C376.809 278.088 376.711 277.318 376.241 276.639C375.779 275.937 375.128 275.452 374.289 275.184C373.283 274.862 372.392 274.921 371.618 275.361C370.868 275.808 370.311 276.476 369.948 277.363L364.682 275.246C365.174 273.951 365.814 272.9 366.599 272.094C367.392 271.265 368.288 270.653 369.285 270.258C370.283 269.863 371.359 269.679 372.513 269.704C373.699 269.713 374.915 269.916 376.161 270.314C377.312 270.682 378.337 271.194 379.236 271.851C380.143 272.484 380.865 273.243 381.402 274.127C381.946 274.987 382.268 275.962 382.37 277.051C382.495 278.147 382.355 279.331 381.949 280.601C381.689 281.416 381.368 282.132 380.986 282.75C380.611 283.344 380.18 283.866 379.693 284.318C379.237 284.754 378.732 285.134 378.179 285.459C377.626 285.785 377.041 286.086 376.424 286.365L366.57 290.548L377.86 294.153L376.344 298.898L358.583 293.227L360.409 287.511ZM383.349 287.11C383.831 285.6 384.453 284.108 385.214 282.634C385.999 281.168 386.942 279.911 388.043 278.863C389.168 277.822 390.468 277.101 391.943 276.7C393.425 276.276 395.113 276.366 397.007 276.971C398.9 277.575 400.328 278.48 401.29 279.685C402.26 280.867 402.89 282.204 403.179 283.696C403.493 285.196 403.533 286.767 403.299 288.409C403.089 290.059 402.743 291.639 402.261 293.149C401.778 294.659 401.145 296.147 400.36 297.613C399.599 299.087 398.656 300.344 397.531 301.385C396.43 302.433 395.138 303.17 393.656 303.594C392.181 303.995 390.497 303.893 388.603 303.288C386.71 302.684 385.278 301.791 384.308 300.609C383.346 299.404 382.708 298.052 382.395 296.552C382.105 295.059 382.065 293.488 382.275 291.838C382.509 290.196 382.867 288.62 383.349 287.11ZM388.742 288.832C388.528 289.503 388.295 290.314 388.045 291.264C387.818 292.222 387.699 293.174 387.687 294.121C387.675 295.068 387.837 295.926 388.173 296.693C388.533 297.468 389.205 298.013 390.187 298.327C391.146 298.633 391.997 298.574 392.739 298.151C393.482 297.728 394.123 297.127 394.662 296.348C395.201 295.57 395.644 294.721 395.991 293.801C396.361 292.889 396.653 292.098 396.868 291.427C397.082 290.756 397.302 289.941 397.529 288.983C397.78 288.033 397.911 287.085 397.923 286.138C397.934 285.191 397.76 284.329 397.401 283.554C397.041 282.779 396.381 282.238 395.422 281.932C394.44 281.618 393.577 281.673 392.834 282.096C392.116 282.527 391.487 283.132 390.948 283.91C390.409 284.689 389.954 285.534 389.583 286.446C389.237 287.366 388.957 288.161 388.742 288.832ZM419.787 305.362C420.101 304.379 420.575 303.514 421.21 302.765C421.869 302.025 422.614 301.431 423.443 300.983C424.297 300.542 425.213 300.28 426.191 300.196C427.176 300.088 428.16 300.191 429.143 300.505C430.125 300.818 430.987 301.305 431.727 301.964C432.476 302.599 433.058 303.339 433.474 304.186C433.915 305.039 434.177 305.955 434.261 306.933C434.369 307.918 434.266 308.902 433.952 309.885C433.639 310.868 433.148 311.741 432.482 312.506C431.847 313.254 431.102 313.848 430.248 314.288C429.418 314.737 428.511 315.015 427.526 315.123C426.548 315.207 425.568 315.092 424.585 314.778C423.602 314.464 422.737 313.99 421.989 313.355C421.248 312.696 420.658 311.939 420.217 311.085C419.801 310.239 419.539 309.324 419.431 308.338C419.354 307.337 419.473 306.344 419.787 305.362ZM430.285 308.714C430.591 307.755 430.516 306.833 430.059 305.948C429.626 305.07 428.93 304.478 427.972 304.172C427.013 303.866 426.091 303.941 425.205 304.398C424.344 304.862 423.76 305.574 423.454 306.533C423.14 307.515 423.2 308.446 423.633 309.323C424.089 310.209 424.797 310.805 425.756 311.111C426.715 311.417 427.625 311.338 428.486 310.873C429.372 310.416 429.971 309.697 430.285 308.714ZM405.548 287.543C405.862 286.56 406.337 285.694 406.972 284.946C407.631 284.206 408.375 283.612 409.205 283.164C410.059 282.723 410.974 282.461 411.952 282.377C412.937 282.269 413.921 282.372 414.904 282.686C415.887 282.999 416.748 283.486 417.489 284.145C418.237 284.78 418.819 285.52 419.236 286.367C419.676 287.22 419.939 288.136 420.023 289.114C420.131 290.099 420.028 291.083 419.714 292.066C419.4 293.049 418.914 293.91 418.255 294.651C417.62 295.399 416.875 295.993 416.021 296.433C415.191 296.882 414.284 297.16 413.299 297.268C412.321 297.352 411.341 297.237 410.358 296.923C409.375 296.609 408.51 296.135 407.762 295.5C407.021 294.841 406.431 294.084 405.99 293.23C405.574 292.384 405.312 291.469 405.204 290.483C405.12 289.506 405.234 288.525 405.548 287.543ZM416.047 290.895C416.353 289.936 416.277 289.014 415.821 288.129C415.388 287.251 414.692 286.659 413.733 286.353C412.774 286.047 411.852 286.122 410.967 286.579C410.105 287.043 409.522 287.755 409.216 288.714C408.909 289.672 408.973 290.591 409.406 291.468C409.862 292.354 410.57 292.95 411.529 293.256C412.488 293.562 413.398 293.483 414.259 293.018C415.145 292.561 415.74 291.854 416.047 290.895ZM429.983 286.708L432.463 289.362L409.291 310.687L407.052 308.268L429.983 286.708Z" fill="url(#paint16_linear_1427_11215)"/>
</g>
<g filter="url(#filter8_d_1427_11215)">
<path d="M243.758 368.11L244.149 359.996L248.108 360.187L247.716 368.301L243.758 368.11ZM254.838 378.99L250.941 374.107L254.309 371.459L260.374 379.389L260.151 384.007L236.797 382.881L237.026 378.131L254.838 378.99ZM248.167 389.803C249.553 389.87 250.954 390.059 252.372 390.37C253.788 390.703 255.064 391.216 256.199 391.91C257.333 392.626 258.235 393.562 258.907 394.719C259.6 395.876 259.905 397.324 259.821 399.061C259.738 400.798 259.295 402.21 258.493 403.295C257.713 404.381 256.725 405.216 255.529 405.797C254.332 406.401 253.013 406.789 251.572 406.962C250.129 407.157 248.716 407.221 247.33 407.154C245.945 407.087 244.544 406.887 243.127 406.554C241.71 406.244 240.434 405.73 239.3 405.014C238.165 404.32 237.251 403.395 236.558 402.237C235.886 401.08 235.592 399.634 235.676 397.896C235.76 396.159 236.192 394.747 236.971 393.661C237.773 392.575 238.773 391.731 239.97 391.127C241.166 390.546 242.485 390.158 243.927 389.963C245.369 389.79 246.782 389.737 248.167 389.803ZM247.928 394.751C247.313 394.722 246.575 394.708 245.715 394.711C244.854 394.735 244.022 394.849 243.219 395.053C242.416 395.257 241.728 395.587 241.154 396.045C240.58 396.524 240.271 397.214 240.228 398.116C240.186 398.996 240.427 399.701 240.952 400.234C241.478 400.766 242.13 401.172 242.91 401.452C243.69 401.732 244.508 401.915 245.364 402C246.218 402.108 246.953 402.176 247.569 402.206C248.185 402.236 248.923 402.238 249.784 402.214C250.643 402.211 251.475 402.108 252.278 401.904C253.082 401.7 253.77 401.359 254.345 400.88C254.919 400.4 255.227 399.721 255.269 398.841C255.313 397.94 255.072 397.223 254.547 396.691C254.02 396.18 253.367 395.785 252.587 395.505C251.807 395.225 250.99 395.031 250.135 394.924C249.28 394.838 248.544 394.781 247.928 394.751ZM240.961 424.727C241.863 424.77 242.702 424.976 243.477 425.344C244.252 425.734 244.922 426.229 245.489 426.83C246.054 427.452 246.482 428.167 246.774 428.975C247.087 429.783 247.223 430.638 247.179 431.54C247.136 432.442 246.919 433.28 246.529 434.054C246.161 434.83 245.666 435.49 245.045 436.033C244.422 436.598 243.707 437.026 242.9 437.318C242.091 437.631 241.236 437.767 240.334 437.723C239.433 437.68 238.584 437.462 237.787 437.071C237.011 436.703 236.341 436.208 235.776 435.586C235.21 434.985 234.77 434.281 234.456 433.472C234.164 432.665 234.04 431.81 234.084 430.908C234.127 430.007 234.333 429.168 234.701 428.392C235.091 427.618 235.597 426.948 236.22 426.383C236.841 425.839 237.556 425.411 238.365 425.097C239.194 424.807 240.06 424.683 240.961 424.727ZM240.497 434.359C241.376 434.401 242.139 434.129 242.784 433.543C243.429 432.979 243.772 432.257 243.815 431.378C243.857 430.498 243.585 429.736 242.999 429.09C242.412 428.467 241.679 428.134 240.799 428.091C239.897 428.048 239.124 428.308 238.48 428.872C237.835 429.458 237.491 430.191 237.448 431.071C237.406 431.95 237.678 432.702 238.265 433.325C238.851 433.971 239.595 434.315 240.497 434.359ZM252.812 408.668C253.713 408.711 254.552 408.917 255.328 409.285C256.102 409.675 256.773 410.17 257.339 410.771C257.904 411.393 258.333 412.108 258.624 412.916C258.938 413.724 259.073 414.579 259.03 415.481C258.986 416.383 258.769 417.221 258.379 417.996C258.011 418.771 257.517 419.431 256.895 419.974C256.273 420.539 255.558 420.967 254.75 421.259C253.942 421.573 253.087 421.708 252.185 421.664C251.283 421.621 250.445 421.404 249.67 421.014C248.895 420.646 248.224 420.151 247.659 419.528C247.093 418.928 246.653 418.223 246.339 417.415C246.048 416.607 245.924 415.753 245.967 414.851C246.011 413.949 246.216 413.111 246.584 412.335C246.974 411.56 247.481 410.89 248.103 410.325C248.724 409.782 249.439 409.354 250.248 409.04C251.056 408.749 251.91 408.624 252.812 408.668ZM252.347 418.3C253.227 418.342 253.989 418.07 254.635 417.484C255.279 416.92 255.623 416.198 255.665 415.319C255.707 414.439 255.436 413.677 254.85 413.031C254.262 412.408 253.529 412.075 252.649 412.032C251.77 411.99 251.008 412.251 250.364 412.815C249.718 413.401 249.374 414.134 249.332 415.013C249.289 415.893 249.562 416.645 250.149 417.268C250.735 417.913 251.468 418.257 252.347 418.3ZM259.032 429.136L257.348 431.832L234.091 417.056L235.63 414.617L259.032 429.136Z" fill="url(#paint17_linear_1427_11215)"/>
<path d="M243.758 368.11L244.149 359.996L248.108 360.187L247.716 368.301L243.758 368.11ZM254.838 378.99L250.941 374.107L254.309 371.459L260.374 379.389L260.151 384.007L236.797 382.881L237.026 378.131L254.838 378.99ZM248.167 389.803C249.553 389.87 250.954 390.059 252.372 390.37C253.788 390.703 255.064 391.216 256.199 391.91C257.333 392.626 258.235 393.562 258.907 394.719C259.6 395.876 259.905 397.324 259.821 399.061C259.738 400.798 259.295 402.21 258.493 403.295C257.713 404.381 256.725 405.216 255.529 405.797C254.332 406.401 253.013 406.789 251.572 406.962C250.129 407.157 248.716 407.221 247.33 407.154C245.945 407.087 244.544 406.887 243.127 406.554C241.71 406.244 240.434 405.73 239.3 405.014C238.165 404.32 237.251 403.395 236.558 402.237C235.886 401.08 235.592 399.634 235.676 397.896C235.76 396.159 236.192 394.747 236.971 393.661C237.773 392.575 238.773 391.731 239.97 391.127C241.166 390.546 242.485 390.158 243.927 389.963C245.369 389.79 246.782 389.737 248.167 389.803ZM247.928 394.751C247.313 394.722 246.575 394.708 245.715 394.711C244.854 394.735 244.022 394.849 243.219 395.053C242.416 395.257 241.728 395.587 241.154 396.045C240.58 396.524 240.271 397.214 240.228 398.116C240.186 398.996 240.427 399.701 240.952 400.234C241.478 400.766 242.13 401.172 242.91 401.452C243.69 401.732 244.508 401.915 245.364 402C246.218 402.108 246.953 402.176 247.569 402.206C248.185 402.236 248.923 402.238 249.784 402.214C250.643 402.211 251.475 402.108 252.278 401.904C253.082 401.7 253.77 401.359 254.345 400.88C254.919 400.4 255.227 399.721 255.269 398.841C255.313 397.94 255.072 397.223 254.547 396.691C254.02 396.18 253.367 395.785 252.587 395.505C251.807 395.225 250.99 395.031 250.135 394.924C249.28 394.838 248.544 394.781 247.928 394.751ZM240.961 424.727C241.863 424.77 242.702 424.976 243.477 425.344C244.252 425.734 244.922 426.229 245.489 426.83C246.054 427.452 246.482 428.167 246.774 428.975C247.087 429.783 247.223 430.638 247.179 431.54C247.136 432.442 246.919 433.28 246.529 434.054C246.161 434.83 245.666 435.49 245.045 436.033C244.422 436.598 243.707 437.026 242.9 437.318C242.091 437.631 241.236 437.767 240.334 437.723C239.433 437.68 238.584 437.462 237.787 437.071C237.011 436.703 236.341 436.208 235.776 435.586C235.21 434.985 234.77 434.281 234.456 433.472C234.164 432.665 234.04 431.81 234.084 430.908C234.127 430.007 234.333 429.168 234.701 428.392C235.091 427.618 235.597 426.948 236.22 426.383C236.841 425.839 237.556 425.411 238.365 425.097C239.194 424.807 240.06 424.683 240.961 424.727ZM240.497 434.359C241.376 434.401 242.139 434.129 242.784 433.543C243.429 432.979 243.772 432.257 243.815 431.378C243.857 430.498 243.585 429.736 242.999 429.09C242.412 428.467 241.679 428.134 240.799 428.091C239.897 428.048 239.124 428.308 238.48 428.872C237.835 429.458 237.491 430.191 237.448 431.071C237.406 431.95 237.678 432.702 238.265 433.325C238.851 433.971 239.595 434.315 240.497 434.359ZM252.812 408.668C253.713 408.711 254.552 408.917 255.328 409.285C256.102 409.675 256.773 410.17 257.339 410.771C257.904 411.393 258.333 412.108 258.624 412.916C258.938 413.724 259.073 414.579 259.03 415.481C258.986 416.383 258.769 417.221 258.379 417.996C258.011 418.771 257.517 419.431 256.895 419.974C256.273 420.539 255.558 420.967 254.75 421.259C253.942 421.573 253.087 421.708 252.185 421.664C251.283 421.621 250.445 421.404 249.67 421.014C248.895 420.646 248.224 420.151 247.659 419.528C247.093 418.928 246.653 418.223 246.339 417.415C246.048 416.607 245.924 415.753 245.967 414.851C246.011 413.949 246.216 413.111 246.584 412.335C246.974 411.56 247.481 410.89 248.103 410.325C248.724 409.782 249.439 409.354 250.248 409.04C251.056 408.749 251.91 408.624 252.812 408.668ZM252.347 418.3C253.227 418.342 253.989 418.07 254.635 417.484C255.279 416.92 255.623 416.198 255.665 415.319C255.707 414.439 255.436 413.677 254.85 413.031C254.262 412.408 253.529 412.075 252.649 412.032C251.77 411.99 251.008 412.251 250.364 412.815C249.718 413.401 249.374 414.134 249.332 415.013C249.289 415.893 249.562 416.645 250.149 417.268C250.735 417.913 251.468 418.257 252.347 418.3ZM259.032 429.136L257.348 431.832L234.091 417.056L235.63 414.617L259.032 429.136Z" fill="url(#paint18_linear_1427_11215)"/>
</g>
<g filter="url(#filter9_d_1427_11215)">
<path d="M156.245 271.275L167.749 265.742L170.448 271.354L158.944 276.887L156.245 271.275ZM159.878 288.876C160.613 290.403 160.97 291.864 160.948 293.256C160.911 294.694 160.573 296.028 159.935 297.256C159.281 298.53 158.374 299.677 157.213 300.696C156.052 301.714 154.708 302.591 153.18 303.326C151.653 304.061 150.129 304.563 148.608 304.834C147.087 305.105 145.641 305.09 144.268 304.791C142.911 304.522 141.658 303.954 140.511 303.085C139.379 302.247 138.445 301.065 137.711 299.537C136.841 297.729 136.597 295.945 136.98 294.187C137.332 292.444 138.269 290.88 139.791 289.495L139.746 289.402C137.496 289.832 135.504 289.6 133.769 288.707C132.049 287.845 130.694 286.385 129.704 284.327C128.94 282.737 128.592 281.176 128.662 279.646C128.701 278.13 129.071 276.704 129.773 275.369C130.458 274.079 131.404 272.895 132.612 271.815C133.821 270.734 135.188 269.827 136.716 269.092C138.244 268.358 139.807 267.855 141.405 267.586C143.003 267.317 144.535 267.309 146.001 267.564C147.451 267.865 148.795 268.466 150.035 269.367C151.243 270.283 152.23 271.536 152.995 273.126C153.984 275.184 154.279 277.153 153.879 279.035C153.493 280.948 152.43 282.649 150.69 284.139L150.735 284.232C152.767 283.908 154.589 284.145 156.202 284.943C157.783 285.757 159.009 287.067 159.878 288.876ZM152.391 291.267C151.896 290.239 151.102 289.546 150.009 289.188C148.916 288.831 147.761 288.945 146.545 289.53C145.329 290.114 144.52 290.945 144.116 292.022C143.713 293.099 143.759 294.152 144.253 295.181C144.733 296.179 145.52 296.856 146.613 297.213C147.706 297.571 148.861 297.457 150.076 296.872C151.292 296.287 152.102 295.456 152.506 294.379C152.909 293.302 152.871 292.265 152.391 291.267ZM146.452 277.482C145.897 276.328 145.004 275.549 143.772 275.143C142.54 274.737 141.223 274.871 139.82 275.546C138.417 276.221 137.49 277.166 137.038 278.382C136.586 279.597 136.637 280.782 137.192 281.935C137.762 283.12 138.662 283.915 139.894 284.321C141.126 284.727 142.443 284.592 143.846 283.918C145.249 283.243 146.177 282.298 146.629 281.082C147.081 279.867 147.022 278.667 146.452 277.482ZM129.571 293.605C130.516 295.569 131.304 297.647 131.936 299.838C132.536 302.045 132.782 304.192 132.672 306.279C132.532 308.381 131.914 310.329 130.819 312.123C129.738 313.948 127.967 315.452 125.504 316.637C123.041 317.821 120.759 318.266 118.659 317.971C116.574 317.707 114.682 316.966 112.983 315.748C111.253 314.545 109.73 313.013 108.412 311.152C107.063 309.305 105.916 307.4 104.972 305.435C104.027 303.471 103.254 301.386 102.654 299.179C102.022 296.988 101.777 294.841 101.917 292.739C102.027 290.651 102.622 288.695 103.702 286.87C104.797 285.077 106.576 283.588 109.039 282.403C111.502 281.219 113.776 280.758 115.861 281.022C117.961 281.318 119.876 282.067 121.606 283.269C123.305 284.487 124.829 286.019 126.178 287.866C127.496 289.727 128.627 291.64 129.571 293.605ZM122.556 296.978C122.136 296.105 121.603 295.076 120.956 293.89C120.277 292.719 119.497 291.655 118.614 290.697C117.731 289.74 116.76 289.036 115.699 288.587C114.607 288.152 113.422 288.242 112.143 288.857C110.896 289.457 110.102 290.319 109.759 291.443C109.417 292.568 109.344 293.773 109.541 295.061C109.738 296.348 110.098 297.615 110.62 298.861C111.111 300.122 111.567 301.189 111.987 302.062C112.407 302.935 112.956 303.957 113.634 305.127C114.281 306.313 115.046 307.385 115.929 308.343C116.812 309.3 117.799 309.996 118.891 310.431C119.983 310.865 121.153 310.783 122.4 310.183C123.678 309.568 124.488 308.699 124.831 307.574C125.142 306.465 125.199 305.267 125.002 303.979C124.805 302.692 124.461 301.418 123.97 300.157C123.447 298.911 122.976 297.851 122.556 296.978ZM75.9239 309.789C76.5387 311.067 76.8822 312.38 76.9543 313.727C76.9953 315.09 76.8129 316.387 76.4071 317.618C75.9701 318.865 75.3029 319.992 74.4054 321C73.5229 322.038 72.4425 322.865 71.1642 323.48C69.8859 324.095 68.5656 324.422 67.2032 324.463C65.8559 324.536 64.5745 324.346 63.359 323.894C62.1123 323.457 60.9853 322.789 59.9778 321.892C58.9391 321.009 58.1124 319.929 57.4976 318.651C56.8828 317.372 56.5474 316.037 56.4915 314.643C56.4194 313.296 56.6018 311.999 57.0387 310.752C57.4445 309.52 58.0886 308.385 58.9711 307.347C59.8686 306.339 60.9565 305.528 62.2348 304.913C63.5131 304.298 64.826 303.955 66.1733 303.883C67.5356 303.842 68.8401 304.04 70.0868 304.477C71.3023 304.929 72.4294 305.596 73.468 306.478C74.4905 307.407 75.3091 308.511 75.9239 309.789ZM62.2679 316.357C62.8677 317.604 63.814 318.454 65.1068 318.907C66.3685 319.375 67.6229 319.309 68.87 318.71C70.1171 318.11 70.9673 317.163 71.4204 315.871C71.8424 314.593 71.7534 313.33 71.1537 312.083C70.5389 310.805 69.6006 309.932 68.339 309.463C67.0461 309.01 65.7762 309.084 64.529 309.683C63.2819 310.283 62.4474 311.222 62.0254 312.5C61.5723 313.793 61.6531 315.078 62.2679 316.357ZM106.983 314.142C107.598 315.421 107.941 316.734 108.013 318.081C108.054 319.443 107.872 320.74 107.466 321.972C107.029 323.219 106.362 324.346 105.464 325.353C104.582 326.392 103.501 327.218 102.223 327.833C100.945 328.448 99.6244 328.776 98.2621 328.817C96.9147 328.889 95.6333 328.699 94.4178 328.247C93.1712 327.81 92.0441 327.143 91.0366 326.246C89.9979 325.363 89.1712 324.283 88.5564 323.004C87.9416 321.726 87.6138 320.406 87.5728 319.043C87.5007 317.696 87.6831 316.399 88.12 315.152C88.5258 313.921 89.1699 312.785 90.0524 311.747C90.9499 310.739 92.0378 309.928 93.3161 309.313C94.5945 308.699 95.9073 308.355 97.2546 308.283C98.6169 308.242 99.9214 308.44 101.168 308.877C102.384 309.329 103.511 309.996 104.549 310.879C105.557 311.776 106.368 312.864 106.983 314.142ZM93.3267 320.71C93.9265 321.957 94.8728 322.807 96.1656 323.261C97.4273 323.729 98.6817 323.663 99.9288 323.063C101.176 322.463 102.026 321.517 102.479 320.224C102.901 318.946 102.812 317.684 102.212 316.437C101.613 315.189 100.682 314.332 99.4203 313.864C98.1275 313.411 96.8575 313.484 95.6103 314.084C94.3632 314.683 93.5287 315.622 93.1067 316.9C92.6536 318.193 92.7269 319.463 93.3267 320.71ZM83.358 338.058L78.3724 337.749L81.3805 294.554L85.902 294.855L83.358 338.058Z" fill="url(#paint19_linear_1427_11215)"/>
</g>
<defs>
<filter id="filter0_d_1427_11215" x="233.33" y="1.0401" width="25.8322" height="25.8322" filterUnits="userSpaceOnUse" color-interpolation-filters="sRGB">
<feFlood flood-opacity="0" result="BackgroundImageFix"/>
<feColorMatrix in="SourceAlpha" type="matrix" values="0 0 0 0 0 0 0 0 0 0 0 0 0 0 0 0 0 0 127 0" result="hardAlpha"/>
<feOffset dy="4.24594"/>
<feGaussianBlur stdDeviation="2.59474"/>
<feComposite in2="hardAlpha" operator="out"/>
<feColorMatrix type="matrix" values="0 0 0 0 0.304451 0 0 0 0 0 0 0 0 0 0 0 0 0 0.6 0"/>
<feBlend mode="normal" in2="BackgroundImageFix" result="effect1_dropShadow_1427_11215"/>
<feBlend mode="normal" in="SourceGraphic" in2="effect1_dropShadow_1427_11215" result="shape"/>
</filter>
<filter id="filter1_d_1427_11215" x="372.409" y="426.972" width="25.8322" height="25.8322" filterUnits="userSpaceOnUse" color-interpolation-filters="sRGB">
<feFlood flood-opacity="0" result="BackgroundImageFix"/>
<feColorMatrix in="SourceAlpha" type="matrix" values="0 0 0 0 0 0 0 0 0 0 0 0 0 0 0 0 0 0 127 0" result="hardAlpha"/>
<feOffset dy="4.24594"/>
<feGaussianBlur stdDeviation="2.59474"/>
<feComposite in2="hardAlpha" operator="out"/>
<feColorMatrix type="matrix" values="0 0 0 0 0.304451 0 0 0 0 0 0 0 0 0 0 0 0 0 0.6 0"/>
<feBlend mode="normal" in2="BackgroundImageFix" result="effect1_dropShadow_1427_11215"/>
<feBlend mode="normal" in="SourceGraphic" in2="effect1_dropShadow_1427_11215" result="shape"/>
</filter>
<filter id="filter2_d_1427_11215" x="457.402" y="162.334" width="25.8322" height="25.8322" filterUnits="userSpaceOnUse" color-interpolation-filters="sRGB">
<feFlood flood-opacity="0" result="BackgroundImageFix"/>
<feColorMatrix in="SourceAlpha" type="matrix" values="0 0 0 0 0 0 0 0 0 0 0 0 0 0 0 0 0 0 127 0" result="hardAlpha"/>
<feOffset dy="4.24594"/>
<feGaussianBlur stdDeviation="2.59474"/>
<feComposite in2="hardAlpha" operator="out"/>
<feColorMatrix type="matrix" values="0 0 0 0 0.304451 0 0 0 0 0 0 0 0 0 0 0 0 0 0.6 0"/>
<feBlend mode="normal" in2="BackgroundImageFix" result="effect1_dropShadow_1427_11215"/>
<feBlend mode="normal" in="SourceGraphic" in2="effect1_dropShadow_1427_11215" result="shape"/>
</filter>
<filter id="filter3_d_1427_11215" x="10.2224" y="164.266" width="25.8322" height="25.8322" filterUnits="userSpaceOnUse" color-interpolation-filters="sRGB">
<feFlood flood-opacity="0" result="BackgroundImageFix"/>
<feColorMatrix in="SourceAlpha" type="matrix" values="0 0 0 0 0 0 0 0 0 0 0 0 0 0 0 0 0 0 127 0" result="hardAlpha"/>
<feOffset dy="4.24594"/>
<feGaussianBlur stdDeviation="2.59474"/>
<feComposite in2="hardAlpha" operator="out"/>
<feColorMatrix type="matrix" values="0 0 0 0 0.304451 0 0 0 0 0 0 0 0 0 0 0 0 0 0.6 0"/>
<feBlend mode="normal" in2="BackgroundImageFix" result="effect1_dropShadow_1427_11215"/>
<feBlend mode="normal" in="SourceGraphic" in2="effect1_dropShadow_1427_11215" result="shape"/>
</filter>
<filter id="filter4_d_1427_11215" x="95.2155" y="425.04" width="25.8322" height="25.8322" filterUnits="userSpaceOnUse" color-interpolation-filters="sRGB">
<feFlood flood-opacity="0" result="BackgroundImageFix"/>
<feColorMatrix in="SourceAlpha" type="matrix" values="0 0 0 0 0 0 0 0 0 0 0 0 0 0 0 0 0 0 127 0" result="hardAlpha"/>
<feOffset dy="4.24594"/>
<feGaussianBlur stdDeviation="2.59474"/>
<feComposite in2="hardAlpha" operator="out"/>
<feColorMatrix type="matrix" values="0 0 0 0 0.304451 0 0 0 0 0 0 0 0 0 0 0 0 0 0.6 0"/>
<feBlend mode="normal" in2="BackgroundImageFix" result="effect1_dropShadow_1427_11215"/>
<feBlend mode="normal" in="SourceGraphic" in2="effect1_dropShadow_1427_11215" result="shape"/>
</filter>
<filter id="filter5_d_1427_11215" x="122.578" y="83.0433" width="71.1591" height="85.6012" filterUnits="userSpaceOnUse" color-interpolation-filters="sRGB">
<feFlood flood-opacity="0" result="BackgroundImageFix"/>
<feColorMatrix in="SourceAlpha" type="matrix" values="0 0 0 0 0 0 0 0 0 0 0 0 0 0 0 0 0 0 127 0" result="hardAlpha"/>
<feOffset dy="3.51803"/>
<feGaussianBlur stdDeviation="1.64175"/>
<feComposite in2="hardAlpha" operator="out"/>
<feColorMatrix type="matrix" values="0 0 0 0 0 0 0 0 0 0 0 0 0 0 0 0 0 0 0.25 0"/>
<feBlend mode="normal" in2="BackgroundImageFix" result="effect1_dropShadow_1427_11215"/>
<feBlend mode="normal" in="SourceGraphic" in2="effect1_dropShadow_1427_11215" result="shape"/>
</filter>
<filter id="filter6_d_1427_11215" x="268.938" y="70.1448" width="119.524" height="129.917" filterUnits="userSpaceOnUse" color-interpolation-filters="sRGB">
<feFlood flood-opacity="0" result="BackgroundImageFix"/>
<feColorMatrix in="SourceAlpha" type="matrix" values="0 0 0 0 0 0 0 0 0 0 0 0 0 0 0 0 0 0 127 0" result="hardAlpha"/>
<feOffset dy="4.24594"/>
<feGaussianBlur stdDeviation="2.59474"/>
<feComposite in2="hardAlpha" operator="out"/>
<feColorMatrix type="matrix" values="0 0 0 0 0.304451 0 0 0 0 0 0 0 0 0 0 0 0 0 0.6 0"/>
<feBlend mode="normal" in2="BackgroundImageFix" result="effect1_dropShadow_1427_11215"/>
<feBlend mode="normal" in="SourceGraphic" in2="effect1_dropShadow_1427_11215" result="shape"/>
</filter>
<filter id="filter7_d_1427_11215" x="343.431" y="262.949" width="100.154" height="61.6111" filterUnits="userSpaceOnUse" color-interpolation-filters="sRGB">
<feFlood flood-opacity="0" result="BackgroundImageFix"/>
<feColorMatrix in="SourceAlpha" type="matrix" values="0 0 0 0 0 0 0 0 0 0 0 0 0 0 0 0 0 0 127 0" result="hardAlpha"/>
<feOffset dy="3.51803"/>
<feGaussianBlur stdDeviation="1.64175"/>
<feComposite in2="hardAlpha" operator="out"/>
<feColorMatrix type="matrix" values="0 0 0 0 0 0 0 0 0 0 0 0 0 0 0 0 0 0 0.25 0"/>
<feBlend mode="normal" in2="BackgroundImageFix" result="effect1_dropShadow_1427_11215"/>
<feBlend mode="normal" in="SourceGraphic" in2="effect1_dropShadow_1427_11215" result="shape"/>
</filter>
<filter id="filter8_d_1427_11215" x="229.827" y="359.644" width="35.781" height="85.7603" filterUnits="userSpaceOnUse" color-interpolation-filters="sRGB">
<feFlood flood-opacity="0" result="BackgroundImageFix"/>
<feColorMatrix in="SourceAlpha" type="matrix" values="0 0 0 0 0 0 0 0 0 0 0 0 0 0 0 0 0 0 127 0" result="hardAlpha"/>
<feOffset dy="3.51803"/>
<feGaussianBlur stdDeviation="1.64175"/>
<feComposite in2="hardAlpha" operator="out"/>
<feColorMatrix type="matrix" values="0 0 0 0 0 0 0 0 0 0 0 0 0 0 0 0 0 0 0.25 0"/>
<feBlend mode="normal" in2="BackgroundImageFix" result="effect1_dropShadow_1427_11215"/>
<feBlend mode="normal" in="SourceGraphic" in2="effect1_dropShadow_1427_11215" result="shape"/>
</filter>
<filter id="filter9_d_1427_11215" x="49.2883" y="255.406" width="134.138" height="95.9083" filterUnits="userSpaceOnUse" color-interpolation-filters="sRGB">
<feFlood flood-opacity="0" result="BackgroundImageFix"/>
<feColorMatrix in="SourceAlpha" type="matrix" values="0 0 0 0 0 0 0 0 0 0 0 0 0 0 0 0 0 0 127 0" result="hardAlpha"/>
<feOffset dy="3.51803"/>
<feGaussianBlur stdDeviation="1.64175"/>
<feComposite in2="hardAlpha" operator="out"/>
<feColorMatrix type="matrix" values="0 0 0 0 0 0 0 0 0 0 0 0 0 0 0 0 0 0 0.25 0"/>
<feBlend mode="normal" in2="BackgroundImageFix" result="effect1_dropShadow_1427_11215"/>
<feBlend mode="normal" in="SourceGraphic" in2="effect1_dropShadow_1427_11215" result="shape"/>
</filter>
<linearGradient id="paint0_linear_1427_11215" x1="246.247" y1="0.0556641" x2="246.247" y2="490.698" gradientUnits="userSpaceOnUse">
<stop stop-color="#3E1F80"/>
<stop offset="0.0933267" stop-color="#653DB9"/>
<stop offset="0.369385" stop-color="#3E1F80"/>
<stop offset="0.494392" stop-color="#653DB9"/>
<stop offset="0.624608" stop-color="#3E1F80"/>
<stop offset="1" stop-color="#3E1F80"/>
</linearGradient>
<radialGradient id="paint1_radial_1427_11215" cx="0" cy="0" r="1" gradientUnits="userSpaceOnUse" gradientTransform="translate(246.247 245.377) rotate(90) scale(235.886)">
<stop stop-color="#8951FF"/>
<stop offset="1" stop-color="#4E1ABC"/>
</radialGradient>
<radialGradient id="paint2_radial_1427_11215" cx="0" cy="0" r="1" gradientUnits="userSpaceOnUse" gradientTransform="translate(246.247 245.377) rotate(90) scale(235.886)">
<stop stop-color="#FFCC48"/>
<stop offset="1" stop-color="#F73333"/>
</radialGradient>
<radialGradient id="paint3_radial_1427_11215" cx="0" cy="0" r="1" gradientUnits="userSpaceOnUse" gradientTransform="translate(246.247 245.377) rotate(90) scale(235.886)">
<stop stop-color="#622ECF"/>
<stop offset="1" stop-color="#4E1ABC"/>
</radialGradient>
<radialGradient id="paint4_radial_1427_11215" cx="0" cy="0" r="1" gradientUnits="userSpaceOnUse" gradientTransform="translate(246.247 245.377) rotate(90) scale(235.886)">
<stop stop-color="#5162FF"/>
<stop offset="1" stop-color="#4E1ABC"/>
</radialGradient>
<radialGradient id="paint5_radial_1427_11215" cx="0" cy="0" r="1" gradientUnits="userSpaceOnUse" gradientTransform="translate(246.247 245.377) rotate(90) scale(235.886)">
<stop stop-color="#FFF5DC"/>
<stop offset="1" stop-color="#FFB800"/>
</radialGradient>
<linearGradient id="paint6_linear_1427_11215" x1="267.342" y1="129.295" x2="406.41" y2="98.7754" gradientUnits="userSpaceOnUse">
<stop stop-color="white"/>
<stop offset="1" stop-color="white"/>
</linearGradient>
<linearGradient id="paint7_linear_1427_11215" x1="239.952" y1="5.46095" x2="254.333" y2="5.90869" gradientUnits="userSpaceOnUse">
<stop stop-color="white"/>
<stop offset="1" stop-color="white"/>
</linearGradient>
<linearGradient id="paint8_linear_1427_11215" x1="379.031" y1="431.393" x2="393.413" y2="431.84" gradientUnits="userSpaceOnUse">
<stop stop-color="white"/>
<stop offset="1" stop-color="white"/>
</linearGradient>
<linearGradient id="paint9_linear_1427_11215" x1="464.024" y1="166.755" x2="478.406" y2="167.203" gradientUnits="userSpaceOnUse">
<stop stop-color="white"/>
<stop offset="1" stop-color="white"/>
</linearGradient>
<linearGradient id="paint10_linear_1427_11215" x1="16.8444" y1="168.686" x2="31.2259" y2="169.134" gradientUnits="userSpaceOnUse">
<stop stop-color="white"/>
<stop offset="1" stop-color="white"/>
</linearGradient>
<linearGradient id="paint11_linear_1427_11215" x1="101.838" y1="429.461" x2="116.219" y2="429.909" gradientUnits="userSpaceOnUse">
<stop stop-color="white"/>
<stop offset="1" stop-color="white"/>
</linearGradient>
<linearGradient id="paint12_linear_1427_11215" x1="167.021" y1="155.654" x2="129.392" y2="92.5373" gradientUnits="userSpaceOnUse">
<stop stop-color="#EFDDFF"/>
<stop offset="1" stop-color="#BA85E9"/>
</linearGradient>
<linearGradient id="paint13_linear_1427_11215" x1="167.021" y1="155.654" x2="129.392" y2="92.5373" gradientUnits="userSpaceOnUse">
<stop stop-color="#FFFCDE"/>
<stop offset="1" stop-color="#FFBA07"/>
</linearGradient>
<linearGradient id="paint14_linear_1427_11215" x1="282.445" y1="158.696" x2="361.085" y2="74.3193" gradientUnits="userSpaceOnUse">
<stop stop-color="white"/>
<stop offset="1" stop-color="white"/>
</linearGradient>
<linearGradient id="paint15_linear_1427_11215" x1="361.78" y1="266.641" x2="440.894" y2="296.737" gradientUnits="userSpaceOnUse">
<stop stop-color="#EFDDFF"/>
<stop offset="1" stop-color="#BA85E9"/>
</linearGradient>
<linearGradient id="paint16_linear_1427_11215" x1="361.78" y1="266.641" x2="440.894" y2="296.737" gradientUnits="userSpaceOnUse">
<stop stop-color="#FFFCDE"/>
<stop offset="1" stop-color="#FFBA07"/>
</linearGradient>
<linearGradient id="paint17_linear_1427_11215" x1="260.454" y1="367.197" x2="252.914" y2="440.291" gradientUnits="userSpaceOnUse">
<stop stop-color="#EFDDFF"/>
<stop offset="1" stop-color="#BA85E9"/>
</linearGradient>
<linearGradient id="paint18_linear_1427_11215" x1="260.454" y1="367.197" x2="252.914" y2="440.291" gradientUnits="userSpaceOnUse">
<stop stop-color="#FFFCDE"/>
<stop offset="1" stop-color="#FFBA07"/>
</linearGradient>
<linearGradient id="paint19_linear_1427_11215" x1="169.986" y1="293.756" x2="63.48" y2="338.03" gradientUnits="userSpaceOnUse">
<stop stop-color="#FFFCDE"/>
<stop offset="1" stop-color="#FFBA07"/>
</linearGradient>
</defs>
</svg>
