<svg width="466" height="644" viewBox="0 0 466 644" fill="none" xmlns="http://www.w3.org/2000/svg">
<g filter="url(#filter0_f_1427_11258)">
<circle cx="191.683" cy="223.596" r="6.59874" fill="white"/>
</g>
<circle cx="191.683" cy="223.596" r="6.59874" fill="white"/>
<g filter="url(#filter1_f_1427_11258)">
<circle cx="365.133" cy="430.985" r="6.59874" fill="white"/>
</g>
<circle cx="365.133" cy="430.985" r="6.59874" fill="white"/>
<g filter="url(#filter2_f_1427_11258)">
<circle cx="176.598" cy="276.386" r="6.59874" fill="white"/>
</g>
<circle cx="176.598" cy="276.386" r="6.59874" fill="white"/>
<g filter="url(#filter3_f_1427_11258)">
<circle cx="275.579" cy="195.315" r="6.59874" fill="white"/>
</g>
<circle cx="275.579" cy="195.315" r="6.59874" fill="white"/>
<g filter="url(#filter4_f_1427_11258)">
<circle cx="305.746" cy="253.761" r="6.59874" fill="white"/>
</g>
<circle cx="305.746" cy="253.761" r="6.59874" fill="white"/>
<path d="M466 691.289C463.488 698.635 460.58 704.516 457.235 708.277C432.115 736.531 356.757 674.725 356.757 674.725C356.757 674.725 367.638 668.262 389.399 673.878C364.253 663.918 327.671 577.603 327.671 577.603C327.671 577.603 327.671 577.603 348.825 570.539C315.773 547.583 280.077 413.377 280.077 413.377C280.077 413.377 288.009 413.377 322.383 413.377C296.153 404.618 263.405 286.34 262.903 284.486C263.405 284.751 274.841 291.037 277.432 268.575C255.301 236.825 232.352 118.726 232.352 118.726C232.352 118.726 232.566 95.2702 243.164 107.387C246.271 109.665 247.91 115.192 250.079 119.766C252.366 123.898 255.195 127.059 258.989 128.365C259.849 148.832 264.621 161.829 277.578 176.662C276.309 183.443 277.075 190.683 278.49 196.916C279.706 201.437 281.081 205.728 281.703 207.6C281.716 207.635 281.729 207.653 281.729 207.688C288.71 226.636 289.463 228.932 280.923 207.088C283.831 214.734 286.118 220.738 287.745 224.835C289.45 229.108 290.442 231.28 290.825 230.309C290.785 230.786 290.706 231.051 290.587 231.139C291.618 232.534 292.61 233.134 293.668 232.569C293.707 233.276 293.76 233.947 293.8 234.565C294.143 234.318 294.487 233.929 294.844 233.417C294.831 234.194 294.818 234.918 294.791 235.589C295.413 235.483 296.074 235.183 296.774 234.653C296.629 244.348 297.422 249.345 302.843 241.84C300.86 253.142 303.491 251.959 309.175 243.977C305.923 257.68 305.289 263.56 314.239 253.654C307.84 266.845 311.04 264.267 319.091 255.208C311.859 266.35 309.479 271.03 320.122 262.077C311.529 274.756 315.958 273.802 327.05 268.681C318.271 279.065 315.521 284.663 328.954 281.396C317.795 292.538 322.819 294.816 335.273 295.434C334.903 295.717 334.546 295.982 334.202 296.247C334.652 296.158 335.128 296.052 335.604 295.946C334.665 296.388 333.793 296.829 332.986 297.236C331.651 298.313 330.527 299.319 329.668 300.132C331.426 300.096 333.634 299.902 336.185 299.655C331.73 301.792 328.716 303.61 328.438 302.498C328.398 302.692 328.359 302.869 328.346 303.045C329.496 303.451 331.426 303.434 334.282 302.957C332.246 304.246 330.699 305.288 329.628 305.906C329.615 306.189 329.602 306.453 329.588 306.718C329.76 306.771 329.945 306.807 330.144 306.824C331.294 306.93 332.973 306.471 335.3 305.394C333.938 306.718 332.814 307.831 331.889 308.661C333.026 308.467 334.414 307.954 336.053 307.054C335.366 308.131 334.731 309.12 334.163 310.003C334.268 309.985 334.361 309.95 334.467 309.897C335.181 309.402 335.987 308.855 336.899 308.255C336.45 308.643 336.014 309.014 335.617 309.385C336.463 308.961 337.375 308.414 338.367 307.725C336.886 308.926 335.564 310.02 334.454 310.956C335.683 310.179 337.164 309.208 338.856 308.043C335.881 310.762 333.634 312.563 332.127 313.146C331.849 313.57 331.585 313.923 331.373 314.223V314.488C331.373 314.488 331.373 314.488 331.386 314.506C332.642 313.711 334.771 312.228 337.865 309.985C336.833 311.363 335.921 312.652 335.141 313.817C336.384 313.005 337.838 311.698 339.517 309.879C338.473 311.08 337.521 312.175 336.675 313.181C337.679 312.493 338.803 311.68 340.02 310.762C339.715 311.115 339.411 311.468 339.12 311.804C339.054 311.928 338.988 312.051 338.922 312.157C339.001 312.069 339.094 311.963 339.173 311.875C338.816 312.493 338.473 313.093 338.142 313.676C338.896 312.987 339.689 312.175 340.548 311.257C337.336 315.565 335.405 318.991 334.599 321.304C334.639 321.269 334.691 321.234 334.744 321.198C336.027 319.327 338.38 316.554 341.857 312.916C340.191 315.036 338.764 316.978 337.587 318.709C338.922 317.419 340.469 315.795 342.188 313.799C339.253 318.32 336.965 321.128 335.273 322.311C334.89 322.964 334.559 323.547 334.282 324.094C334.282 324.112 334.295 324.112 334.295 324.112C335.286 323.883 337.203 322.752 339.953 320.651C340.733 319.662 341.579 318.514 342.505 317.261C341.659 318.461 340.866 319.556 340.125 320.527C341.104 319.786 342.188 318.938 343.364 317.949C343.735 317.243 344.118 316.519 344.515 315.76C344.277 316.378 344.052 316.978 343.853 317.543C344.329 317.137 344.832 316.713 345.347 316.272C344.753 316.96 344.171 317.596 343.616 318.196C343.1 319.591 342.677 320.845 342.32 321.975C343.417 320.863 344.62 319.574 345.916 318.126C344.171 320.916 342.677 323.264 341.408 325.225C339.557 333.153 343.655 330.752 352.725 320.722C342.624 337.904 340.747 342.46 352.725 324.059C339.358 350.865 339.848 354.697 360.181 334.884C342.598 360.719 344.871 362.908 368.788 350.282C351.482 366.034 355.818 366.987 374.526 362.237C353.452 375.04 350.292 380.92 374.843 388.372C351.918 392.698 356.704 398.579 374.512 410.604C359.851 407.179 358.224 409.898 370.004 422.1C358.846 417.544 361.12 422.506 368.431 430.7C364.253 431.035 365.112 434.62 367.545 435.768C367.519 442.425 369.066 446.646 369.925 439.123C371.022 447.07 371.974 452.12 372.952 453.25C373.931 454.38 374.935 451.59 376.165 443.909C375.689 460.102 376.601 464.887 382.022 450.107C378.426 467.96 379.351 466.247 383.965 449.012C381.215 469.955 382.194 476.383 394.396 461.832C385.697 485.442 388.209 488.055 405.528 475.836C391.025 494.642 391.316 498.598 411.346 492.24C403.334 499.145 400.24 503.471 401.906 505.59C402.792 509.246 408.411 510.711 417.824 511.877C411.901 512.831 408.463 513.59 407.816 513.643C407.326 515.444 411.134 515.991 418.366 516.557C408.384 518.887 412.615 521.13 422.438 524.114C414.783 527.063 412.734 530.754 420.481 535.469C411.187 539.177 411.676 543.928 421.552 539.937C418.313 545.146 416.277 548.678 415.497 548.713C415.589 554.735 418.128 551.803 422.742 541.667C417.678 558.567 417.11 565.065 425.611 553.622C426.549 551.344 427.673 548.625 428.942 545.499C428.321 547.636 427.766 549.578 427.303 551.291C427.766 550.62 428.268 549.896 428.784 549.137C428.083 550.532 427.435 551.821 426.854 552.969C424.513 561.869 425.016 563.087 430.912 551.044C423.469 573.506 424.249 575.766 436.597 556.606C425.624 577.903 429.471 573.259 440.537 554.717C433.332 569.868 431.203 575.96 442.401 562.663C428.956 585.143 428.85 588.233 447.028 571.21C430.754 591.394 432.79 591.482 451.523 576.773C439.493 588.728 444.173 585.885 455.966 577.108C443.393 591.588 439.043 599.005 457.724 596.745C435.857 610.218 437.007 614.033 460.553 616.54C445.111 619.613 452.065 621.361 465.736 623.197C450.572 630.208 445.852 636.671 457.01 650.692C451.338 650.533 449.646 652.264 450.307 655.195C450.955 658.109 453.956 662.223 457.671 666.832C449.95 667.203 452.608 674.478 456.812 678.787C456.256 684.42 457.235 687.087 459.284 685.003C457.235 687.087 459.258 688.217 463.845 689.064C464.4 689.806 465.128 690.548 466 691.289Z" fill="#0A0144"/>
<path d="M20.5838 720.818C23.3301 728.011 26.4254 733.716 29.888 737.281C55.8922 764.054 129.176 697.988 129.176 697.988C129.176 697.988 118.098 692.159 96.5414 699.02C121.339 687.625 376.365 652.795 376.365 652.795C376.365 652.795 366.019 618.337 367.541 605.61C399.817 580.779 350.247 562.57 350.247 562.57C350.247 562.57 353.526 444.457 319.188 446.435C345.108 436.178 357.659 463.433 334.012 401.368C334.012 374.635 307.678 325.111 304.365 302.826C325.448 269.841 230.371 174.626 237.925 118.496C235.998 114.136 235.1 109.682 236.647 108.851C234.132 104.296 232.826 101.544 233.153 101.012C231.396 100.707 231.647 103.962 233.583 110.653C227.775 109.839 225.608 116.484 224.342 124.809C221.312 127.263 219.853 132.878 217.834 137.57C215.683 141.829 212.959 145.149 209.21 146.672C209.012 167.163 204.664 180.419 192.2 195.979C193.687 202.679 193.154 209.954 191.942 216.262C190.873 220.847 189.638 225.211 189.078 227.117C189.066 227.153 189.053 227.171 189.054 227.206C182.693 246.533 182.014 248.869 189.841 226.56C187.182 234.365 185.091 240.493 183.599 244.678C182.033 249.045 181.112 251.271 180.698 250.323C180.753 250.797 180.841 251.057 180.963 251.138C179.978 252.591 179.006 253.248 177.932 252.744C177.915 253.452 177.884 254.125 177.864 254.745C177.513 254.518 177.157 254.149 176.784 253.658C176.822 254.434 176.858 255.156 176.907 255.825C176.282 255.755 175.612 255.493 174.895 255.004C175.353 264.678 174.722 269.715 169.065 262.532C171.411 273.705 168.745 272.675 162.808 265.03C166.499 278.529 167.323 284.366 158.062 274.987C164.88 287.793 161.601 285.402 153.266 276.818C160.849 287.531 163.378 292.067 152.457 283.738C161.451 295.907 156.996 295.209 145.75 290.733C154.854 300.598 157.782 306.031 144.259 303.541C155.765 314.028 150.819 316.592 138.399 317.926C138.778 318.187 139.143 318.431 139.495 318.676C139.043 318.614 138.564 318.535 138.085 318.457C139.037 318.844 139.923 319.234 140.742 319.594C142.11 320.593 143.265 321.533 144.15 322.295C142.392 322.361 140.181 322.294 137.624 322.194C142.143 324.072 145.213 325.715 145.454 324.588C145.5 324.779 145.546 324.953 145.565 325.129C144.429 325.601 142.5 325.694 139.632 325.383C141.707 326.553 143.286 327.504 144.376 328.06C144.398 328.342 144.42 328.605 144.442 328.869C144.272 328.932 144.088 328.978 143.89 329.007C142.745 329.179 141.053 328.817 138.694 327.875C140.097 329.119 141.255 330.166 142.206 330.942C141.064 330.813 139.661 330.381 137.994 329.576C138.716 330.613 139.382 331.564 139.978 332.413C139.872 332.401 139.778 332.371 139.671 332.325C138.942 331.872 138.119 331.371 137.188 330.824C137.65 331.186 138.097 331.532 138.505 331.879C137.647 331.505 136.718 331.01 135.705 330.38C137.223 331.494 138.579 332.511 139.718 333.382C138.465 332.677 136.955 331.792 135.227 330.725C138.286 333.27 140.589 334.94 142.113 335.435C142.404 335.842 142.68 336.18 142.901 336.468L142.909 336.732C142.909 336.732 142.909 336.732 142.897 336.751C141.617 336.029 139.442 334.67 136.28 332.608C137.354 333.925 138.307 335.16 139.124 336.279C137.856 335.539 136.361 334.318 134.625 332.598C135.708 333.737 136.694 334.776 137.571 335.732C136.546 335.102 135.397 334.356 134.152 333.508C134.467 333.844 134.782 334.179 135.084 334.497C135.154 334.617 135.224 334.736 135.293 334.839C135.211 334.755 135.115 334.654 135.033 334.571C135.41 335.168 135.773 335.747 136.121 336.31C135.346 335.666 134.528 334.9 133.64 334.033C136.988 338.151 139.027 341.462 139.907 343.726C139.866 343.693 139.812 343.66 139.758 343.628C138.417 341.832 135.977 339.199 132.386 335.766C134.118 337.786 135.607 339.644 136.839 341.305C135.463 340.094 133.865 338.561 132.084 336.667C135.162 341.013 137.537 343.685 139.266 344.77C139.67 345.4 140.019 345.963 140.314 346.494C140.315 346.512 140.301 346.512 140.301 346.512C139.303 346.34 137.352 345.322 134.537 343.381C133.726 342.438 132.844 341.341 131.879 340.142C132.763 341.292 133.591 342.34 134.362 343.268C133.36 342.583 132.25 341.799 131.043 340.879C130.65 340.195 130.244 339.494 129.823 338.758C130.081 339.362 130.325 339.949 130.541 340.502C130.052 340.123 129.537 339.729 129.008 339.318C129.624 339.971 130.226 340.573 130.8 341.141C131.36 342.504 131.823 343.732 132.216 344.84C131.084 343.792 129.841 342.574 128.5 341.202C130.333 343.889 131.901 346.148 133.232 348.033C135.337 355.845 131.165 353.683 121.782 344.187C132.426 360.766 134.448 365.209 121.89 347.52C136.106 373.524 135.741 377.379 114.79 358.761C133.189 383.552 130.988 385.87 106.69 374.636C124.485 389.372 120.184 390.574 101.344 386.906C122.808 398.48 126.154 404.171 101.87 413.027C124.91 416.029 120.319 422.177 102.917 435.213C117.453 430.948 119.165 433.57 107.792 446.435C118.791 441.243 116.68 446.33 109.641 454.934C113.825 455.029 113.082 458.658 110.689 459.945C110.931 466.592 109.521 470.897 108.42 463.433C107.581 471.433 106.793 476.532 105.852 477.717C104.911 478.902 103.817 476.173 102.341 468.572C103.339 484.717 102.582 489.549 96.6906 475.099C100.859 492.723 99.8791 491.066 94.7139 474.118C98.1366 494.877 97.3668 501.353 84.7075 487.522C94.1593 510.602 91.7343 513.357 74.0393 502.149C89.1338 520.098 88.9709 524.065 68.7577 518.869C76.9837 525.304 80.2136 529.447 78.618 531.659C77.8511 535.361 72.2856 537.148 62.9201 538.854C68.8674 539.465 72.3256 540.026 72.9744 540.042C73.5212 541.812 69.7354 542.578 62.5296 543.559C72.5758 545.312 68.4221 547.796 58.7058 551.342C66.4476 553.847 68.6137 557.415 61.0267 562.57C70.4306 565.739 70.0953 570.511 60.1011 567.094C63.5048 572.11 65.6526 575.52 66.4329 575.511C66.5348 581.53 63.9046 578.749 58.9684 568.891C64.5718 585.478 65.3493 591.935 56.4883 580.996C55.4771 578.775 54.2668 576.123 52.8981 573.075C53.5878 575.173 54.2052 577.081 54.7227 578.765C54.2388 578.122 53.7136 577.427 53.174 576.699C53.919 578.052 54.6076 579.302 55.2258 580.415C57.8505 589.169 57.3879 590.415 51.1092 578.726C59.2693 600.732 58.563 603.034 45.6098 584.609C57.2584 605.248 53.2655 600.83 41.6133 582.948C49.2998 597.666 51.6226 603.629 40.0075 590.992C54.164 612.67 54.3694 615.751 35.661 599.795C52.5696 619.017 50.5387 619.223 31.3502 605.609C43.754 616.857 38.9872 614.287 26.9237 606.2C39.9504 619.939 44.5346 627.096 25.8007 625.914C48.0792 638.112 47.0533 641.988 23.6131 645.848C39.1376 648.028 32.2473 650.174 18.6509 652.795C34.0251 658.924 38.9485 665.108 28.2545 679.754C33.915 679.268 35.6613 680.899 35.0956 683.865C34.5425 686.813 31.6773 691.095 28.1149 695.912C35.8395 695.838 33.4198 703.257 29.3591 707.803C30.0956 713.397 29.2042 716.116 27.09 714.153C29.2042 716.116 27.2201 717.361 22.6647 718.472C22.134 719.245 21.4315 720.027 20.5838 720.818Z" fill="url(#paint0_linear_1427_11258)"/>
<ellipse opacity="0.1" cx="318.972" cy="268.643" rx="18.6562" ry="19.3225" fill="white"/>
<ellipse opacity="0.1" cx="312.31" cy="253.984" rx="33.3147" ry="33.981" fill="white"/>
<path fill-rule="evenodd" clip-rule="evenodd" d="M306.124 449.114C310.63 439.39 312.882 434.528 312.895 428.893C312.9 427.037 312.73 425.162 312.392 423.338C311.366 417.797 308.276 413.419 302.096 404.663L287.37 383.8C281.191 375.045 284.047 370.54 280.734 369.934C279.891 368.571 272.613 369.96 271.576 370.352C268.426 371.544 266.173 376.406 261.668 386.13C257.163 395.853 254.91 400.715 254.897 406.351C254.893 408.206 255.063 410.081 255.401 411.906C256.427 417.447 259.517 421.825 265.697 430.58L280.422 451.443C286.602 460.199 289.692 464.577 293.005 465.183C294.095 465.382 300.189 465.401 301.54 464.409C304.69 463.217 301.619 458.838 306.124 449.114ZM287.719 419.275C288.393 421.897 288.731 423.208 288.377 423.97C288.024 424.733 287.221 424.428 285.614 423.818L280.823 421.997C279.278 421.41 278.505 421.117 278.271 420.16C278.037 419.204 278.495 418.214 279.412 416.236L282.191 410.237C283.108 408.259 283.566 407.27 284.15 407.472C284.733 407.675 285.058 408.935 285.706 411.456L287.719 419.275Z" fill="url(#paint1_linear_1427_11258)"/>
<path d="M285.706 411.456C285.058 408.935 284.733 407.675 284.15 407.472C283.566 407.27 283.108 408.259 282.191 410.237L279.412 416.236C278.495 418.214 278.037 419.204 278.271 420.16C278.505 421.117 279.278 421.41 280.823 421.997L285.614 423.818C287.221 424.428 288.024 424.733 288.377 423.97C288.731 423.208 288.393 421.897 287.719 419.275L285.706 411.456Z" fill="url(#paint2_linear_1427_11258)"/>
<path fill-rule="evenodd" clip-rule="evenodd" d="M309.373 442.103C310.821 438.978 311.545 437.416 311.977 435.877C313.671 429.837 312.985 422.27 310.233 416.633C309.531 415.197 308.538 413.79 306.552 410.976L295.075 394.716C293.089 391.902 292.096 390.495 291.147 389.594C287.423 386.054 283.047 386.45 280.02 390.602C279.249 391.659 278.525 393.222 277.077 396.347V396.347C275.629 399.473 274.905 401.035 274.473 402.574C272.779 408.613 273.465 416.181 276.217 421.818C276.919 423.254 277.912 424.661 279.898 427.475L291.375 443.735C293.361 446.549 294.354 447.956 295.303 448.857C299.027 452.397 303.403 452.001 306.43 447.849C307.201 446.791 307.925 445.229 309.373 442.103V442.103ZM295.475 418.619C296.195 421.311 296.555 422.657 296.195 423.434C295.836 424.21 295.008 423.873 293.352 423.2L291.964 422.635C290.446 422.018 289.687 421.709 289.459 420.759C289.231 419.808 289.682 418.834 290.584 416.887L291.369 415.193C292.271 413.245 292.723 412.271 293.301 412.464C293.88 412.657 294.211 413.892 294.871 416.361L295.475 418.619Z" fill="white"/>
<path d="M294.871 416.361C294.211 413.892 293.88 412.657 293.301 412.464C292.723 412.271 292.271 413.245 291.369 415.193L290.584 416.887C289.682 418.834 289.231 419.808 289.459 420.759C289.687 421.709 290.446 422.018 291.964 422.635L293.352 423.2C295.008 423.873 295.836 424.21 296.195 423.434C296.555 422.657 296.195 421.311 295.475 418.619L294.871 416.361Z" fill="white"/>
<path fill-rule="evenodd" clip-rule="evenodd" d="M310.409 448.726C314.915 439.002 317.167 434.14 317.18 428.505C317.185 426.65 317.015 424.774 316.677 422.95C315.651 417.409 312.561 413.031 306.381 404.275L291.655 383.412C285.476 374.657 282.386 370.279 279.073 369.673C277.982 369.474 276.898 369.572 275.861 369.964C272.711 371.156 270.458 376.018 265.953 385.742V385.742C261.448 395.465 259.195 400.327 259.182 405.963C259.178 407.818 259.348 409.693 259.686 411.518C260.712 417.059 263.802 421.437 269.982 430.192L284.707 451.055C290.887 459.811 293.977 464.189 297.29 464.795C298.38 464.994 299.465 464.896 300.502 464.504C303.652 463.312 305.904 458.45 310.409 448.726V448.726ZM292.004 418.888C292.678 421.509 293.016 422.82 292.662 423.582C292.309 424.345 291.506 424.04 289.899 423.43L285.108 421.609C283.563 421.022 282.79 420.729 282.556 419.772C282.322 418.816 282.78 417.827 283.697 415.848L286.476 409.849C287.393 407.871 287.851 406.882 288.435 407.084C289.018 407.287 289.343 408.547 289.991 411.068L292.004 418.888Z" fill="url(#paint3_linear_1427_11258)"/>
<path fill-rule="evenodd" clip-rule="evenodd" d="M311.839 448.597C316.344 438.873 318.597 434.011 318.61 428.375C318.615 426.52 318.445 424.645 318.107 422.82C317.081 417.279 313.991 412.901 307.811 404.146L293.085 383.283C286.905 374.527 283.815 370.149 280.503 369.543C279.412 369.344 278.328 369.442 277.291 369.835C274.141 371.026 271.888 375.888 267.383 385.612V385.612C262.878 395.336 260.625 400.198 260.612 405.833C260.608 407.689 260.778 409.564 261.115 411.388C262.142 416.929 265.231 421.307 271.411 430.063L286.137 450.926C292.317 459.681 295.407 464.059 298.72 464.665C299.81 464.864 300.895 464.766 301.932 464.374C305.081 463.182 307.334 458.32 311.839 448.597V448.597ZM293.434 418.758C294.108 421.379 294.445 422.69 294.092 423.453C293.739 424.215 292.936 423.91 291.329 423.3L286.537 421.48C284.993 420.893 284.22 420.599 283.986 419.643C283.752 418.686 284.21 417.697 285.126 415.719L287.906 409.72C288.822 407.742 289.281 406.752 289.864 406.955C290.448 407.157 290.772 408.418 291.421 410.939L293.434 418.758Z" fill="url(#paint4_linear_1427_11258)"/>
<path fill-rule="evenodd" clip-rule="evenodd" d="M300.448 393.714L307.811 404.146C313.991 412.901 317.081 417.279 318.107 422.82C318.445 424.645 318.615 426.52 318.61 428.375C318.597 434.011 316.344 438.873 311.839 448.597V448.597C307.334 458.32 305.081 463.182 301.932 464.374C300.895 464.766 299.81 464.864 298.72 464.665C295.407 464.059 292.317 459.681 286.137 450.926L266.18 422.651C264.915 420.859 264.283 419.964 263.803 419.103C260.432 413.067 259.638 404.305 261.869 397.761C262.187 396.828 262.647 395.833 263.569 393.844V393.844C279.116 383.356 294.633 389.387 300.448 393.714ZM285.126 415.719C284.21 417.697 283.752 418.686 283.986 419.643C284.22 420.599 284.993 420.893 286.537 421.48L291.329 423.3C292.936 423.91 293.739 424.215 294.092 423.453C294.445 422.69 294.108 421.379 293.434 418.758L291.421 410.939C290.772 408.418 290.448 407.157 289.864 406.955C289.281 406.752 288.822 407.742 287.906 409.72L285.126 415.719Z" fill="url(#paint5_linear_1427_11258)"/>
<path fill-rule="evenodd" clip-rule="evenodd" d="M201.225 230.929L203.799 227.84L233.154 233.465L234.19 236.478L246.799 269.852L249.131 271.795C248.585 274.031 245.981 277.479 242.305 277.931C238.283 278.426 233.287 275.898 231.147 272.285C229.006 268.672 231.964 264.734 233.972 263.114C235.969 262.869 238.786 265.102 240.794 266.109L233.613 245.222L209.161 243.096L218.42 268.956L220.627 270.434C220.756 271.86 217.841 275.513 214.156 275.966C210.134 276.46 205.138 273.932 202.997 270.32C200.237 265.66 204.075 262.287 206.116 260.976C206.788 260.544 205.407 263.005 206.404 262.883C208.4 262.637 210.637 263.136 212.645 264.144L201.225 230.929Z" fill="url(#paint6_linear_1427_11258)"/>
<path fill-rule="evenodd" clip-rule="evenodd" d="M203.817 227.819L235.746 230.355L236.782 233.367L236.782 233.367L248.796 268.311L248.775 268.308C250.163 271.548 248.573 274.369 244.897 274.821C240.875 275.316 235.879 272.788 233.739 269.175C231.598 265.562 233.123 262.233 237.145 261.738C239.141 261.493 241.378 261.992 243.386 262.999L236.205 242.112L211.644 240.161L220.647 266.346L220.616 266.32C222.021 269.57 220.432 272.403 216.748 272.856C212.726 273.35 207.73 270.822 205.589 267.209C203.449 263.597 204.974 260.267 208.996 259.772C210.992 259.527 213.229 260.026 215.237 261.033L203.817 227.819L203.817 227.819L203.817 227.819Z" fill="url(#paint7_linear_1427_11258)"/>
<path d="M260.028 144.466C265.056 146.194 268.606 155.306 242.589 177.931C210.066 206.211 173.302 204.326 192.627 228.835M277.939 201.498C286.894 206.682 291.796 221.011 239.761 236.848C174.716 256.644 170.945 267.485 174.244 281.154M307.162 261.829C329.472 258.53 347.791 262.583 242.589 305.192C111.085 358.453 118.626 359.867 132.767 371.651M334.5 320.746C366.865 321.218 399.356 336.018 270.398 391.447C109.2 460.734 63.9511 456.02 112.499 497.97M369.85 436.224C411.642 439.995 452.334 461.676 307.162 518.237C125.696 588.938 -42.1001 543.689 53.1103 611.562" stroke="url(#paint8_linear_1427_11258)" stroke-width="3.77071"/>
<g filter="url(#filter5_f_1427_11258)">
<path d="M259.058 144.328C264.086 146.056 267.636 155.169 241.618 177.793C209.096 206.074 172.332 204.188 191.657 228.698M276.969 201.36C285.924 206.545 292.083 227.241 240.047 243.078C175.002 262.875 169.975 267.348 173.274 281.016M309.284 260.348C331.594 257.049 351.246 267.099 246.044 309.708C114.54 362.969 117.656 359.73 131.797 371.513M333.529 320.609C365.895 321.08 398.322 338.898 269.364 394.327C108.166 463.614 62.9811 455.883 111.529 497.832M368.88 436.087C410.672 439.858 454.514 469.027 309.341 525.587C127.876 596.288 -43.0701 543.552 52.1403 611.425" stroke="url(#paint9_linear_1427_11258)" stroke-width="1.88535"/>
</g>
<g filter="url(#filter6_f_1427_11258)">
<path d="M260.028 138.755C265.056 140.483 268.606 149.595 242.588 172.22C210.066 200.5 173.302 198.615 192.627 223.124M277.939 195.787C286.894 200.971 291.796 215.3 239.76 231.137C174.716 250.933 170.945 261.774 174.244 275.443M307.162 256.118C329.472 252.819 347.791 256.872 242.588 299.481C111.085 352.742 118.626 354.156 132.767 365.94M334.499 315.035C366.865 315.507 399.356 330.307 270.397 385.736C109.2 455.023 63.9511 450.309 112.499 492.259M363.251 430.513C405.043 434.284 452.334 455.966 307.162 512.526C125.696 583.227 -42.1001 537.978 53.1103 605.851" stroke="white" stroke-width="3.77071"/>
</g>
<path d="M260.028 138.755C265.056 140.483 268.606 149.595 242.589 172.22C210.066 200.5 173.302 198.615 192.627 223.124M277.939 195.787C286.894 200.971 291.796 215.3 239.761 231.137C174.716 250.933 170.945 261.774 174.244 275.443M307.162 256.118C329.472 252.819 347.791 256.872 242.589 299.481C111.085 352.742 118.626 354.156 132.767 365.94M334.5 315.035C366.865 315.507 399.356 330.307 270.398 385.736C109.2 455.023 63.9511 450.309 112.499 492.259M369.85 430.513C411.642 434.284 452.334 455.966 307.162 512.526C125.696 583.227 -42.1001 537.978 53.1103 605.851" stroke="url(#paint10_linear_1427_11258)" stroke-width="0.942677"/>
<path d="M260.028 141.556C265.056 143.284 268.606 152.397 242.589 175.021C210.066 203.301 173.302 201.416 192.627 225.925M277.939 198.588C286.894 203.772 291.796 218.101 239.761 233.938C174.716 253.734 170.945 264.575 174.244 278.244M307.162 258.919C329.472 255.62 347.791 259.673 242.589 302.282C111.085 355.544 118.626 356.958 132.767 368.741M334.5 317.836C366.865 318.308 399.356 333.108 270.398 388.537C109.2 457.824 63.9511 453.111 112.499 495.06M369.85 433.314C411.642 437.085 452.334 458.767 307.162 515.327C125.696 586.028 -42.1001 540.78 53.1103 608.652" stroke="url(#paint11_linear_1427_11258)" stroke-width="1.94024"/>
<path opacity="0.1" d="M260.028 136.869C265.056 138.598 268.606 147.71 242.589 170.334C210.066 198.615 173.302 196.729 192.627 221.239M277.939 193.901C286.894 199.086 291.796 213.415 239.761 229.252C174.716 249.048 170.945 259.889 174.244 273.557M307.162 254.233C329.472 250.933 347.791 254.987 242.589 297.596C111.085 350.857 118.626 352.271 132.767 364.054M334.5 313.15C366.865 313.621 399.356 328.421 270.398 383.851C109.2 453.137 63.9511 448.424 112.499 490.373M369.85 428.628C411.642 432.399 452.334 454.08 307.162 510.641C125.696 581.342 -42.1001 536.093 53.1103 603.966" stroke="url(#paint12_linear_1427_11258)" stroke-width="0.942677"/>
<g filter="url(#filter7_f_1427_11258)">
<circle cx="262.384" cy="390.449" r="6.59874" fill="white"/>
</g>
<circle cx="262.384" cy="390.449" r="6.59874" fill="white"/>
<g filter="url(#filter8_f_1427_11258)">
<circle cx="166.228" cy="428.156" r="6.59874" fill="white"/>
</g>
<circle cx="166.228" cy="428.156" r="6.59874" fill="white"/>
<g filter="url(#filter9_f_1427_11258)">
<circle cx="360.421" cy="490.373" r="6.59874" fill="white"/>
</g>
<circle cx="360.421" cy="490.373" r="6.59874" fill="white"/>
<g filter="url(#filter10_f_1427_11258)">
<circle cx="287.837" cy="526.195" r="6.59874" fill="white"/>
</g>
<circle cx="287.837" cy="526.195" r="6.59874" fill="white"/>
<g filter="url(#filter11_f_1427_11258)">
<circle cx="188.854" cy="541.278" r="10.3695" fill="white"/>
</g>
<circle cx="188.854" cy="541.278" r="10.3695" fill="white"/>
<g filter="url(#filter12_f_1427_11258)">
<circle cx="306.498" cy="372.36" r="6.59874" fill="white"/>
</g>
<circle cx="306.498" cy="372.36" r="6.59874" fill="white"/>
<g filter="url(#filter13_f_1427_11258)">
<circle cx="309.38" cy="262.108" r="6.59874" fill="white"/>
</g>
<circle cx="309.38" cy="262.108" r="6.59874" fill="white"/>
<g filter="url(#filter14_f_1427_11258)">
<circle cx="222.789" cy="308.436" r="6.59874" fill="white"/>
</g>
<circle cx="222.789" cy="308.436" r="6.59874" fill="white"/>
<g filter="url(#filter15_f_1427_11258)">
<circle cx="188.854" cy="253.761" r="6.59874" fill="white"/>
</g>
<circle cx="188.854" cy="253.761" r="6.59874" fill="white"/>
<g filter="url(#filter16_f_1427_11258)">
<circle cx="251.07" cy="224.539" r="6.59874" fill="white"/>
</g>
<circle cx="251.07" cy="224.539" r="6.59874" fill="white"/>
<g filter="url(#filter17_f_1427_11258)">
<circle cx="217.135" cy="188.717" r="6.59874" fill="white"/>
</g>
<circle cx="217.135" cy="188.717" r="6.59874" fill="white"/>
<g filter="url(#filter18_f_1427_11258)">
<circle cx="261.444" cy="141.582" r="6.59874" fill="white"/>
</g>
<circle cx="261.444" cy="141.582" r="6.59874" fill="white"/>
<g filter="url(#filter19_f_1427_11258)">
<circle cx="142.663" cy="343.315" r="6.59874" fill="white"/>
</g>
<circle cx="142.663" cy="343.315" r="6.59874" fill="white"/>
<ellipse opacity="0.1" cx="263.004" cy="135.384" rx="13.3259" ry="13.9922" fill="white"/>
<ellipse opacity="0.1" cx="189.709" cy="227.333" rx="13.3259" ry="13.9922" fill="white"/>
<ellipse opacity="0.1" cx="254.34" cy="228.607" rx="17.9899" ry="18.6562" fill="white"/>
<ellipse opacity="0.1" cx="187.044" cy="256.65" rx="21.3214" ry="21.9877" fill="white"/>
<ellipse opacity="0.1" cx="144.537" cy="343.934" rx="29.317" ry="30.6495" fill="white"/>
<ellipse opacity="0.1" cx="221.693" cy="307.288" rx="18.6562" ry="19.3225" fill="white"/>
<ellipse opacity="0.1" cx="263.002" cy="387.243" rx="33.3147" ry="33.981" fill="white"/>
<ellipse opacity="0.1" cx="303.994" cy="372.242" rx="15.9911" ry="16.6574" fill="white"/>
<ellipse opacity="0.1" cx="160.394" cy="424.556" rx="15.9911" ry="16.6574" fill="white"/>
<ellipse opacity="0.1" cx="165.724" cy="429.886" rx="15.9911" ry="16.6574" fill="white"/>
<ellipse opacity="0.1" cx="111.089" cy="497.848" rx="15.9911" ry="16.6574" fill="white"/>
<ellipse opacity="0.1" cx="191.043" cy="531.163" rx="15.9911" ry="16.6574" fill="white"/>
<ellipse opacity="0.1" cx="176.385" cy="536.494" rx="15.9911" ry="16.6574" fill="white"/>
<ellipse opacity="0.1" cx="200.371" cy="541.824" rx="15.9911" ry="16.6574" fill="white"/>
<ellipse opacity="0.1" cx="289.655" cy="531.163" rx="15.9911" ry="16.6574" fill="white"/>
<ellipse opacity="0.1" cx="284.325" cy="524.5" rx="18.6562" ry="19.3225" fill="white"/>
<ellipse opacity="0.1" cx="302.981" cy="520.502" rx="22.654" ry="23.3203" fill="white"/>
<ellipse opacity="0.1" cx="366.945" cy="495.183" rx="22.654" ry="23.3203" fill="white"/>
<ellipse opacity="0.9" cx="191.709" cy="373.917" rx="4.66406" ry="4.66406" transform="rotate(180 191.709 373.917)" fill="white"/>
<ellipse opacity="0.9" cx="215.695" cy="483.19" rx="4.66406" ry="4.66406" transform="rotate(180 215.695 483.19)" fill="white"/>
<circle opacity="0.9" cx="167.721" cy="372.585" r="1.99888" transform="rotate(180 167.721 372.585)" fill="white"/>
<circle opacity="0.9" cx="245.011" cy="269.975" r="1.99888" transform="rotate(180 245.011 269.975)" fill="white"/>
<circle opacity="0.9" cx="294.32" cy="351.264" r="1.99888" transform="rotate(180 294.32 351.264)" fill="white"/>
<circle opacity="0.9" cx="314.307" cy="409.897" r="1.99888" transform="rotate(180 314.307 409.897)" fill="white"/>
<circle opacity="0.9" cx="146.401" cy="491.185" r="1.99888" transform="rotate(180 146.401 491.185)" fill="white"/>
<circle opacity="0.9" cx="118.418" cy="525.832" r="1.99888" transform="rotate(180 118.418 525.832)" fill="white"/>
<g filter="url(#filter20_f_1427_11258)">
<path d="M243.401 -25.6776L251.428 78.3522L353.559 57.0006L257.101 96.7814L308.968 187.316L241.327 107.872L171.251 185.177L225.904 96.2969L130.729 53.5397L232.147 78.0528L243.401 -25.6776Z" fill="#FFE091"/>
</g>
<g filter="url(#filter21_f_1427_11258)">
<path d="M240.186 46.3355C240.997 44.6454 243.417 44.6829 244.175 46.3974L253.429 67.3078C253.739 68.0065 254.389 68.4945 255.146 68.5962L277.809 71.6408C279.667 71.8905 280.379 74.203 278.983 75.4545L261.956 90.7172C261.387 91.2272 261.123 91.9962 261.261 92.7479L265.368 115.243C265.705 117.087 263.726 118.479 262.104 117.537L242.327 106.06C241.666 105.676 240.853 105.664 240.181 106.027L220.056 116.884C218.406 117.775 216.471 116.322 216.865 114.489L221.669 92.133C221.83 91.3859 221.591 90.6091 221.038 90.0816L204.493 74.2975C203.136 73.0033 203.919 70.714 205.784 70.5222L228.531 68.1828C229.291 68.1046 229.956 67.6372 230.287 66.9484L240.186 46.3355Z" fill="#FFBA07"/>
</g>
<path d="M240.186 46.3355C240.997 44.6454 243.417 44.6829 244.175 46.3974L253.429 67.3078C253.739 68.0065 254.389 68.4945 255.146 68.5962L277.809 71.6408C279.667 71.8905 280.379 74.203 278.983 75.4545L261.956 90.7172C261.387 91.2272 261.123 91.9962 261.261 92.7479L265.368 115.243C265.705 117.087 263.726 118.479 262.104 117.537L242.327 106.06C241.666 105.676 240.853 105.664 240.181 106.027L220.056 116.884C218.406 117.775 216.471 116.322 216.865 114.489L221.669 92.133C221.83 91.3859 221.591 90.6091 221.038 90.0816L204.493 74.2975C203.136 73.0033 203.919 70.714 205.784 70.5222L228.531 68.1828C229.291 68.1046 229.956 67.6372 230.287 66.9484L240.186 46.3355Z" fill="#FFD569"/>
<path d="M235.195 45.263C235.98 43.5605 238.4 43.5605 239.185 45.263L248.763 66.0272C249.083 66.721 249.74 67.1988 250.499 67.2887L273.207 69.9811C275.068 70.2018 275.816 72.5031 274.44 73.776L257.651 89.3013C257.09 89.8201 256.839 90.5931 256.988 91.3426L261.445 113.771C261.81 115.61 259.852 117.032 258.216 116.116L238.263 104.947C237.596 104.574 236.784 104.574 236.117 104.947L216.163 116.116C214.527 117.032 212.57 115.61 212.935 113.771L217.392 91.3426C217.541 90.5931 217.29 89.8201 216.729 89.3013L199.94 73.776C198.564 72.5031 199.311 70.2018 201.173 69.9811L223.881 67.2887C224.64 67.1988 225.297 66.721 225.617 66.0272L235.195 45.263Z" fill="url(#paint13_linear_1427_11258)"/>
<path d="M235.195 45.263C235.98 43.5605 238.4 43.5605 239.185 45.263L248.763 66.0272C249.083 66.721 249.74 67.1988 250.499 67.2887L273.207 69.9811C275.068 70.2018 275.816 72.5031 274.44 73.776L257.651 89.3013C257.09 89.8201 256.839 90.5931 256.988 91.3426L261.445 113.771C261.81 115.61 259.852 117.032 258.216 116.116L238.263 104.947C237.596 104.574 236.784 104.574 236.117 104.947L216.163 116.116C214.527 117.032 212.57 115.61 212.935 113.771L217.392 91.3426C217.541 90.5931 217.29 89.8201 216.729 89.3013L199.94 73.776C198.564 72.5031 199.311 70.2018 201.173 69.9811L223.881 67.2887C224.64 67.1988 225.297 66.721 225.617 66.0272L235.195 45.263Z" fill="url(#paint14_linear_1427_11258)"/>
<path d="M235.195 45.263C235.98 43.5605 238.4 43.5605 239.185 45.263L248.763 66.0272C249.083 66.721 249.74 67.1988 250.499 67.2887L273.207 69.9811C275.068 70.2018 275.816 72.5031 274.44 73.776L257.651 89.3013C257.09 89.8201 256.839 90.5931 256.988 91.3426L261.445 113.771C261.81 115.61 259.852 117.032 258.216 116.116L238.263 104.947C237.596 104.574 236.784 104.574 236.117 104.947L216.163 116.116C214.527 117.032 212.57 115.61 212.935 113.771L217.392 91.3426C217.541 90.5931 217.29 89.8201 216.729 89.3013L199.94 73.776C198.564 72.5031 199.311 70.2018 201.173 69.9811L223.881 67.2887C224.64 67.1988 225.297 66.721 225.617 66.0272L235.195 45.263Z" fill="url(#paint15_linear_1427_11258)"/>
<mask id="mask0_1427_11258" style="mask-type:alpha" maskUnits="userSpaceOnUse" x="199" y="45" width="77" height="73">
<path d="M235.195 46.3609C235.98 44.6584 238.4 44.6584 239.185 46.3609L248.763 67.1251C249.083 67.8189 249.74 68.2967 250.499 68.3866L273.207 71.079C275.069 71.2997 275.816 73.601 274.44 74.8739L257.652 90.3992C257.091 90.918 256.839 91.691 256.988 92.4405L261.445 114.869C261.81 116.707 259.853 118.13 258.217 117.214L238.263 106.045C237.597 105.672 236.784 105.672 236.117 106.045L216.164 117.214C214.528 118.13 212.57 116.707 212.936 114.869L217.392 92.4405C217.541 91.691 217.29 90.918 216.729 90.3992L199.941 74.8739C198.564 73.601 199.312 71.2997 201.174 71.079L223.881 68.3866C224.64 68.2967 225.297 67.8189 225.617 67.1251L235.195 46.3609Z" fill="#A5D9FF"/>
</mask>
<g mask="url(#mask0_1427_11258)">
<g opacity="0.3" filter="url(#filter22_f_1427_11258)">
<path d="M242.884 46.3609C243.669 44.6584 246.089 44.6584 246.874 46.3609L256.452 67.1251C256.772 67.8189 257.429 68.2967 258.188 68.3866L280.896 71.079C282.757 71.2997 283.505 73.601 282.129 74.8739L265.34 90.3992C264.779 90.918 264.528 91.691 264.677 92.4405L269.134 114.869C269.499 116.707 267.541 118.13 265.905 117.214L245.952 106.045C245.285 105.672 244.473 105.672 243.806 106.045L223.853 117.214C222.217 118.13 220.259 116.707 220.624 114.869L225.081 92.4405C225.23 91.691 224.979 90.918 224.418 90.3992L207.629 74.8739C206.253 73.601 207.001 71.2997 208.862 71.079L231.57 68.3866C232.329 68.2967 232.986 67.8189 233.306 67.1251L242.884 46.3609Z" fill="#FFBA07"/>
</g>
</g>
<defs>
<filter id="filter0_f_1427_11258" x="175.657" y="207.57" width="32.0511" height="32.0511" filterUnits="userSpaceOnUse" color-interpolation-filters="sRGB">
<feFlood flood-opacity="0" result="BackgroundImageFix"/>
<feBlend mode="normal" in="SourceGraphic" in2="BackgroundImageFix" result="shape"/>
<feGaussianBlur stdDeviation="4.71339" result="effect1_foregroundBlur_1427_11258"/>
</filter>
<filter id="filter1_f_1427_11258" x="349.108" y="414.959" width="32.0511" height="32.0511" filterUnits="userSpaceOnUse" color-interpolation-filters="sRGB">
<feFlood flood-opacity="0" result="BackgroundImageFix"/>
<feBlend mode="normal" in="SourceGraphic" in2="BackgroundImageFix" result="shape"/>
<feGaussianBlur stdDeviation="4.71339" result="effect1_foregroundBlur_1427_11258"/>
</filter>
<filter id="filter2_f_1427_11258" x="160.573" y="260.36" width="32.0511" height="32.0511" filterUnits="userSpaceOnUse" color-interpolation-filters="sRGB">
<feFlood flood-opacity="0" result="BackgroundImageFix"/>
<feBlend mode="normal" in="SourceGraphic" in2="BackgroundImageFix" result="shape"/>
<feGaussianBlur stdDeviation="4.71339" result="effect1_foregroundBlur_1427_11258"/>
</filter>
<filter id="filter3_f_1427_11258" x="259.553" y="179.29" width="32.0511" height="32.0511" filterUnits="userSpaceOnUse" color-interpolation-filters="sRGB">
<feFlood flood-opacity="0" result="BackgroundImageFix"/>
<feBlend mode="normal" in="SourceGraphic" in2="BackgroundImageFix" result="shape"/>
<feGaussianBlur stdDeviation="4.71339" result="effect1_foregroundBlur_1427_11258"/>
</filter>
<filter id="filter4_f_1427_11258" x="289.721" y="237.736" width="32.0511" height="32.0511" filterUnits="userSpaceOnUse" color-interpolation-filters="sRGB">
<feFlood flood-opacity="0" result="BackgroundImageFix"/>
<feBlend mode="normal" in="SourceGraphic" in2="BackgroundImageFix" result="shape"/>
<feGaussianBlur stdDeviation="4.71339" result="effect1_foregroundBlur_1427_11258"/>
</filter>
<filter id="filter5_f_1427_11258" x="7.46928" y="126.945" width="419.314" height="501.74" filterUnits="userSpaceOnUse" color-interpolation-filters="sRGB">
<feFlood flood-opacity="0" result="BackgroundImageFix"/>
<feBlend mode="normal" in="SourceGraphic" in2="BackgroundImageFix" result="shape"/>
<feGaussianBlur stdDeviation="8.24601" result="effect1_foregroundBlur_1427_11258"/>
</filter>
<filter id="filter6_f_1427_11258" x="13.2955" y="126.602" width="404.318" height="491.154" filterUnits="userSpaceOnUse" color-interpolation-filters="sRGB">
<feFlood flood-opacity="0" result="BackgroundImageFix"/>
<feBlend mode="normal" in="SourceGraphic" in2="BackgroundImageFix" result="shape"/>
<feGaussianBlur stdDeviation="5.18473" result="effect1_foregroundBlur_1427_11258"/>
</filter>
<filter id="filter7_f_1427_11258" x="246.358" y="374.424" width="32.0511" height="32.0511" filterUnits="userSpaceOnUse" color-interpolation-filters="sRGB">
<feFlood flood-opacity="0" result="BackgroundImageFix"/>
<feBlend mode="normal" in="SourceGraphic" in2="BackgroundImageFix" result="shape"/>
<feGaussianBlur stdDeviation="4.71339" result="effect1_foregroundBlur_1427_11258"/>
</filter>
<filter id="filter8_f_1427_11258" x="150.202" y="412.131" width="32.0511" height="32.0511" filterUnits="userSpaceOnUse" color-interpolation-filters="sRGB">
<feFlood flood-opacity="0" result="BackgroundImageFix"/>
<feBlend mode="normal" in="SourceGraphic" in2="BackgroundImageFix" result="shape"/>
<feGaussianBlur stdDeviation="4.71339" result="effect1_foregroundBlur_1427_11258"/>
</filter>
<filter id="filter9_f_1427_11258" x="344.396" y="474.348" width="32.0511" height="32.0511" filterUnits="userSpaceOnUse" color-interpolation-filters="sRGB">
<feFlood flood-opacity="0" result="BackgroundImageFix"/>
<feBlend mode="normal" in="SourceGraphic" in2="BackgroundImageFix" result="shape"/>
<feGaussianBlur stdDeviation="4.71339" result="effect1_foregroundBlur_1427_11258"/>
</filter>
<filter id="filter10_f_1427_11258" x="271.811" y="510.169" width="32.0511" height="32.0511" filterUnits="userSpaceOnUse" color-interpolation-filters="sRGB">
<feFlood flood-opacity="0" result="BackgroundImageFix"/>
<feBlend mode="normal" in="SourceGraphic" in2="BackgroundImageFix" result="shape"/>
<feGaussianBlur stdDeviation="4.71339" result="effect1_foregroundBlur_1427_11258"/>
</filter>
<filter id="filter11_f_1427_11258" x="163.671" y="516.095" width="50.3659" height="50.3659" filterUnits="userSpaceOnUse" color-interpolation-filters="sRGB">
<feFlood flood-opacity="0" result="BackgroundImageFix"/>
<feBlend mode="normal" in="SourceGraphic" in2="BackgroundImageFix" result="shape"/>
<feGaussianBlur stdDeviation="7.40675" result="effect1_foregroundBlur_1427_11258"/>
</filter>
<filter id="filter12_f_1427_11258" x="290.472" y="356.334" width="32.0511" height="32.0511" filterUnits="userSpaceOnUse" color-interpolation-filters="sRGB">
<feFlood flood-opacity="0" result="BackgroundImageFix"/>
<feBlend mode="normal" in="SourceGraphic" in2="BackgroundImageFix" result="shape"/>
<feGaussianBlur stdDeviation="4.71339" result="effect1_foregroundBlur_1427_11258"/>
</filter>
<filter id="filter13_f_1427_11258" x="293.355" y="246.083" width="32.0511" height="32.0511" filterUnits="userSpaceOnUse" color-interpolation-filters="sRGB">
<feFlood flood-opacity="0" result="BackgroundImageFix"/>
<feBlend mode="normal" in="SourceGraphic" in2="BackgroundImageFix" result="shape"/>
<feGaussianBlur stdDeviation="4.71339" result="effect1_foregroundBlur_1427_11258"/>
</filter>
<filter id="filter14_f_1427_11258" x="206.764" y="292.411" width="32.0511" height="32.0511" filterUnits="userSpaceOnUse" color-interpolation-filters="sRGB">
<feFlood flood-opacity="0" result="BackgroundImageFix"/>
<feBlend mode="normal" in="SourceGraphic" in2="BackgroundImageFix" result="shape"/>
<feGaussianBlur stdDeviation="4.71339" result="effect1_foregroundBlur_1427_11258"/>
</filter>
<filter id="filter15_f_1427_11258" x="172.829" y="237.736" width="32.0511" height="32.0511" filterUnits="userSpaceOnUse" color-interpolation-filters="sRGB">
<feFlood flood-opacity="0" result="BackgroundImageFix"/>
<feBlend mode="normal" in="SourceGraphic" in2="BackgroundImageFix" result="shape"/>
<feGaussianBlur stdDeviation="4.71339" result="effect1_foregroundBlur_1427_11258"/>
</filter>
<filter id="filter16_f_1427_11258" x="235.045" y="208.513" width="32.0511" height="32.0511" filterUnits="userSpaceOnUse" color-interpolation-filters="sRGB">
<feFlood flood-opacity="0" result="BackgroundImageFix"/>
<feBlend mode="normal" in="SourceGraphic" in2="BackgroundImageFix" result="shape"/>
<feGaussianBlur stdDeviation="4.71339" result="effect1_foregroundBlur_1427_11258"/>
</filter>
<filter id="filter17_f_1427_11258" x="201.109" y="172.692" width="32.0511" height="32.0511" filterUnits="userSpaceOnUse" color-interpolation-filters="sRGB">
<feFlood flood-opacity="0" result="BackgroundImageFix"/>
<feBlend mode="normal" in="SourceGraphic" in2="BackgroundImageFix" result="shape"/>
<feGaussianBlur stdDeviation="4.71339" result="effect1_foregroundBlur_1427_11258"/>
</filter>
<filter id="filter18_f_1427_11258" x="245.419" y="125.557" width="32.0511" height="32.0511" filterUnits="userSpaceOnUse" color-interpolation-filters="sRGB">
<feFlood flood-opacity="0" result="BackgroundImageFix"/>
<feBlend mode="normal" in="SourceGraphic" in2="BackgroundImageFix" result="shape"/>
<feGaussianBlur stdDeviation="4.71339" result="effect1_foregroundBlur_1427_11258"/>
</filter>
<filter id="filter19_f_1427_11258" x="126.637" y="327.289" width="32.0511" height="32.0511" filterUnits="userSpaceOnUse" color-interpolation-filters="sRGB">
<feFlood flood-opacity="0" result="BackgroundImageFix"/>
<feBlend mode="normal" in="SourceGraphic" in2="BackgroundImageFix" result="shape"/>
<feGaussianBlur stdDeviation="4.71339" result="effect1_foregroundBlur_1427_11258"/>
</filter>
<filter id="filter20_f_1427_11258" x="94.4762" y="-61.93" width="295.335" height="285.498" filterUnits="userSpaceOnUse" color-interpolation-filters="sRGB">
<feFlood flood-opacity="0" result="BackgroundImageFix"/>
<feBlend mode="normal" in="SourceGraphic" in2="BackgroundImageFix" result="shape"/>
<feGaussianBlur stdDeviation="18.1262" result="effect1_foregroundBlur_1427_11258"/>
</filter>
<filter id="filter21_f_1427_11258" x="167.557" y="8.83709" width="148.412" height="145.255" filterUnits="userSpaceOnUse" color-interpolation-filters="sRGB">
<feFlood flood-opacity="0" result="BackgroundImageFix"/>
<feBlend mode="normal" in="SourceGraphic" in2="BackgroundImageFix" result="shape"/>
<feGaussianBlur stdDeviation="18.1262" result="effect1_foregroundBlur_1427_11258"/>
</filter>
<filter id="filter22_f_1427_11258" x="202.527" y="40.6898" width="84.7039" height="81.204" filterUnits="userSpaceOnUse" color-interpolation-filters="sRGB">
<feFlood flood-opacity="0" result="BackgroundImageFix"/>
<feBlend mode="normal" in="SourceGraphic" in2="BackgroundImageFix" result="shape"/>
<feGaussianBlur stdDeviation="2.19711" result="effect1_foregroundBlur_1427_11258"/>
</filter>
<linearGradient id="paint0_linear_1427_11258" x1="75.2552" y1="409.852" x2="364.87" y2="436.943" gradientUnits="userSpaceOnUse">
<stop offset="0.176169" stop-color="#200947"/>
<stop offset="1" stop-color="#200D56"/>
</linearGradient>
<linearGradient id="paint1_linear_1427_11258" x1="281.163" y1="374.109" x2="256.318" y2="457.49" gradientUnits="userSpaceOnUse">
<stop stop-color="#FFCDC1"/>
<stop offset="0.592097" stop-color="#EE4F72"/>
</linearGradient>
<linearGradient id="paint2_linear_1427_11258" x1="281.163" y1="374.109" x2="256.318" y2="457.49" gradientUnits="userSpaceOnUse">
<stop stop-color="#FFCDC1"/>
<stop offset="0.592097" stop-color="#EE4F72"/>
</linearGradient>
<linearGradient id="paint3_linear_1427_11258" x1="285.448" y1="373.721" x2="260.603" y2="457.103" gradientUnits="userSpaceOnUse">
<stop stop-color="white"/>
<stop offset="0.592097" stop-color="#F16382"/>
</linearGradient>
<linearGradient id="paint4_linear_1427_11258" x1="286.878" y1="373.591" x2="262.033" y2="456.973" gradientUnits="userSpaceOnUse">
<stop stop-color="#FEAD9A"/>
<stop offset="0.592097" stop-color="#F16382"/>
</linearGradient>
<linearGradient id="paint5_linear_1427_11258" x1="286.878" y1="373.591" x2="262.033" y2="456.973" gradientUnits="userSpaceOnUse">
<stop stop-color="#FFCCC0"/>
<stop offset="0.592097" stop-color="#F16382"/>
</linearGradient>
<linearGradient id="paint6_linear_1427_11258" x1="186.537" y1="226.427" x2="247.382" y2="284.134" gradientUnits="userSpaceOnUse">
<stop stop-color="#E5B12A"/>
<stop offset="1" stop-color="#E94B70"/>
</linearGradient>
<linearGradient id="paint7_linear_1427_11258" x1="189.13" y1="223.316" x2="249.974" y2="281.024" gradientUnits="userSpaceOnUse">
<stop stop-color="#FFCF52"/>
<stop offset="1" stop-color="#F48DA5"/>
</linearGradient>
<linearGradient id="paint8_linear_1427_11258" x1="-47.7561" y1="593.18" x2="450.449" y2="445.651" gradientUnits="userSpaceOnUse">
<stop stop-color="white" stop-opacity="0"/>
<stop offset="0.740815" stop-color="#0C0063"/>
<stop offset="1" stop-color="white" stop-opacity="0"/>
</linearGradient>
<linearGradient id="paint9_linear_1427_11258" x1="-48.7262" y1="593.043" x2="449.479" y2="445.514" gradientUnits="userSpaceOnUse">
<stop stop-color="white" stop-opacity="0"/>
<stop offset="0.885167" stop-color="#FFBA07"/>
<stop offset="1" stop-color="white" stop-opacity="0"/>
</linearGradient>
<linearGradient id="paint10_linear_1427_11258" x1="-47.7561" y1="587.469" x2="450.449" y2="439.94" gradientUnits="userSpaceOnUse">
<stop stop-color="white" stop-opacity="0"/>
<stop offset="0.102127" stop-color="white"/>
<stop offset="1" stop-color="white" stop-opacity="0"/>
</linearGradient>
<linearGradient id="paint11_linear_1427_11258" x1="-47.7561" y1="590.27" x2="450.449" y2="442.741" gradientUnits="userSpaceOnUse">
<stop stop-color="white" stop-opacity="0"/>
<stop offset="0.740815" stop-color="white"/>
<stop offset="1" stop-color="white" stop-opacity="0"/>
</linearGradient>
<linearGradient id="paint12_linear_1427_11258" x1="-47.7561" y1="585.584" x2="450.449" y2="438.055" gradientUnits="userSpaceOnUse">
<stop stop-color="white" stop-opacity="0"/>
<stop offset="0.885167" stop-color="white"/>
<stop offset="1" stop-color="white" stop-opacity="0"/>
</linearGradient>
<linearGradient id="paint13_linear_1427_11258" x1="194.346" y1="89.2741" x2="280.034" y2="74.9929" gradientUnits="userSpaceOnUse">
<stop stop-color="white"/>
<stop offset="1" stop-color="white"/>
</linearGradient>
<linearGradient id="paint14_linear_1427_11258" x1="194.346" y1="89.2741" x2="280.034" y2="74.9929" gradientUnits="userSpaceOnUse">
<stop stop-color="white"/>
<stop offset="1" stop-color="white"/>
</linearGradient>
<linearGradient id="paint15_linear_1427_11258" x1="194.346" y1="89.2741" x2="280.034" y2="74.9929" gradientUnits="userSpaceOnUse">
<stop stop-color="#FFFCF3"/>
<stop offset="1" stop-color="white"/>
</linearGradient>
</defs>
</svg>
