<svg width="1154" height="550" viewBox="0 0 1154 550" fill="none" xmlns="http://www.w3.org/2000/svg">
<g clip-path="url(#clip0_1096_6118)">
<circle cx="636" cy="456" r="456" fill="url(#paint0_radial_1096_6118)"/>
<path d="M245.812 142.117C243.037 140.13 242.293 136.097 243.743 133.007C246.23 127.705 249.01 120.751 251.366 118.388C271.755 97.9411 298.573 85.6742 327.445 79.8526C361.106 73.0655 396.084 78.5412 426.06 95.2902C456.037 112.039 479.034 138.957 490.898 171.181C502.762 203.404 502.709 238.808 490.75 270.997C478.791 303.185 455.714 330.035 425.688 346.695C395.663 363.355 360.668 368.727 327.028 361.841C293.388 354.954 263.319 336.263 242.256 309.144C221.192 282.025 210.523 248.267 212.174 213.968L355.883 220.889L245.812 142.117Z" fill="#FF8B38"/>
<path fill-rule="evenodd" clip-rule="evenodd" d="M180.103 169.275C178.245 172.668 178.19 186.4 179.793 190.046C181.797 194.603 181.543 189.946 185.302 191.669C186.664 192.293 192.227 191.439 199.392 190.339C212 188.403 229.567 185.705 237.935 188.961C248.433 193.045 284.205 185.913 300.778 181.836C301.58 178.228 303.452 171.066 304.88 169.525C305 169.451 305.094 169.373 305.163 169.293C305.071 169.343 304.977 169.421 304.88 169.525C300.33 172.368 259.55 171.214 223.52 170.194C206.576 169.715 190.683 169.265 180.103 169.275Z" fill="#FD8A39"/>
<path d="M180.075 171.124C178.059 150.916 191.833 124.169 198.959 114.246C203.996 115.494 217.152 119.402 229.48 125.052C244.889 132.115 255.553 146.554 267.58 152.066C279.606 157.579 309.051 166.569 305.135 171.141C301.22 175.714 213.744 171.093 180.075 171.124Z" fill="#FF9D57"/>
<path fill-rule="evenodd" clip-rule="evenodd" d="M267.439 161.514C271.255 160.904 278.874 160.584 278.82 164.184C278.767 167.783 271.21 163.903 267.439 161.514ZM246.548 148.7C249.545 148.912 255.326 150.232 254.472 153.819C253.619 157.407 248.834 151.901 246.548 148.7ZM229.004 156.939C233.155 156.168 241.645 155.528 242.392 159.139C243.138 162.751 233.777 159.178 229.004 156.939Z" fill="#FF8B38"/>
<path d="M199.893 200.315C197.009 198.714 196.046 203.08 195.925 205.463C198.434 207.689 198.728 204.661 201.531 203.86C204.334 203.058 203.498 202.316 199.893 200.315Z" fill="#FFB27A"/>
<path d="M178.328 212.349C179.804 215.298 183.064 212.238 184.509 210.339C183.694 207.085 178.23 208.912 175.463 207.991C172.697 207.071 176.481 208.662 178.328 212.349Z" fill="#FFDBC1"/>
<path d="M192.01 193.026C192.142 190.991 189.662 190.844 188.406 191.025L187.5 194.406C188.949 194.794 191.879 195.062 192.01 193.026Z" fill="#FD8A39"/>
<path d="M304.533 190.287C303.816 191.105 305.151 193.128 305.908 194.038L307.482 193.221C306.798 191.902 305.25 189.468 304.533 190.287Z" fill="#FD8A39"/>
<path d="M251.384 118.943C275.736 95.4544 308.38 80.7452 343.21 77.5665C378.04 74.3878 412.67 82.9574 440.623 101.672C468.577 120.387 487.938 147.966 495.087 179.249C502.235 210.533 496.681 243.379 479.464 271.644C462.246 299.909 434.543 321.657 401.538 332.82C368.532 343.984 332.485 343.798 300.137 332.297C267.789 320.796 241.357 298.769 225.784 270.334C211.014 243.364 206.972 212.382 214.243 182.639C214.93 179.825 217.624 178.001 220.495 178.379C243.44 181.398 261.562 188.817 284.698 189.051C309.477 189.302 312.482 196.178 329.077 201.157C336.961 203.523 345.359 206.123 354.423 208.989C345.142 196.661 337.99 181.413 328.797 177.085C319.604 172.758 307.533 163.716 296.277 145.836C285.021 127.956 268.943 127.344 251.384 118.943Z" fill="#FF9D57"/>
<path d="M321.203 133.951C322.154 137.484 325.119 144.835 329.369 145.974C334.682 147.398 326.515 135.374 321.203 133.951Z" fill="#FFB27A"/>
<path d="M379.224 107.051C377.692 110.374 375.264 117.92 377.8 121.516C380.97 126.01 382.393 111.546 379.224 107.051Z" fill="#FFB27A"/>
<path d="M326.564 149.881C326.607 151.968 327.241 156.445 329.438 157.658C332.184 159.174 329.311 151.398 326.564 149.881Z" fill="#FFB27A"/>
<path d="M410.455 149.194C409.63 151.159 408.361 155.566 409.888 157.47C411.796 159.851 412.364 151.575 410.455 149.194Z" fill="#FFB27A"/>
<path d="M418.327 141.468C417.284 142.59 415.338 145.25 415.898 146.913C416.597 148.991 419.026 143.547 418.327 141.468Z" fill="#FFB27A"/>
<path d="M320.944 134.917C321.895 138.45 324.86 145.801 329.11 146.94C334.423 148.363 326.256 136.34 320.944 134.917Z" fill="#FF8B38"/>
<path d="M378.965 108.017C377.434 111.34 375.005 118.886 377.541 122.482C380.711 126.976 382.135 112.512 378.965 108.017Z" fill="#FF8B38"/>
<path d="M326.305 150.847C326.348 152.934 326.982 157.411 329.179 158.624C331.926 160.14 329.052 152.363 326.305 150.847Z" fill="#FF8B38"/>
<path d="M410.196 150.16C409.371 152.125 408.102 156.532 409.629 158.436C411.538 160.817 412.105 152.541 410.196 150.16Z" fill="#FF8B38"/>
<path d="M418.068 142.434C417.026 143.556 415.08 146.216 415.639 147.879C416.338 149.957 418.767 144.513 418.068 142.434Z" fill="#FF8B38"/>
<path d="M315.885 289.923C318.422 287.287 323.193 280.957 321.978 276.728C320.459 271.442 314.366 284.637 315.885 289.923Z" fill="#FFB27A"/>
<path d="M262.925 254.072C266.562 253.671 274.28 251.862 276.054 247.836C278.271 242.802 265.143 249.039 262.925 254.072Z" fill="#FFB27A"/>
<path d="M326.772 277.117C328.538 276.005 332.047 273.154 331.954 270.646C331.837 267.511 326.655 273.982 326.772 277.117Z" fill="#FFB27A"/>
<path d="M282.938 205.586C285.047 205.28 289.477 204.095 290.322 201.805C291.378 198.942 283.994 202.723 282.938 205.586Z" fill="#FFB27A"/>
<path d="M272.259 202.823C273.758 203.138 277.041 203.434 278.177 202.098C279.598 200.427 273.68 201.152 272.259 202.823Z" fill="#FFB27A"/>
<path d="M315.626 290.889C318.163 288.253 322.934 281.923 321.719 277.694C320.2 272.408 314.107 285.603 315.626 290.889Z" fill="#FF8B38"/>
<path d="M262.667 255.038C266.304 254.637 274.021 252.828 275.795 248.802C278.012 243.768 264.884 250.005 262.667 255.038Z" fill="#FF8B38"/>
<path d="M326.513 278.083C328.279 276.971 331.788 274.12 331.695 271.612C331.579 268.477 326.396 274.948 326.513 278.083Z" fill="#FF8B38"/>
<path d="M282.679 206.551C284.788 206.246 289.218 205.061 290.063 202.771C291.119 199.908 283.735 203.689 282.679 206.551Z" fill="#FF8B38"/>
<path d="M272.001 203.789C273.5 204.104 276.782 204.4 277.918 203.064C279.339 201.393 273.421 202.118 272.001 203.789Z" fill="#FF8B38"/>
<path d="M275.614 226.816C273.988 232.884 232.915 238.586 213.455 243.798C213.838 241.71 216.316 237.202 223.162 235.87C231.719 234.205 266.126 222.489 272.274 217.607C278.421 212.725 299.479 212.43 307.311 210.631C313.576 209.192 342.197 208.56 355.725 208.423C330.573 210.587 278.331 216.674 275.614 226.816Z" fill="#FF8B38"/>
<g filter="url(#filter0_d_1096_6118)">
<path d="M266.935 122.747C265.951 115.855 251.605 113.886 260.184 110.651C268.764 107.417 270.451 119.231 276.499 112.34C282.547 105.448 266.795 107.698 274.952 101.51C283.11 95.322 281.984 108.542 288.454 104.605C294.924 100.667 283.813 100.245 291.127 95.1817C298.44 90.1188 297.033 101.37 301.534 97.7136C306.035 94.0571 299.565 90.9627 304.066 87.3061C308.567 83.6496 308.144 94.7604 313.77 91.9477C319.396 89.1351 311.661 84.2123 317.568 83.3686C323.475 82.525 321.224 87.8693 328.116 86.8851C335.008 85.9008 323.756 84.494 329.382 81.6813C335.008 78.8687 335.008 85.9008 339.93 85.1978C344.853 84.4948 341.337 73.9464 347.103 79.1504C352.869 84.3545 350.76 83.6511 354.979 78.0256C359.199 72.4 362.714 89.9805 363.137 78.8697C363.474 69.9811 368.809 76.3853 371.434 80.6984C372.519 82.7836 375.649 86.8467 379.491 86.4172C384.294 85.8804 372.42 74.1698 379.759 77.6892C387.098 81.2087 388.955 91.668 391.489 86.0721C394.024 80.4762 385.435 71.963 399.984 79.4849C414.532 87.0067 415.265 93.9323 413.661 88.3262" stroke="url(#paint1_linear_1096_6118)" stroke-width="9"/>
</g>
<g filter="url(#filter1_d_1096_6118)">
<path d="M235.734 178.659C229.279 181.265 221.114 171.666 222.147 179.539C223.18 187.411 234.246 182.944 230.951 190.721C227.656 198.499 222.541 185.827 220.807 194.816C219.073 203.805 230.103 196.59 229.574 203.251C229.045 209.911 223.684 201.944 222.553 209.769C221.422 217.594 230.607 211.123 229.439 216.2C228.271 221.276 222.664 218.013 221.496 223.09C220.327 228.167 229.832 222.488 229.906 227.984C229.98 233.481 222.209 230.171 224.127 234.922C226.045 239.674 229.697 235.437 231.935 240.981C234.173 246.525 227.889 238.93 227.963 244.426C228.037 249.923 234.173 246.525 235.771 250.485C237.37 254.445 226.586 256.956 233.718 258.682C240.85 260.408 239.288 259.197 236.275 265.018C233.263 270.839 250.182 264.93 240.677 270.609C233.074 275.152 241.059 275.982 246.002 275.828C248.308 275.619 253.26 275.957 254.612 278.99C256.301 282.782 240.748 279.707 247.117 283.405C253.485 287.102 263.445 283.413 259.702 287.981C255.958 292.549 247.414 295.352 257.771 297.411C262.265 295.403 271.239 292.212 271.183 295.51C271.114 299.632 262.118 308.092 272.554 307.783C282.989 307.473 280.658 292.992 284.299 304.519C287.939 316.046 277.857 316.968 290.673 319.367" stroke="#FFB27A" stroke-width="9"/>
</g>
<g filter="url(#filter2_d_1096_6118)">
<path d="M187.641 166.734C182.167 161.848 192.86 164.72 193.318 160.475C193.776 156.229 186.764 156.331 189.291 151.449C191.819 146.568 193.776 156.229 194.418 150.285C195.06 144.341 189.841 146.355 190.391 141.26C190.941 136.165 196.232 142.749 198.759 137.868C201.287 132.987 190.227 133.511 193.652 129.585C197.076 125.66 200.482 131.182 203.906 127.256C207.331 123.331 196.179 124.704 200.868 118.338C205.556 111.971 206.525 121.526 210.133 115.902" stroke="#FFC69D" stroke-width="9"/>
</g>
<path d="M512.519 180.532C521.486 179.904 534.009 148.877 511.373 144.153C495.767 140.896 481.27 144.458 467.855 147.754C461.693 149.268 455.759 150.726 450.05 151.442C435.136 153.311 405.752 148.846 380.094 144.903C391.955 146.746 400.912 148.969 427.125 162.436C448.647 173.493 486.359 183.779 512.354 180.541C512.391 180.54 512.429 180.538 512.467 180.536C512.484 180.535 512.502 180.534 512.519 180.532Z" fill="#8600A9"/>
<path fill-rule="evenodd" clip-rule="evenodd" d="M380.094 144.903C379.783 144.855 379.469 144.806 379.153 144.758L380.094 144.903Z" fill="#8600A9"/>
<path d="M580.75 192.869C563.594 233.528 570.463 325.846 592.829 367.242C577.087 370.203 556.596 371.396 541.052 367.242C523.721 362.61 500.442 261.107 493.809 209.223C502.821 190.442 522.3 176.87 544.931 178.207C542.57 178.882 540.266 195.608 544.931 195.148C544.931 195.148 551.356 180.632 554.728 181.837C561.202 184.152 573.508 188.33 580.75 192.869Z" fill="#5A0E3C"/>
<path d="M663.511 213.779C633.843 244.264 608.933 332.662 615.63 380.373C600.044 376.527 600.38 370.068 587.387 359.713C572.9 348.168 559.083 249.6 577.429 192.539C611.973 160.54 640.137 181.066 663.511 213.779Z" fill="#5A0E3C"/>
<path d="M740.879 235.079C711.212 265.565 658.417 352.394 665.114 400.104C649.527 396.258 630.141 388.787 617.148 378.432C602.661 366.887 615.481 263.112 626.913 212.27C661.457 180.272 717.506 202.367 740.879 235.079Z" fill="#5A0E3C"/>
<path d="M814.615 320.407C774.936 328.869 688.842 371.588 671.852 416.029C660.446 403.611 647.536 385.883 641.426 369.461C634.613 351.152 694.821 270.569 728.692 234.116C772.931 238.657 792.58 264.352 792.58 264.352L777.465 270.398L798.626 273.421C798.626 273.421 816.764 294.582 814.615 320.407Z" fill="#5A0E3C"/>
<path d="M580.75 198.159C563.594 238.819 570.463 331.136 592.83 372.532C577.087 375.493 556.597 376.686 541.052 372.532C523.721 367.9 500.442 266.397 493.81 214.513C502.821 195.732 522.3 182.161 544.931 183.498C542.57 184.172 540.267 200.899 544.931 200.438C544.931 200.438 551.356 185.922 554.729 187.128C561.202 189.442 573.509 193.62 580.75 198.159Z" fill="url(#paint2_linear_1096_6118)"/>
<path d="M580.75 198.159C563.594 238.819 570.463 331.136 592.83 372.532C577.087 375.493 556.597 376.686 541.052 372.532C523.721 367.9 500.442 266.397 493.81 214.513C502.821 195.732 522.3 182.161 544.931 183.498C542.57 184.172 540.267 200.899 544.931 200.438C544.931 200.438 551.356 185.922 554.729 187.128C561.202 189.442 573.509 193.62 580.75 198.159Z" fill="url(#paint3_linear_1096_6118)"/>
<path d="M663.511 219.069C633.844 249.555 608.934 337.953 615.63 385.663C600.044 381.817 600.38 375.358 587.387 365.003C572.901 353.458 559.083 254.89 577.43 197.83C611.974 165.831 640.137 186.357 663.511 219.069Z" fill="url(#paint4_linear_1096_6118)"/>
<path d="M740.88 240.369C711.213 270.855 658.418 357.684 665.114 405.394C649.528 401.548 630.141 394.077 617.148 383.722C602.662 372.177 615.481 268.402 626.914 217.561C661.458 185.562 717.506 207.657 740.88 240.369Z" fill="url(#paint5_linear_1096_6118)"/>
<path d="M814.614 325.697C774.936 334.159 688.842 376.878 671.851 421.32C660.445 408.901 647.536 391.173 641.426 374.751C634.613 356.442 694.821 275.859 728.691 239.406C772.931 243.947 792.58 269.643 792.58 269.643L777.465 275.688L798.626 278.711C798.626 278.711 816.764 299.872 814.614 325.697Z" fill="url(#paint6_linear_1096_6118)"/>
<g style="mix-blend-mode:overlay" opacity="0.2">
<path fill-rule="evenodd" clip-rule="evenodd" d="M750.256 391.815C759.989 386.873 775.902 338.668 784.922 335.111C745.998 287.408 698.398 250.351 628.959 240.369C587.78 234.45 536.201 240.291 499.775 251.324C501.536 260.63 509.956 298.629 512.131 308.305C545.23 297.429 569.35 309.395 607.183 314.833C666.014 323.29 716.304 352.044 750.256 391.815Z" fill="#D9D9D9"/>
<path fill-rule="evenodd" clip-rule="evenodd" d="M499.775 251.324C501.536 260.63 509.956 298.629 512.131 308.305C545.23 297.429 569.35 309.395 607.183 314.833C666.014 323.29 716.304 352.044 750.256 391.815C759.989 386.873 775.902 338.668 784.922 335.111C745.998 287.408 698.398 250.351 628.959 240.369C587.78 234.45 536.201 240.291 499.775 251.324Z" fill="#D9D9D9"/>
</g>
<path d="M852.541 428.083C812.604 421.283 718.611 429.48 689.21 465.028C682.205 449.08 675.384 427.569 674.575 409.822C673.673 390.033 754.686 336.522 797.585 314.786C841.624 324.883 860.997 387.38 852.541 428.083Z" fill="url(#paint7_linear_1096_6118)"/>
<path d="M832.357 506.299C807.467 490.552 743.372 469.512 715.806 484.768C714.803 472.237 715.189 456.076 718.698 444.098C722.611 430.744 788.439 418.129 821.794 415.817C848.649 434.903 847.231 481.733 832.357 506.299Z" fill="url(#paint8_linear_1096_6118)"/>
<ellipse cx="514.945" cy="242.567" rx="7.93257" ry="19.3085" transform="rotate(167.016 514.945 242.567)" fill="url(#paint9_radial_1096_6118)"/>
<ellipse cx="557.523" cy="219.698" rx="7.93257" ry="19.3085" transform="rotate(-166.995 557.523 219.698)" fill="url(#paint10_radial_1096_6118)"/>
<ellipse cx="586.898" cy="239.911" rx="7.93257" ry="19.3085" transform="rotate(-169.822 586.898 239.911)" fill="url(#paint11_radial_1096_6118)"/>
<ellipse cx="616.372" cy="212.704" rx="7.93257" ry="19.3085" transform="rotate(-169.822 616.372 212.704)" fill="url(#paint12_radial_1096_6118)"/>
<ellipse cx="654.16" cy="241.422" rx="7.93257" ry="19.3085" transform="rotate(-163.926 654.16 241.422)" fill="url(#paint13_radial_1096_6118)"/>
<ellipse cx="702.009" cy="240.255" rx="7.93257" ry="19.3085" transform="rotate(-150.172 702.009 240.255)" fill="url(#paint14_radial_1096_6118)"/>
<ellipse cx="732.733" cy="270.431" rx="7.93257" ry="19.3085" transform="rotate(-141.437 732.733 270.431)" fill="url(#paint15_radial_1096_6118)"/>
<path d="M558.378 298.043C546.468 323.437 551.237 381.095 566.764 406.95C555.835 408.799 541.61 409.544 530.819 406.95C518.786 404.057 502.625 340.662 498.021 308.257C504.277 296.527 517.8 288.051 533.511 288.886C531.872 289.307 530.273 299.754 533.512 299.466C533.512 299.466 537.972 290.4 540.313 291.153C544.807 292.598 553.351 295.208 558.378 298.043Z" fill="url(#paint16_linear_1096_6118)"/>
<path d="M615.834 311.102C595.238 330.143 577.944 385.353 582.593 415.151C571.773 412.749 572.006 408.715 562.986 402.248C552.929 395.037 543.336 333.475 556.073 297.837C580.055 277.852 599.607 290.671 615.834 311.102Z" fill="url(#paint17_linear_1096_6118)"/>
<path d="M669.546 324.406C648.95 343.446 612.298 397.676 616.947 427.474C606.126 425.072 592.667 420.406 583.647 413.939C573.59 406.728 582.49 341.914 590.426 310.16C614.408 290.175 653.319 303.975 669.546 324.406Z" fill="url(#paint18_linear_1096_6118)"/>
<path d="M720.736 377.699C693.189 382.984 633.419 409.664 621.624 437.421C613.706 429.665 604.744 418.592 600.502 408.336C595.772 396.901 637.571 346.572 661.085 323.804C692.005 319.505 717.752 351.779 720.736 377.699Z" fill="url(#paint19_linear_1096_6118)"/>
<path d="M558.378 301.822C546.468 327.216 551.237 384.874 566.764 410.728C555.835 412.578 541.61 413.323 530.819 410.728C518.786 407.836 502.625 344.441 498.021 312.036C504.277 300.306 517.8 291.829 533.511 292.664C531.872 293.086 530.273 303.532 533.512 303.245C533.512 303.245 537.972 294.179 540.313 294.932C544.807 296.377 553.351 298.986 558.378 301.822Z" fill="url(#paint20_linear_1096_6118)"/>
<path d="M615.834 314.881C595.238 333.921 577.944 389.132 582.593 418.93C571.773 416.528 572.006 412.494 562.986 406.027C552.929 398.816 543.336 337.253 556.073 301.616C580.055 281.63 599.607 294.45 615.834 314.881Z" fill="url(#paint21_linear_1096_6118)"/>
<path d="M669.546 328.185C648.95 347.225 612.298 401.455 616.947 431.253C606.126 428.851 592.667 424.185 583.647 417.718C573.59 410.507 582.49 345.693 590.426 313.939C614.408 293.954 653.319 307.753 669.546 328.185Z" fill="url(#paint22_linear_1096_6118)"/>
<path d="M720.736 381.477C693.189 386.762 633.419 413.443 621.624 441.2C613.706 433.443 604.744 422.371 600.502 412.115C595.772 400.679 637.571 350.35 661.085 327.583C692.005 323.284 717.752 355.557 720.736 381.477Z" fill="url(#paint23_linear_1096_6118)"/>
<path d="M746.541 435.984C718.815 431.737 653.561 436.856 633.15 459.058C628.287 449.098 623.552 435.663 622.99 424.578C622.364 412.219 678.606 378.798 708.388 365.222C738.962 371.528 752.411 410.562 746.541 435.984Z" fill="url(#paint24_linear_1096_6118)"/>
<path d="M732.528 484.834C715.249 474.999 670.751 461.858 651.614 471.387C650.918 463.561 651.186 453.467 653.622 445.986C656.339 437.645 702.039 429.766 725.195 428.323C743.839 440.243 742.855 469.491 732.528 484.834Z" fill="url(#paint25_linear_1096_6118)"/>
<g filter="url(#filter3_f_1096_6118)">
<path d="M434.268 323.483C475.725 348.334 526.075 378.524 522.013 436.1C517.95 493.676 426.702 565.741 350.111 453.612C273.52 341.483 318.42 246.764 318.623 276.21C318.826 305.657 364.627 341.343 346.567 309.433C328.507 277.524 354.573 223.233 359.899 256.388C365.225 289.543 382.721 285.903 377.55 275.183C375.783 271.521 376.509 267.606 378.332 264.019C380.869 259.027 387.952 262.287 389.159 267.755C392.651 283.582 404.375 305.564 434.268 323.483Z" fill="#D26851"/>
</g>
<path d="M435.024 324.238C476.481 349.089 526.831 379.279 522.768 436.855C518.706 494.432 427.458 566.497 350.867 454.368C319.312 408.172 308.378 364.931 306.445 332.111C306.237 328.587 307.368 330.851 307.354 327.576C307.342 324.974 306.152 316.785 306.247 314.351C306.322 312.405 309.486 315.428 309.621 313.595C309.825 310.815 306.153 310.189 307.354 300.747C307.827 297.028 311.645 303.443 312.3 300.369C312.865 297.721 307.354 297.724 310.892 283.365C314.666 270.839 319.314 267.537 319.379 276.966C319.582 306.412 365.382 342.099 347.323 310.189C329.263 278.279 355.329 223.989 360.655 257.144C365.981 290.299 383.476 286.659 378.305 275.939C376.539 272.277 377.265 268.362 379.088 264.774C381.624 259.783 388.708 263.043 389.914 268.51C393.407 284.338 405.131 306.319 435.024 324.238Z" fill="url(#paint26_linear_1096_6118)"/>
<ellipse cx="333.566" cy="365.754" rx="7.93257" ry="19.3085" transform="rotate(162.649 333.566 365.754)" fill="url(#paint27_radial_1096_6118)"/>
<ellipse cx="337.345" cy="351.395" rx="7.93257" ry="19.3085" transform="rotate(162.649 337.345 351.395)" fill="url(#paint28_radial_1096_6118)"/>
<ellipse cx="322.23" cy="330.99" rx="7.93257" ry="19.3085" transform="rotate(162.649 322.23 330.99)" fill="url(#paint29_radial_1096_6118)"/>
<ellipse cx="375.965" cy="334.225" rx="7.22218" ry="19.3085" transform="rotate(152.008 375.965 334.225)" fill="url(#paint30_radial_1096_6118)"/>
<ellipse cx="368.928" cy="304.182" rx="7.22218" ry="19.3085" transform="rotate(152.008 368.928 304.182)" fill="url(#paint31_radial_1096_6118)"/>
<ellipse cx="379.509" cy="318.542" rx="7.22218" ry="19.3085" transform="rotate(147.104 379.509 318.542)" fill="url(#paint32_radial_1096_6118)"/>
<path d="M405.635 327.954C419.094 324.919 440.72 331.612 463.564 342.026C493.059 355.471 524.584 375.117 543.181 388.036C581.479 422.603 627.534 487.17 510.055 472.535C508.529 472.345 506.976 472.141 505.394 471.924C351.222 450.763 324.771 351.382 355.756 351.76C371.178 351.948 374.057 348.205 377.81 343.326C381.597 338.401 386.275 332.32 405.635 327.954Z" fill="#5C0A3C"/>
<path fill-rule="evenodd" clip-rule="evenodd" d="M510.055 472.535C517.398 461.184 521.932 448.712 522.768 436.855C525.919 392.201 496.34 364.019 463.564 342.026C440.72 331.612 419.094 324.919 405.635 327.954C386.275 332.32 381.597 338.401 377.81 343.326C374.057 348.205 371.178 351.948 355.756 351.76C324.771 351.382 351.222 450.763 505.394 471.924C506.976 472.141 508.529 472.345 510.055 472.535Z" fill="#5C0A3C"/>
<ellipse cx="410.652" cy="358.197" rx="7.93257" ry="19.3085" transform="rotate(147.423 410.652 358.197)" fill="url(#paint33_radial_1096_6118)"/>
<ellipse cx="406.09" cy="379.86" rx="7.93257" ry="19.3085" transform="rotate(147.423 406.09 379.86)" fill="url(#paint34_radial_1096_6118)"/>
<ellipse cx="365.28" cy="376.836" rx="7.93257" ry="19.3085" transform="rotate(147.423 365.28 376.836)" fill="url(#paint35_radial_1096_6118)"/>
<path d="M496.083 588.865C586.787 641.584 643.933 591.349 661.167 559.642C693.43 513.593 725.254 410.012 594.45 364.077C463.645 318.142 415.15 393.814 407.253 437.392C399.069 465.916 405.378 536.145 496.083 588.865Z" fill="#651545"/>
<path fill-rule="evenodd" clip-rule="evenodd" d="M430.528 531.961C442.879 539.514 457.67 545.01 475.166 546.743C544.581 553.615 527.106 571.034 548.472 556.945C550.6 555.542 552.766 554.114 555.026 552.676C563.403 547.345 551.599 544.231 532.89 539.295C495.9 529.538 466.934 483.676 478.567 428.468C486.244 392.032 468.899 373.235 446.672 372.841C422.678 391.457 410.821 417.701 407.253 437.391C401.822 456.319 402.773 493.609 430.528 531.961Z" fill="#4C0630"/>
<ellipse cx="389.765" cy="231.219" rx="20.4052" ry="22.2945" fill="#4B062F"/>
<path d="M376.917 156.778C367.074 171.438 389.011 209.633 384.476 218.954L434.356 228.779C435.111 250.191 436.169 295.587 434.356 305.865C432.088 318.712 429.065 345.164 445.692 427.54C463.074 427.54 452.331 417.347 463.074 409.402C469.066 404.971 483.042 405.816 489.338 400.333C496.063 394.477 493.578 382.457 499.349 376.905C508.829 367.787 521.266 376.905 527.312 363.302C502.327 344.563 482.568 379.506 479.975 315.107C479.744 309.379 479.649 302.865 479.699 295.457C479.758 286.524 480.343 278.235 481.315 270.517C482.179 263.658 485.977 267.117 484.727 251.246C483.477 235.375 488.674 236.275 490.963 229.707C494.688 219.02 498.778 209.856 502.306 201.744C516.815 168.377 521.785 152.813 452.493 122.219C380.453 90.4109 394.677 130.326 376.917 156.778Z" fill="url(#paint36_linear_1096_6118)"/>
<path d="M376.917 156.778C367.074 171.438 389.011 209.633 384.476 218.954L434.356 228.779C435.111 250.191 436.169 295.587 434.356 305.865C432.088 318.712 429.065 345.164 445.692 427.54C463.074 427.54 452.331 417.347 463.074 409.402C469.066 404.971 483.042 405.816 489.338 400.333C496.063 394.477 493.578 382.457 499.349 376.905C508.829 367.787 521.266 376.905 527.312 363.302C502.327 344.563 482.568 379.506 479.975 315.107C479.744 309.379 479.649 302.865 479.699 295.457C479.758 286.524 480.343 278.235 481.315 270.517C482.179 263.658 485.977 267.117 484.727 251.246C483.477 235.375 488.674 236.275 490.963 229.707C494.688 219.02 498.778 209.856 502.306 201.744C516.815 168.377 521.785 152.813 452.493 122.219C380.453 90.4109 394.677 130.326 376.917 156.778Z" fill="url(#paint37_radial_1096_6118)"/>
<path d="M539.403 359.696C523.683 355.161 502.623 359.57 494.058 362.341C481.84 358.058 461.561 350.627 478.187 355.161C498.97 360.829 526.933 351.005 539.403 359.696Z" fill="#48042D"/>
<g opacity="0.6">
<path d="M540.883 374.651C522.64 382.199 510.762 379.173 507.103 376.717C509.585 377.52 519.242 377.597 538.017 371.479C556.009 365.615 565.291 367.509 568.056 369.375C568.185 369.454 568.292 369.535 568.381 369.618C568.285 369.537 568.177 369.456 568.056 369.375C565.914 368.06 558.095 367.53 540.883 374.651Z" fill="#48042D"/>
<path d="M579.32 379.818C568.954 381.658 563.338 378.477 561.825 376.657C562.974 377.416 567.88 378.688 578.313 377.703C588.311 376.76 592.767 378.986 593.909 380.367C593.963 380.427 594.006 380.485 594.039 380.542C594.002 380.486 593.958 380.427 593.909 380.367C593.005 379.369 589.1 378.082 579.32 379.818Z" fill="#48042D"/>
<path d="M600.128 377.122C605.408 380.293 609.141 379.729 610.347 379.051C609.561 379.225 606.615 378.895 601.12 376.177C595.854 373.573 592.955 373.858 592.042 374.374C592 374.395 591.964 374.418 591.934 374.442C591.967 374.419 592.003 374.396 592.042 374.374C592.744 374.017 595.147 374.13 600.128 377.122Z" fill="#48042D"/>
</g>
<path fill-rule="evenodd" clip-rule="evenodd" d="M452.493 122.219C404.603 98.0162 384.081 122.585 380.169 146.197C399.617 151.235 441.309 160.783 452.493 158.667C466.473 156.022 491.537 156.054 499.032 173.609C501.13 155.794 491.566 141.965 452.493 122.219Z" fill="url(#paint38_linear_1096_6118)"/>
<ellipse cx="393.545" cy="190.786" rx="9.06896" ry="21.9167" fill="#4A052E"/>
<ellipse cx="391.278" cy="193.053" rx="9.06896" ry="21.9167" fill="url(#paint39_radial_1096_6118)"/>
<ellipse cx="420.751" cy="193.053" rx="12.8477" ry="22.6724" fill="#4A052E"/>
<ellipse cx="423.396" cy="193.053" rx="12.4698" ry="21.9167" fill="url(#paint40_radial_1096_6118)"/>
<ellipse cx="427.552" cy="191.542" rx="7.55747" ry="12.8477" fill="white"/>
<path d="M424.835 188.361C425.565 186.944 426.601 185.976 427.755 185.633C428.909 185.29 430.104 185.595 431.124 186.493C432.145 187.39 432.922 188.82 433.315 190.524C433.708 192.228 433.692 194.092 433.268 195.779C432.844 197.465 432.041 198.862 431.006 199.715C429.97 200.569 428.769 200.823 427.622 200.431C426.474 200.04 425.456 199.028 424.753 197.58C424.049 196.133 423.705 194.345 423.785 192.541L428.686 193.053L424.835 188.361Z" fill="#400C2B"/>
<ellipse cx="393.166" cy="193.809" rx="7.17959" ry="12.8477" fill="white"/>
<path d="M391.184 162.885C387.854 165.485 382.441 163.494 375.994 164.025C372.365 165.144 368.946 159.666 377.835 157.871C386.725 156.076 394.514 160.285 391.184 162.885Z" fill="#400C2B"/>
<path d="M421.977 163.68C424.099 167.333 429.865 167.501 435.65 170.394C438.601 172.784 443.814 168.973 436.233 163.997C428.651 159.021 419.854 160.027 421.977 163.68Z" fill="#400C2B"/>
<path d="M390.745 189.117C391.419 187.699 392.375 186.732 393.44 186.389C394.505 186.046 395.609 186.351 396.55 187.248C397.492 188.146 398.21 189.576 398.573 191.28C398.936 192.984 398.92 194.848 398.529 196.534C398.138 198.221 397.397 199.617 396.441 200.471C395.484 201.325 394.376 201.579 393.317 201.187C392.258 200.795 391.318 199.784 390.669 198.336C390.019 196.888 389.702 195.1 389.776 193.297L394.3 193.809L390.745 189.117Z" fill="#400C2B"/>
<path d="M410.927 209.129C392.185 197.642 379.941 219.458 376.163 231.802C376.163 249.94 412.942 258.001 431.332 259.764C432.592 266.062 415.564 283.906 415.46 305.282C415.063 387.441 467.757 385.697 455.516 311.911C453.503 299.774 463.074 243.138 463.829 224.244C464.585 205.351 434.355 223.489 410.927 209.129Z" fill="#651545"/>
<ellipse cx="461.939" cy="304.904" rx="4.15661" ry="5.29023" fill="url(#paint41_radial_1096_6118)"/>
<ellipse cx="465.718" cy="331.355" rx="4.15661" ry="5.29023" transform="rotate(-13.9464 465.718 331.355)" fill="url(#paint42_radial_1096_6118)"/>
<ellipse cx="444.953" cy="340.514" rx="4.15661" ry="5.29023" transform="rotate(-4.57138 444.953 340.514)" fill="url(#paint43_radial_1096_6118)"/>
<ellipse cx="455.546" cy="349.807" rx="4.15661" ry="5.29023" transform="rotate(-9.12966 455.546 349.807)" fill="url(#paint44_radial_1096_6118)"/>
<path d="M380.034 299.84C373.384 297.422 378.775 278.679 382.302 269.61C379.531 267.091 377.011 262.658 389.103 265.076C404.218 268.099 433.692 252.984 446.54 241.648C446.54 245.426 447.296 253.74 444.273 266.587C441.25 279.435 428.217 278.637 416.973 286.216C405.73 293.794 388.348 302.863 380.034 299.84Z" fill="#EB6B32"/>
<path d="M384.853 290.167C380.62 290.771 383.089 274.8 384.853 268.25L410.927 260.52C423.019 254.978 445.843 245.859 440.401 253.718C433.6 263.543 390.143 289.411 384.853 290.167Z" fill="#CE521B"/>
<path d="M387.499 288.483C383.267 289.087 385.735 276.139 387.499 269.589L410.927 260.52C423.019 254.978 445.842 245.859 440.401 253.718C433.599 263.543 392.789 287.727 387.499 288.483Z" fill="#AC3500"/>
<path d="M392.41 281.476C388.48 281.174 392.536 271.777 395.055 267.117L429.819 256.914C418.987 265.227 396.34 281.778 392.41 281.476Z" fill="#7B2600"/>
<path d="M373.232 271.878C336.957 269.61 326.376 284.725 322.597 277.168C316.551 267.343 344.514 247.694 352.827 243.915C361.141 240.136 388.347 220.487 394.393 221.243C400.439 221.998 407.997 243.915 424.623 247.694C441.25 251.472 448.807 234.09 446.54 243.915C444.273 253.74 409.508 274.145 373.232 271.878Z" fill="#F07D49"/>
<path d="M373.233 271.878C336.957 269.61 326.377 284.725 322.598 277.168C337.62 252.207 414.103 243.355 424.624 247.694C441.25 251.472 448.807 234.09 446.54 243.915C444.273 253.74 409.509 274.145 373.233 271.878Z" fill="#EB6B32"/>
<ellipse rx="3.45648" ry="5.10197" transform="matrix(0.553817 -0.832639 0.606789 0.794863 395.788 239.168)" fill="#FFB8A9"/>
<ellipse rx="2.58467" ry="5.10197" transform="matrix(0.553817 -0.832639 0.606789 0.794863 395.081 240.306)" fill="#4C0630"/>
<path d="M406.751 244.492C404.551 240.316 403.233 223.364 390.867 221.594C393.568 211.55 397.079 219.002 406.346 222.258C411.9 224.209 407.525 228.574 413.324 234.207C422.572 243.189 409.502 249.712 406.751 244.492Z" fill="#860012"/>
<path d="M408.416 243.875C406.43 232.892 402.597 220.981 391.022 222.021C388.894 215.325 395.437 210.95 403.132 214.654C410.828 218.358 408.416 228.574 415.128 233.69C425.152 241.329 409.492 249.825 408.416 243.875Z" fill="#E2263F"/>
<path opacity="0.3" d="M623.668 402.395C575.465 405.952 518.584 387.306 496.325 440.56C474.065 493.815 531.229 614.959 650.059 549.242C768.888 483.525 771.371 378.731 757.95 404.942C744.528 431.153 687.573 442.435 718.051 422.053C748.53 401.671 749.659 341.458 729.994 368.678C710.329 395.897 696.339 384.779 705.777 377.529C709.002 375.053 710.114 371.23 710.098 367.205C710.077 361.606 701.927 361.133 698.317 365.412C685.735 380.329 659.73 399.734 623.668 402.395Z" fill="#4C0630"/>
<path d="M700.96 359.849C686.245 376.446 654.544 400.049 617.622 402.773C615.373 402.939 622.173 397.389 619.89 397.468C617.76 397.541 601.636 402.759 599.484 402.773C597.226 402.788 608.938 397.595 606.664 397.561C600.507 397.469 594.308 397.234 588.148 397.032C571.734 396.495 555.598 396.201 541.292 399.52C536.952 400.527 532.781 401.867 528.822 403.633C525.656 405.045 522.626 406.73 519.753 408.735C517.374 410.397 512.835 410.469 510.684 412.598C509.136 414.13 509.917 417.6 508.498 419.4C507.376 420.823 506.43 416.664 505.394 418.266C504.525 419.609 503.554 426.685 502.749 428.16C501.54 430.374 504.834 420.533 500.482 423.178C496.129 425.823 496.902 442.105 496.129 445.851C484.382 502.772 541.589 605.612 653.082 543.952C771.911 478.234 774.395 373.441 760.973 399.652C747.551 425.862 690.596 437.145 721.075 416.763C751.553 396.381 752.682 336.168 733.017 363.387C713.353 390.607 699.362 379.489 708.801 372.239C712.025 369.762 713.137 365.939 713.122 361.915C713.1 356.316 704.674 355.66 700.96 359.849Z" fill="url(#paint45_radial_1096_6118)"/>
<path d="M733.017 363.388C713.352 390.607 699.362 379.489 708.8 372.239C712.025 369.762 713.137 365.939 713.121 361.915C713.1 356.316 704.95 355.842 701.34 360.122C692.561 370.53 677.248 383.123 656.543 390.689C602.734 410.344 608.931 437.538 598.728 487.795C588.526 538.052 655.424 542.615 653.082 543.952C771.911 478.235 774.394 373.441 760.973 399.652C747.551 425.862 690.596 437.145 721.074 416.763C751.553 396.381 752.682 336.168 733.017 363.388Z" fill="#4C0630"/>
<path d="M366.303 119.813C382.533 122.522 395.272 129.823 399.613 133.134L403.593 137.997C408.273 139.014 409.085 140.984 374.892 140.724C332.151 140.399 346.017 116.428 366.303 119.813Z" fill="#8D1AAB"/>
<path d="M394.861 94.0313C388.872 101.917 386.836 118.776 382.025 133.345C372.404 132.342 355.523 134.888 348.285 136.286C362.958 140.095 397.756 147.902 419.561 148.655C441.366 149.408 452.037 148.115 454.647 147.374C481.184 142.387 492.233 135.192 506.305 141.96C505 136.251 506.154 127.06 507.189 117.138C508.482 104.735 507.088 96.232 502.039 90.0067C496.989 83.7815 457.918 75.9095 449.548 72.3776C441.178 68.8456 421.752 65.6809 414.219 68.6949C406.686 71.7089 402.347 84.1739 394.861 94.0313Z" fill="url(#paint46_linear_1096_6118)"/>
<path d="M495.588 123.928C461.388 120.705 454.066 97.1172 451.994 87.6751C449.922 78.233 460.934 86.2038 465.351 87.8101C469.768 89.4164 478.206 117.588 495.588 123.928Z" fill="url(#paint47_linear_1096_6118)"/>
<path fill-rule="evenodd" clip-rule="evenodd" d="M500.49 140.031C499.111 140.422 495.48 140.968 489.145 141.285C463.8 139.505 395.669 124.094 385.803 119.741C384.305 116.999 384.634 114.802 387.835 113.713C400.03 119.217 473.284 137.195 500.49 140.031Z" fill="#33013F"/>
<path fill-rule="evenodd" clip-rule="evenodd" d="M500.49 138.519C499.111 138.911 495.48 139.457 489.145 139.773C463.8 137.994 395.669 122.583 385.803 118.23C384.305 115.487 384.634 113.29 387.835 112.202C400.03 117.706 473.284 135.683 500.49 138.519Z" fill="url(#paint48_linear_1096_6118)"/>
<path d="M401.837 111.027L396.011 132.127C395.892 132.556 395.492 132.713 395.193 132.613C392.9 131.838 390.328 130.842 388.32 129.8C387.309 129.275 386.526 128.782 386.007 128.352C385.708 128.104 385.584 127.948 385.54 127.89C385.316 126.346 385.193 122.333 385.607 118.135C385.819 115.997 386.162 113.9 386.668 112.129C387.19 110.301 387.815 109.079 388.427 108.444C388.63 108.232 389.071 107.968 389.977 107.839C390.873 107.711 392.019 107.746 393.356 107.94C396.026 108.328 399.052 109.29 401.516 110.262C401.742 110.351 401.944 110.641 401.837 111.027Z" stroke="#450D43" stroke-width="4.53448" stroke-linecap="round" stroke-linejoin="round"/>
<g filter="url(#filter4_f_1096_6118)">
<path d="M400.47 108.44L394.644 129.54C394.525 129.97 394.125 130.127 393.826 130.026C391.533 129.252 388.961 128.255 386.952 127.213C385.942 126.689 385.159 126.196 384.64 125.765C384.341 125.517 384.216 125.362 384.173 125.303C383.949 123.76 383.825 119.747 384.24 115.549C384.451 113.411 384.794 111.314 385.3 109.543C385.822 107.715 386.447 106.493 387.059 105.857C387.263 105.646 387.704 105.382 388.61 105.253C389.505 105.125 390.652 105.16 391.989 105.354C394.658 105.742 397.685 106.703 400.148 107.676C400.374 107.765 400.577 108.054 400.47 108.44Z" stroke="#FFC908" stroke-width="4.53448" stroke-linecap="round" stroke-linejoin="round"/>
</g>
<path d="M400.47 108.44L394.644 129.54C394.525 129.97 394.125 130.127 393.826 130.026C391.533 129.252 388.961 128.255 386.952 127.213C385.942 126.689 385.159 126.196 384.64 125.765C384.341 125.517 384.216 125.362 384.173 125.303C383.949 123.76 383.825 119.747 384.24 115.549C384.451 113.411 384.794 111.314 385.3 109.543C385.822 107.715 386.447 106.493 387.059 105.857C387.263 105.646 387.704 105.382 388.61 105.253C389.505 105.125 390.652 105.16 391.989 105.354C394.658 105.742 397.685 106.703 400.148 107.676C400.374 107.765 400.577 108.054 400.47 108.44Z" stroke="#FFC908" stroke-width="4.53448" stroke-linecap="round" stroke-linejoin="round"/>
<path d="M397.447 108.44L391.621 129.54C391.502 129.97 391.102 130.127 390.803 130.026C388.51 129.252 385.938 128.255 383.93 127.213C382.919 126.689 382.136 126.196 381.617 125.765C381.318 125.517 381.193 125.362 381.15 125.303C380.926 123.76 380.802 119.747 381.217 115.549C381.428 113.411 381.771 111.314 382.277 109.543C382.8 107.715 383.424 106.493 384.036 105.857C384.24 105.646 384.681 105.382 385.587 105.253C386.482 105.125 387.629 105.16 388.966 105.354C391.636 105.742 394.662 106.703 397.126 107.676C397.351 107.765 397.554 108.054 397.447 108.44Z" stroke="#FFDF6D" stroke-width="4.53448" stroke-linecap="round" stroke-linejoin="round"/>
<path fill-rule="evenodd" clip-rule="evenodd" d="M463.121 143.421C454.076 146.102 435.255 151.681 370.759 139.346C351.51 138.294 345.84 132.235 347.561 127.085C343.692 130.85 341.596 139.205 364.164 142.51C368.893 143.203 373.94 143.979 379.152 144.78C405.028 148.758 434.951 153.358 450.048 151.463C455.757 150.746 461.691 149.286 467.854 147.77C481.269 144.469 495.766 140.903 511.373 144.161C534.008 148.888 521.482 179.943 512.515 180.574C528.563 179.675 532.906 148.77 514.896 141.849C496.824 134.905 472.354 140.689 463.426 143.331C463.326 143.361 463.224 143.391 463.121 143.421Z" fill="url(#paint49_linear_1096_6118)"/>
<ellipse cx="457.404" cy="178.694" rx="4.15661" ry="5.29023" fill="url(#paint50_radial_1096_6118)"/>
<ellipse cx="469.496" cy="187.007" rx="4.15661" ry="5.29023" fill="url(#paint51_radial_1096_6118)"/>
<ellipse cx="474.031" cy="167.358" rx="4.15661" ry="5.29023" fill="url(#paint52_radial_1096_6118)"/>
<ellipse cx="452.114" cy="162.068" rx="4.15661" ry="5.29023" fill="url(#paint53_radial_1096_6118)"/>
<path d="M649.905 442.149C659.75 429.096 682.889 423.516 693.228 422.358C694.093 421.369 697.131 418.792 702.362 416.402C714.093 407.478 729.08 405.682 735.108 405.899C733.889 404.673 735.904 400.722 753.715 394.725C761.071 391.364 773.332 385.762 822.578 396.24C871.825 406.717 933.633 453.343 942.94 536.431C952.247 619.519 878.587 659.409 859.98 670.583C841.373 681.758 725.734 729.24 668.498 694.785C611.261 660.33 581.515 571.428 590.348 523.723C599.182 476.017 628.653 451.859 649.905 442.149Z" fill="url(#paint54_linear_1096_6118)"/>
<path d="M649.905 442.149C659.75 429.096 682.889 423.516 693.228 422.358C694.093 421.369 697.131 418.792 702.362 416.402C714.093 407.478 729.08 405.682 735.108 405.899C733.889 404.673 735.904 400.722 753.715 394.725C761.071 391.364 773.332 385.762 822.578 396.24C871.825 406.717 933.633 453.343 942.94 536.431C947.014 572.801 935.191 600.895 919.046 621.925C899.797 647.001 895.955 663.277 884.043 670.331C892.817 680.373 845.861 690.63 845.11 691.081C827.696 701.539 740.161 723.301 680.183 700.432C676.075 698.865 672.167 696.993 668.498 694.785C611.261 660.33 581.515 571.428 590.348 523.723C599.182 476.017 628.653 451.859 649.905 442.149Z" fill="url(#paint55_linear_1096_6118)"/>
<path fill-rule="evenodd" clip-rule="evenodd" d="M680.183 700.432C711.336 703.462 742.803 704.823 755.508 700.4C767.639 696.176 771.299 693.086 774.618 690.284C778.763 686.786 782.376 683.736 801.282 679.488C835.331 671.837 868.188 663.742 870.761 647.747C872.303 638.16 897.403 628.347 919.046 621.925C899.797 647.001 895.955 663.277 884.043 670.331C892.817 680.373 845.861 690.63 845.11 691.081C827.696 701.539 740.161 723.301 680.183 700.432Z" fill="#FFF054"/>
<path d="M613.964 521.011C610.277 487.276 633.396 464.453 645.417 457.259C630.866 463.906 619.272 479.59 613.044 493.334C606.817 507.078 600.483 562.079 613.865 576.401C602.467 536.481 617.651 554.747 613.964 521.011Z" fill="#F06D2F"/>
<path d="M821.209 428.308C798.121 403.436 765.733 405.971 752.425 410.348C766.976 403.701 786.422 405.204 800.888 409.494C815.355 413.783 861.078 445.003 863.144 464.494C840.429 429.745 844.296 453.181 821.209 428.308Z" fill="#F06D2F"/>
<path d="M667.135 457.217C660.398 473.468 656.527 502.769 663.454 516.202C644.704 511.924 652.675 479.631 667.135 457.217Z" fill="#F06D2F"/>
<path d="M696.202 451.841C695.454 464.451 698.781 488.386 705.223 500.621C693.824 494.326 692.25 468.484 696.202 451.841Z" fill="#F06D2F"/>
<path d="M731.962 451.878C738.778 460.621 750.924 479.835 756.342 492.273C754.903 481.413 741.452 461.781 731.962 451.878Z" fill="#F06D2F"/>
<path d="M731.436 424.959C745.67 428.321 769.965 440.211 779.662 451.792C779.315 436.451 751.925 425.955 731.436 424.959Z" fill="#F06D2F"/>
<path d="M902.593 543.308C905.265 577.507 879.244 601.656 865.899 609.456C881.971 602.113 895.188 585.687 902.498 571.449C909.808 557.211 918.863 500.966 904.89 486.915C915.696 527.105 899.92 509.109 902.593 543.308Z" fill="#E94E04"/>
<path d="M714.386 422.262C723.505 426.652 738.348 414.88 744.63 408.446C742.369 407.102 735.396 405.534 725.587 410.015C713.326 415.617 712.217 404.538 704.662 390.164C697.108 375.791 695.761 372.842 687.537 372.143C675.767 377.52 666.797 378.647 663.783 378.538C666.894 382.464 673.203 392.238 673.552 399.921C673.988 409.526 678.416 423.544 677.361 432.048C676.305 440.551 662.311 438.032 650.58 446.956C656.465 444.267 666.143 442.817 670.247 442.427C672.154 441.556 678.988 439.503 691.068 438.263C706.167 436.712 705.395 426.37 714.386 422.262Z" fill="#410F3C"/>
<path d="M663.784 378.538C669.057 374.941 681.189 368.626 687.538 372.142C683.5 378.443 669.748 382.943 663.784 378.538Z" fill="#FF8834"/>
<path d="M621.19 97.1456C622.643 105.695 631.118 115.816 635.174 119.808C635.334 120.497 636.075 122.558 637.764 125.295C640.832 132.848 646.688 138.681 649.232 140.654C648.48 140.725 648.519 142.983 654.7 151.45C657.074 155.298 661.032 161.712 683.575 174.37C706.118 187.028 741.158 189.613 761.765 159.775C782.372 129.937 759.852 88.9249 754.384 78.1288C748.917 67.3327 710.51 8.96484 679.82 3.10562C649.13 -2.7536 618.871 22.4127 612.921 44.3871C606.972 66.3615 614.329 86.0281 621.19 97.1456Z" fill="url(#paint56_linear_1096_6118)"/>
<path d="M621.19 97.1455C622.643 105.695 631.118 115.816 635.174 119.808C635.334 120.497 636.075 122.558 637.764 125.295C640.832 132.848 646.688 138.681 649.232 140.654C648.48 140.725 648.519 142.983 654.7 151.45C657.074 155.298 661.032 161.712 683.575 174.37C706.118 187.028 741.158 189.613 761.765 159.775C770.785 146.714 771.542 131.512 769.083 117.64C766.15 101.101 767.837 93.3205 764.316 86.4483C769.981 85.4551 752.567 65.34 752.346 64.9044C747.229 54.8004 715.299 16.2523 685.806 4.85325C683.786 4.07251 681.787 3.48116 679.82 3.10557C649.13 -2.75365 618.871 22.4127 612.922 44.3871C606.972 66.3614 614.33 86.0281 621.19 97.1455Z" fill="url(#paint57_linear_1096_6118)"/>
<path fill-rule="evenodd" clip-rule="evenodd" d="M685.806 4.85325C699.342 14.2899 712.671 24.4977 717.05 30.5952C721.232 36.4171 722.128 38.8951 722.94 41.1423C723.955 43.9482 724.839 46.3942 731.827 54.5405C744.41 69.211 756.411 83.6512 754.254 90.886C752.962 95.2223 761.398 107.695 769.083 117.64C766.15 101.101 767.837 93.3205 764.316 86.4483C769.981 85.4551 752.567 65.34 752.346 64.9044C747.229 54.8004 715.299 16.2523 685.806 4.85325Z" fill="#E76F35"/>
<path d="M622.173 53.531C613.844 65.6772 618.836 82.6435 622.373 89.6084C617.676 81.9968 616.027 71.8039 616.213 64.2153C616.399 56.6266 624.856 32.6068 633.295 31.4869C620.521 43.4568 630.501 41.3849 622.173 53.531Z" fill="#F06D2F"/>
<path d="M689.47 161.159C674.878 163.156 661.952 151.086 657.313 144.801C662.01 152.413 670.381 158.458 677.247 161.694C684.114 164.931 709.376 168.144 714.161 161.104C697.733 167.153 704.061 159.162 689.47 161.159Z" fill="#F06D2F"/>
<path d="M631.374 97.0431C631.855 88.2841 636.154 75.3185 641.735 72.3466C633.094 67.6418 629.893 83.1971 631.374 97.0431Z" fill="#F06D2F"/>
<path d="M642.35 109.108C644.581 103.842 650.786 95.4672 655.924 92.8059C649.926 91.4134 644.065 101.145 642.35 109.108Z" fill="#F06D2F"/>
<path d="M657.194 121.308C661.784 120.162 670.695 116.676 675.45 113.584C672.664 117.408 663.127 120.615 657.194 121.308Z" fill="#F06D2F"/>
<path d="M651.55 131.825C658.133 135.352 670.609 138.925 676.966 137.636C673.73 143.613 660.251 138.428 651.55 131.825Z" fill="#F06D2F"/>
<path d="M720.647 113.915C733.557 107.607 734.435 89.8992 733.261 81.8341C735.402 91.0929 733.482 101.009 730.593 107.635C727.704 114.261 710.442 131.024 701.338 127.502C718.772 123.727 707.737 120.224 720.647 113.915Z" fill="#F06D2F"/>
<path d="M751.634 135.626C764.544 129.318 765.422 111.61 764.247 103.545C766.389 112.804 764.468 122.72 761.58 129.346C758.691 135.972 741.429 152.735 732.324 149.213C749.758 145.439 738.723 141.935 751.634 135.626Z" fill="#F06D2F"/>
<path d="M710.486 55.0103C702.046 50.8706 688.048 48.1178 682.91 51.8096C682.111 41.2159 698.085 46.3586 710.486 55.0103Z" fill="#F06D2F"/>
<path d="M721.064 69.2909C715.175 68.6288 704.694 70.0743 700.035 73.5125C701.242 67.1412 712.855 66.7294 721.064 69.2909Z" fill="#F06D2F"/>
<path d="M734.735 92.2187C735.289 100.259 733.415 113.866 729.535 119.17C736.515 119.259 737.294 103.864 734.735 92.2187Z" fill="#F06D2F"/>
<path d="M643.933 127.073C648.601 128.444 652.387 138.192 653.696 142.894C652.487 142.656 649.278 140.897 646.112 135.766C642.154 129.352 639.461 133.376 633.43 136.507C627.399 139.638 626.245 140.35 622.693 137.819C618.893 131.661 615.399 128.149 614.127 127.163C616.209 126.666 620.796 124.937 622.489 122.003C624.606 118.335 629.268 114.277 630.544 110.538C631.82 106.799 625.506 103.019 622.438 95.4659C624.338 98.5446 628.061 102.427 629.685 103.983C630.3 104.981 632.722 108.131 637.484 112.75C643.435 118.524 641.031 122.37 643.933 127.073Z" fill="#410F3C"/>
<path d="M614.127 127.164C615.59 130.394 619.35 137.048 622.693 137.819C622.288 133.936 617.489 127.451 614.127 127.164Z" fill="#FF8834"/>
</g>
<defs>
<filter id="filter0_d_1096_6118" x="252.957" y="69.9034" width="165.802" height="57.4797" filterUnits="userSpaceOnUse" color-interpolation-filters="sRGB">
<feFlood flood-opacity="0" result="BackgroundImageFix"/>
<feColorMatrix in="SourceAlpha" type="matrix" values="0 0 0 0 0 0 0 0 0 0 0 0 0 0 0 0 0 0 127 0" result="hardAlpha"/>
<feOffset dy="4"/>
<feComposite in2="hardAlpha" operator="out"/>
<feColorMatrix type="matrix" values="0 0 0 0 1 0 0 0 0 0.545098 0 0 0 0 0.219608 0 0 0 1 0"/>
<feBlend mode="normal" in2="BackgroundImageFix" result="effect1_dropShadow_1096_6118"/>
<feBlend mode="normal" in="SourceGraphic" in2="effect1_dropShadow_1096_6118" result="shape"/>
</filter>
<filter id="filter1_d_1096_6118" x="216.126" y="171.869" width="75.3744" height="155.921" filterUnits="userSpaceOnUse" color-interpolation-filters="sRGB">
<feFlood flood-opacity="0" result="BackgroundImageFix"/>
<feColorMatrix in="SourceAlpha" type="matrix" values="0 0 0 0 0 0 0 0 0 0 0 0 0 0 0 0 0 0 127 0" result="hardAlpha"/>
<feOffset dy="4"/>
<feComposite in2="hardAlpha" operator="out"/>
<feColorMatrix type="matrix" values="0 0 0 0 1 0 0 0 0 0.545098 0 0 0 0 0.219608 0 0 0 1 0"/>
<feBlend mode="normal" in2="BackgroundImageFix" result="effect1_dropShadow_1096_6118"/>
<feBlend mode="normal" in="SourceGraphic" in2="effect1_dropShadow_1096_6118" result="shape"/>
</filter>
<filter id="filter2_d_1096_6118" x="181.581" y="111.551" width="32.3398" height="62.5402" filterUnits="userSpaceOnUse" color-interpolation-filters="sRGB">
<feFlood flood-opacity="0" result="BackgroundImageFix"/>
<feColorMatrix in="SourceAlpha" type="matrix" values="0 0 0 0 0 0 0 0 0 0 0 0 0 0 0 0 0 0 127 0" result="hardAlpha"/>
<feOffset dy="4"/>
<feComposite in2="hardAlpha" operator="out"/>
<feColorMatrix type="matrix" values="0 0 0 0 1 0 0 0 0 0.545098 0 0 0 0 0.219608 0 0 0 1 0"/>
<feBlend mode="normal" in2="BackgroundImageFix" result="effect1_dropShadow_1096_6118"/>
<feBlend mode="normal" in="SourceGraphic" in2="effect1_dropShadow_1096_6118" result="shape"/>
</filter>
<filter id="filter3_f_1096_6118" x="296.293" y="236.965" width="235.02" height="284.658" filterUnits="userSpaceOnUse" color-interpolation-filters="sRGB">
<feFlood flood-opacity="0" result="BackgroundImageFix"/>
<feBlend mode="normal" in="SourceGraphic" in2="BackgroundImageFix" result="shape"/>
<feGaussianBlur stdDeviation="4.53448" result="effect1_foregroundBlur_1096_6118"/>
</filter>
<filter id="filter4_f_1096_6118" x="376.409" y="97.6196" width="31.6465" height="39.9965" filterUnits="userSpaceOnUse" color-interpolation-filters="sRGB">
<feFlood flood-opacity="0" result="BackgroundImageFix"/>
<feBlend mode="normal" in="SourceGraphic" in2="BackgroundImageFix" result="shape"/>
<feGaussianBlur stdDeviation="2.64511" result="effect1_foregroundBlur_1096_6118"/>
</filter>
<radialGradient id="paint0_radial_1096_6118" cx="0" cy="0" r="1" gradientUnits="userSpaceOnUse" gradientTransform="translate(636 456) rotate(90) scale(456)">
<stop stop-color="#FF8334"/>
<stop offset="1" stop-color="#9847FF" stop-opacity="0"/>
</radialGradient>
<linearGradient id="paint1_linear_1096_6118" x1="398.301" y1="85.7635" x2="247.196" y2="128.097" gradientUnits="userSpaceOnUse">
<stop stop-color="#FFB27A"/>
<stop offset="1" stop-color="#FFCCA8"/>
</linearGradient>
<linearGradient id="paint2_linear_1096_6118" x1="501.136" y1="255.167" x2="550.073" y2="261.333" gradientUnits="userSpaceOnUse">
<stop stop-color="#590E3B"/>
<stop offset="0.0260417" stop-color="#590E3B"/>
<stop offset="1" stop-color="#47032C"/>
</linearGradient>
<linearGradient id="paint3_linear_1096_6118" x1="536.002" y1="303.015" x2="522.436" y2="185.878" gradientUnits="userSpaceOnUse">
<stop stop-color="#590E3B"/>
<stop offset="0.401042" stop-color="#590E3B"/>
<stop offset="1" stop-color="#47032C"/>
</linearGradient>
<linearGradient id="paint4_linear_1096_6118" x1="569.993" y1="236.857" x2="615.158" y2="260.361" gradientUnits="userSpaceOnUse">
<stop stop-color="#590E3B"/>
<stop offset="1" stop-color="#47032C"/>
</linearGradient>
<linearGradient id="paint5_linear_1096_6118" x1="620.922" y1="255.315" x2="675.97" y2="289.491" gradientUnits="userSpaceOnUse">
<stop stop-color="#590E3B"/>
<stop offset="1" stop-color="#47032C"/>
</linearGradient>
<linearGradient id="paint6_linear_1096_6118" x1="706.03" y1="267.523" x2="735.953" y2="329.18" gradientUnits="userSpaceOnUse">
<stop stop-color="#590E3B"/>
<stop offset="1" stop-color="#47032C"/>
</linearGradient>
<linearGradient id="paint7_linear_1096_6118" x1="767.284" y1="333.099" x2="772.594" y2="402.631" gradientUnits="userSpaceOnUse">
<stop stop-color="#590E3B"/>
<stop offset="1" stop-color="#47032C"/>
</linearGradient>
<linearGradient id="paint8_linear_1096_6118" x1="797.56" y1="419.41" x2="781.797" y2="465.77" gradientUnits="userSpaceOnUse">
<stop stop-color="#590E3B"/>
<stop offset="1" stop-color="#47032C"/>
</linearGradient>
<radialGradient id="paint9_radial_1096_6118" cx="0" cy="0" r="1" gradientUnits="userSpaceOnUse" gradientTransform="translate(514.416 219.397) rotate(89.2867) scale(42.482 28.8292)">
<stop offset="0.5625" stop-color="#4D0731" stop-opacity="0"/>
<stop offset="1" stop-color="#730E4B"/>
</radialGradient>
<radialGradient id="paint10_radial_1096_6118" cx="0" cy="0" r="1" gradientUnits="userSpaceOnUse" gradientTransform="translate(556.994 196.528) rotate(89.2867) scale(42.482 28.8292)">
<stop offset="0.5625" stop-color="#4D0731" stop-opacity="0"/>
<stop offset="1" stop-color="#730E4B"/>
</radialGradient>
<radialGradient id="paint11_radial_1096_6118" cx="0" cy="0" r="1" gradientUnits="userSpaceOnUse" gradientTransform="translate(586.369 216.741) rotate(89.2867) scale(42.482 28.8292)">
<stop offset="0.5625" stop-color="#4D0731" stop-opacity="0"/>
<stop offset="1" stop-color="#730E4B"/>
</radialGradient>
<radialGradient id="paint12_radial_1096_6118" cx="0" cy="0" r="1" gradientUnits="userSpaceOnUse" gradientTransform="translate(615.843 189.534) rotate(89.2867) scale(42.482 28.8292)">
<stop offset="0.5625" stop-color="#4D0731" stop-opacity="0"/>
<stop offset="1" stop-color="#730E4B"/>
</radialGradient>
<radialGradient id="paint13_radial_1096_6118" cx="0" cy="0" r="1" gradientUnits="userSpaceOnUse" gradientTransform="translate(653.631 218.252) rotate(89.2867) scale(42.482 28.8292)">
<stop offset="0.5625" stop-color="#4D0731" stop-opacity="0"/>
<stop offset="1" stop-color="#730E4B"/>
</radialGradient>
<radialGradient id="paint14_radial_1096_6118" cx="0" cy="0" r="1" gradientUnits="userSpaceOnUse" gradientTransform="translate(701.48 217.084) rotate(89.2867) scale(42.482 28.8292)">
<stop offset="0.5625" stop-color="#4D0731" stop-opacity="0"/>
<stop offset="1" stop-color="#730E4B"/>
</radialGradient>
<radialGradient id="paint15_radial_1096_6118" cx="0" cy="0" r="1" gradientUnits="userSpaceOnUse" gradientTransform="translate(732.204 247.261) rotate(89.2867) scale(42.482 28.8292)">
<stop offset="0.5625" stop-color="#4D0731" stop-opacity="0"/>
<stop offset="1" stop-color="#730E4B"/>
</radialGradient>
<linearGradient id="paint16_linear_1096_6118" x1="503.107" y1="333.648" x2="536.956" y2="338.388" gradientUnits="userSpaceOnUse">
<stop stop-color="#8F316A"/>
<stop offset="1" stop-color="#47032C"/>
</linearGradient>
<linearGradient id="paint17_linear_1096_6118" x1="550.91" y1="322.212" x2="580.767" y2="339.483" gradientUnits="userSpaceOnUse">
<stop stop-color="#8F316A"/>
<stop offset="1" stop-color="#47032C"/>
</linearGradient>
<linearGradient id="paint18_linear_1096_6118" x1="586.267" y1="333.74" x2="622.133" y2="358.491" gradientUnits="userSpaceOnUse">
<stop stop-color="#8F316A"/>
<stop offset="1" stop-color="#47032C"/>
</linearGradient>
<linearGradient id="paint19_linear_1096_6118" x1="645.095" y1="341.627" x2="662.472" y2="381.59" gradientUnits="userSpaceOnUse">
<stop stop-color="#8F316A"/>
<stop offset="1" stop-color="#47032C"/>
</linearGradient>
<linearGradient id="paint20_linear_1096_6118" x1="503.047" y1="335.446" x2="545.593" y2="344.87" gradientUnits="userSpaceOnUse">
<stop stop-color="#590E3B"/>
<stop offset="1" stop-color="#47032C"/>
</linearGradient>
<linearGradient id="paint21_linear_1096_6118" x1="551.914" y1="325.196" x2="587.78" y2="349.946" gradientUnits="userSpaceOnUse">
<stop stop-color="#590E3B"/>
<stop offset="1" stop-color="#47032C"/>
</linearGradient>
<linearGradient id="paint22_linear_1096_6118" x1="586.267" y1="337.519" x2="622.133" y2="362.27" gradientUnits="userSpaceOnUse">
<stop stop-color="#590E3B"/>
<stop offset="1" stop-color="#47032C"/>
</linearGradient>
<linearGradient id="paint23_linear_1096_6118" x1="645.095" y1="345.406" x2="662.472" y2="385.369" gradientUnits="userSpaceOnUse">
<stop stop-color="#590E3B"/>
<stop offset="1" stop-color="#47032C"/>
</linearGradient>
<linearGradient id="paint24_linear_1096_6118" x1="687.352" y1="376.66" x2="690.339" y2="420.135" gradientUnits="userSpaceOnUse">
<stop stop-color="#590E3B"/>
<stop offset="1" stop-color="#47032C"/>
</linearGradient>
<linearGradient id="paint25_linear_1096_6118" x1="708.371" y1="430.566" x2="699.335" y2="460.105" gradientUnits="userSpaceOnUse">
<stop stop-color="#590E3B"/>
<stop offset="1" stop-color="#47032C"/>
</linearGradient>
<linearGradient id="paint26_linear_1096_6118" x1="327.795" y1="255.403" x2="464.963" y2="443.961" gradientUnits="userSpaceOnUse">
<stop stop-color="#8D1C60"/>
<stop offset="1" stop-color="#48042C"/>
</linearGradient>
<radialGradient id="paint27_radial_1096_6118" cx="0" cy="0" r="1" gradientUnits="userSpaceOnUse" gradientTransform="translate(333.037 342.584) rotate(89.2867) scale(42.482 28.8292)">
<stop offset="0.5625" stop-color="#4D0731" stop-opacity="0"/>
<stop offset="1" stop-color="#730E4B"/>
</radialGradient>
<radialGradient id="paint28_radial_1096_6118" cx="0" cy="0" r="1" gradientUnits="userSpaceOnUse" gradientTransform="translate(336.816 328.225) rotate(89.2867) scale(42.482 28.8292)">
<stop offset="0.5625" stop-color="#4D0731" stop-opacity="0"/>
<stop offset="1" stop-color="#730E4B"/>
</radialGradient>
<radialGradient id="paint29_radial_1096_6118" cx="0" cy="0" r="1" gradientUnits="userSpaceOnUse" gradientTransform="translate(321.701 307.82) rotate(89.2867) scale(42.482 28.8292)">
<stop offset="0.5625" stop-color="#4D0731" stop-opacity="0"/>
<stop offset="1" stop-color="#730E4B"/>
</radialGradient>
<radialGradient id="paint30_radial_1096_6118" cx="0" cy="0" r="1" gradientUnits="userSpaceOnUse" gradientTransform="translate(375.484 311.054) rotate(89.3506) scale(42.4814 26.2478)">
<stop offset="0.5625" stop-color="#4D0731" stop-opacity="0"/>
<stop offset="1" stop-color="#730E4B"/>
</radialGradient>
<radialGradient id="paint31_radial_1096_6118" cx="0" cy="0" r="1" gradientUnits="userSpaceOnUse" gradientTransform="translate(368.447 281.012) rotate(89.3506) scale(42.4814 26.2478)">
<stop offset="0.5625" stop-color="#4D0731" stop-opacity="0"/>
<stop offset="1" stop-color="#730E4B"/>
</radialGradient>
<radialGradient id="paint32_radial_1096_6118" cx="0" cy="0" r="1" gradientUnits="userSpaceOnUse" gradientTransform="translate(379.028 295.371) rotate(89.3506) scale(42.4814 26.2478)">
<stop offset="0.5625" stop-color="#4D0731" stop-opacity="0"/>
<stop offset="1" stop-color="#730E4B"/>
</radialGradient>
<radialGradient id="paint33_radial_1096_6118" cx="0" cy="0" r="1" gradientUnits="userSpaceOnUse" gradientTransform="translate(410.123 335.026) rotate(89.2867) scale(42.482 28.8292)">
<stop offset="0.5625" stop-color="#4D0731" stop-opacity="0"/>
<stop offset="1" stop-color="#730E4B"/>
</radialGradient>
<radialGradient id="paint34_radial_1096_6118" cx="0" cy="0" r="1" gradientUnits="userSpaceOnUse" gradientTransform="translate(405.561 356.689) rotate(89.2867) scale(42.482 28.8292)">
<stop offset="0.5625" stop-color="#4D0731" stop-opacity="0"/>
<stop offset="1" stop-color="#730E4B"/>
</radialGradient>
<radialGradient id="paint35_radial_1096_6118" cx="0" cy="0" r="1" gradientUnits="userSpaceOnUse" gradientTransform="translate(364.751 353.666) rotate(89.2867) scale(42.482 28.8292)">
<stop offset="0.5625" stop-color="#4D0731" stop-opacity="0"/>
<stop offset="1" stop-color="#730E4B"/>
</radialGradient>
<linearGradient id="paint36_linear_1096_6118" x1="382.209" y1="209.885" x2="481.212" y2="247.672" gradientUnits="userSpaceOnUse">
<stop stop-color="#590E3B"/>
<stop offset="1" stop-color="#47032C"/>
</linearGradient>
<radialGradient id="paint37_radial_1096_6118" cx="0" cy="0" r="1" gradientUnits="userSpaceOnUse" gradientTransform="translate(370.494 151.11) rotate(17.2527) scale(63.7039 39.1079)">
<stop stop-color="#942266"/>
<stop offset="1" stop-color="#520934" stop-opacity="0"/>
</radialGradient>
<linearGradient id="paint38_linear_1096_6118" x1="382.209" y1="209.885" x2="481.212" y2="247.672" gradientUnits="userSpaceOnUse">
<stop stop-color="#410027"/>
<stop offset="1" stop-color="#47032C"/>
</linearGradient>
<radialGradient id="paint39_radial_1096_6118" cx="0" cy="0" r="1" gradientUnits="userSpaceOnUse" gradientTransform="translate(391.278 193.053) rotate(90) scale(31.4139 7.02399)">
<stop stop-color="white"/>
<stop offset="1" stop-color="#D9D9D9"/>
</radialGradient>
<radialGradient id="paint40_radial_1096_6118" cx="0" cy="0" r="1" gradientUnits="userSpaceOnUse" gradientTransform="translate(423.396 193.053) rotate(90) scale(31.4139 9.65799)">
<stop stop-color="white"/>
<stop offset="1" stop-color="#D9D9D9"/>
</radialGradient>
<radialGradient id="paint41_radial_1096_6118" cx="0" cy="0" r="1" gradientUnits="userSpaceOnUse" gradientTransform="translate(461.662 298.556) rotate(88.6361) scale(11.6418 15.1032)">
<stop offset="0.5625" stop-color="#4D0731" stop-opacity="0"/>
<stop offset="1" stop-color="#730E4B"/>
</radialGradient>
<radialGradient id="paint42_radial_1096_6118" cx="0" cy="0" r="1" gradientUnits="userSpaceOnUse" gradientTransform="translate(465.441 325.007) rotate(88.6361) scale(11.6418 15.1032)">
<stop offset="0.5625" stop-color="#4D0731" stop-opacity="0"/>
<stop offset="1" stop-color="#730E4B"/>
</radialGradient>
<radialGradient id="paint43_radial_1096_6118" cx="0" cy="0" r="1" gradientUnits="userSpaceOnUse" gradientTransform="translate(444.676 334.166) rotate(88.6361) scale(11.6418 15.1032)">
<stop offset="0.5625" stop-color="#4D0731" stop-opacity="0"/>
<stop offset="1" stop-color="#730E4B"/>
</radialGradient>
<radialGradient id="paint44_radial_1096_6118" cx="0" cy="0" r="1" gradientUnits="userSpaceOnUse" gradientTransform="translate(455.269 343.459) rotate(88.6361) scale(11.6418 15.1032)">
<stop offset="0.5625" stop-color="#4D0731" stop-opacity="0"/>
<stop offset="1" stop-color="#730E4B"/>
</radialGradient>
<radialGradient id="paint45_radial_1096_6118" cx="0" cy="0" r="1" gradientUnits="userSpaceOnUse" gradientTransform="translate(565.476 469.657) rotate(-19.7796) scale(190.15 192.791)">
<stop stop-color="#500631" stop-opacity="0"/>
<stop offset="0.333333" stop-color="#87285F"/>
<stop offset="0.567708" stop-color="#500631"/>
</radialGradient>
<linearGradient id="paint46_linear_1096_6118" x1="368.327" y1="102.502" x2="512.898" y2="129.73" gradientUnits="userSpaceOnUse">
<stop stop-color="#8D1AAB"/>
<stop offset="0.122722" stop-color="#8300A4"/>
<stop offset="0.429729" stop-color="#450056"/>
<stop offset="1" stop-color="#2F003A"/>
</linearGradient>
<linearGradient id="paint47_linear_1096_6118" x1="457.045" y1="112.522" x2="472.337" y2="104.074" gradientUnits="userSpaceOnUse">
<stop stop-color="#690184"/>
<stop offset="1" stop-color="#690184" stop-opacity="0"/>
</linearGradient>
<linearGradient id="paint48_linear_1096_6118" x1="387.12" y1="115.212" x2="484.989" y2="143.174" gradientUnits="userSpaceOnUse">
<stop stop-color="#99001C"/>
<stop offset="0.152682" stop-color="#FF6108"/>
<stop offset="0.172515" stop-color="#99006E"/>
<stop offset="0.295071" stop-color="#99006E"/>
<stop offset="0.786458" stop-color="#450056"/>
<stop offset="1" stop-color="#450056"/>
</linearGradient>
<linearGradient id="paint49_linear_1096_6118" x1="341.14" y1="130.062" x2="527.735" y2="151.412" gradientUnits="userSpaceOnUse">
<stop stop-color="#AB19D0"/>
<stop offset="1" stop-color="#3A0148"/>
</linearGradient>
<radialGradient id="paint50_radial_1096_6118" cx="0" cy="0" r="1" gradientUnits="userSpaceOnUse" gradientTransform="translate(457.127 172.346) rotate(88.6361) scale(11.6418 15.1032)">
<stop offset="0.5625" stop-color="#4D0731" stop-opacity="0"/>
<stop offset="1" stop-color="#730E4B"/>
</radialGradient>
<radialGradient id="paint51_radial_1096_6118" cx="0" cy="0" r="1" gradientUnits="userSpaceOnUse" gradientTransform="translate(469.219 180.659) rotate(88.6361) scale(11.6418 15.1032)">
<stop offset="0.5625" stop-color="#4D0731" stop-opacity="0"/>
<stop offset="1" stop-color="#730E4B"/>
</radialGradient>
<radialGradient id="paint52_radial_1096_6118" cx="0" cy="0" r="1" gradientUnits="userSpaceOnUse" gradientTransform="translate(473.754 161.01) rotate(88.6361) scale(11.6418 15.1032)">
<stop offset="0.5625" stop-color="#4D0731" stop-opacity="0"/>
<stop offset="1" stop-color="#730E4B"/>
</radialGradient>
<radialGradient id="paint53_radial_1096_6118" cx="0" cy="0" r="1" gradientUnits="userSpaceOnUse" gradientTransform="translate(451.837 155.72) rotate(88.6361) scale(11.6418 15.1032)">
<stop offset="0.5625" stop-color="#4D0731" stop-opacity="0"/>
<stop offset="1" stop-color="#730E4B"/>
</radialGradient>
<linearGradient id="paint54_linear_1096_6118" x1="783.645" y1="705.996" x2="659.068" y2="433.308" gradientUnits="userSpaceOnUse">
<stop offset="0.1357" stop-color="#6137A1"/>
<stop offset="0.3613" stop-color="#7B45B3"/>
<stop offset="0.6491" stop-color="#A45ECF"/>
<stop offset="0.9847" stop-color="#DD7FF6"/>
<stop offset="0.9944" stop-color="#DF80F7"/>
</linearGradient>
<linearGradient id="paint55_linear_1096_6118" x1="786.477" y1="739.975" x2="648.571" y2="438.11" gradientUnits="userSpaceOnUse">
<stop offset="0.1357" stop-color="#FF8836"/>
<stop offset="0.3613" stop-color="#FF6C3E"/>
<stop offset="0.6491" stop-color="#FF8632"/>
<stop offset="0.880208" stop-color="#FE8E3B"/>
<stop offset="1" stop-color="#FE994E"/>
</linearGradient>
<linearGradient id="paint56_linear_1096_6118" x1="729.852" y1="37.9824" x2="623.209" y2="103.789" gradientUnits="userSpaceOnUse">
<stop offset="0.1357" stop-color="#6137A1"/>
<stop offset="0.3613" stop-color="#7B45B3"/>
<stop offset="0.6491" stop-color="#A45ECF"/>
<stop offset="0.9847" stop-color="#DD7FF6"/>
<stop offset="0.9944" stop-color="#DF80F7"/>
</linearGradient>
<linearGradient id="paint57_linear_1096_6118" x1="737.875" y1="25.4475" x2="619.822" y2="98.2949" gradientUnits="userSpaceOnUse">
<stop offset="0.1357" stop-color="#FF8836"/>
<stop offset="0.3613" stop-color="#FF6C3E"/>
<stop offset="0.6491" stop-color="#FF8632"/>
<stop offset="0.880208" stop-color="#FE8E3B"/>
<stop offset="1" stop-color="#FE994E"/>
</linearGradient>
<clipPath id="clip0_1096_6118">
<rect width="1154" height="550" fill="white"/>
</clipPath>
</defs>
</svg>
