<svg width="19" height="19" viewBox="0 0 19 19" fill="none" xmlns="http://www.w3.org/2000/svg">
<circle cx="9.36507" cy="9.07717" r="8.07717" stroke="#57458F" stroke-width="2"/>
<path d="M8.2879 8C8.2879 7.44772 8.73562 7 9.2879 7C9.84019 7 10.2879 7.44771 10.2879 8L10.2879 13C10.2879 13.5523 9.8402 14 9.28791 14C8.73563 14 8.28791 13.5523 8.28791 13L8.2879 8Z" fill="#57458F"/>
<path d="M10.2879 5C10.2879 5.55228 9.84019 6 9.2879 6C8.73562 6 8.2879 5.55228 8.2879 5C8.2879 4.44772 8.73562 4 9.2879 4C9.84019 4 10.2879 4.44772 10.2879 5Z" fill="#57458F"/>
</svg>
